<svg id="svg" version="1.1"
  xmlns="http://www.w3.org/2000/svg"
  xmlns:xlink="http://www.w3.org/1999/xlink" width="400" height="241.42857142857142" viewBox="0, 0, 400,241.42857142857142">
  <g id="svgg">
    <path id="path0" d="M284.058 99.031 C 283.859 99.161,282.821 99.270,281.751 99.272 C 280.682 99.274,279.704 99.375,279.577 99.497 C 279.451 99.618,278.696 99.777,277.899 99.850 C 275.232 100.092,274.038 100.265,273.551 100.479 C 273.053 100.698,272.092 100.896,270.411 101.125 C 269.879 101.198,269.341 101.355,269.215 101.474 C 269.089 101.593,268.633 101.691,268.203 101.691 C 267.772 101.691,267.353 101.800,267.271 101.932 C 267.188 102.065,266.754 102.174,266.304 102.174 C 265.855 102.174,265.420 102.283,265.338 102.415 C 265.256 102.548,264.930 102.657,264.614 102.657 C 264.297 102.657,263.971 102.766,263.889 102.899 C 263.807 103.031,263.481 103.140,263.164 103.140 C 262.848 103.140,262.522 103.249,262.440 103.382 C 262.358 103.514,262.031 103.623,261.715 103.623 C 261.399 103.623,261.072 103.732,260.990 103.865 C 260.908 103.998,260.574 104.106,260.248 104.106 C 259.922 104.106,259.412 104.232,259.115 104.386 C 257.981 104.972,257.725 105.072,257.367 105.072 C 257.164 105.072,256.810 105.168,256.579 105.286 C 256.348 105.403,255.888 105.606,255.556 105.737 C 255.223 105.867,254.626 106.112,254.227 106.280 C 253.829 106.449,253.285 106.667,253.019 106.765 C 252.402 106.993,250.392 107.895,249.192 108.483 C 248.681 108.733,248.111 108.937,247.924 108.937 C 247.737 108.937,247.585 109.046,247.585 109.179 C 247.585 109.312,247.367 109.420,247.101 109.420 C 246.836 109.420,246.618 109.529,246.618 109.662 C 246.618 109.795,246.410 109.903,246.155 109.903 C 245.901 109.903,245.656 109.989,245.612 110.093 C 245.568 110.197,244.690 110.695,243.661 111.200 C 242.633 111.704,241.732 112.213,241.659 112.331 C 241.587 112.449,240.852 112.882,240.027 113.294 C 239.202 113.706,237.929 114.412,237.198 114.863 C 236.467 115.314,235.652 115.785,235.386 115.909 C 235.121 116.034,234.491 116.418,233.987 116.763 C 233.483 117.109,232.983 117.391,232.877 117.391 C 232.771 117.391,232.487 117.609,232.246 117.874 C 232.006 118.140,231.707 118.357,231.583 118.357 C 231.355 118.357,230.613 118.886,229.126 120.109 C 228.681 120.474,228.213 120.773,228.085 120.773 C 227.957 120.773,227.656 120.990,227.415 121.256 C 227.175 121.522,226.852 121.739,226.699 121.739 C 226.545 121.739,226.106 122.065,225.725 122.464 C 225.343 122.862,224.908 123.188,224.758 123.188 C 224.609 123.188,224.174 123.514,223.792 123.913 C 223.410 124.312,222.977 124.638,222.830 124.638 C 222.682 124.638,222.137 125.072,221.618 125.604 C 221.099 126.135,220.556 126.570,220.411 126.570 C 220.265 126.570,219.722 127.005,219.203 127.536 C 218.684 128.068,218.155 128.502,218.028 128.502 C 217.901 128.502,217.135 129.098,216.326 129.825 C 215.517 130.553,213.845 132.048,212.611 133.147 C 211.377 134.246,207.433 138.025,203.847 141.546 C 196.685 148.577,196.341 149.066,198.430 149.231 C 198.961 149.273,199.499 149.409,199.626 149.533 C 199.752 149.657,200.805 149.758,201.966 149.758 C 203.128 149.758,204.145 149.867,204.227 150.000 C 204.309 150.133,204.853 150.242,205.435 150.242 C 206.017 150.242,206.560 150.350,206.643 150.483 C 206.963 151.001,208.739 150.458,209.424 149.633 C 209.588 149.436,209.850 149.275,210.009 149.275 C 210.167 149.275,210.609 148.949,210.990 148.551 C 211.372 148.152,211.814 147.826,211.972 147.826 C 212.130 147.826,212.397 147.661,212.565 147.459 C 212.918 147.033,216.376 144.686,216.649 144.686 C 216.751 144.686,217.030 144.469,217.271 144.203 C 217.511 143.937,217.841 143.720,218.003 143.720 C 218.165 143.720,218.432 143.559,218.594 143.363 C 218.757 143.167,219.504 142.713,220.254 142.355 C 221.005 141.997,221.803 141.549,222.028 141.358 C 222.493 140.965,225.594 139.372,225.894 139.372 C 226.003 139.372,227.259 138.818,228.686 138.141 C 230.113 137.465,231.498 136.828,231.763 136.726 C 232.029 136.625,232.719 136.309,233.296 136.025 C 233.873 135.740,234.476 135.507,234.637 135.507 C 235.063 135.507,236.228 134.933,236.230 134.722 C 236.231 134.623,236.497 134.541,236.821 134.541 C 237.146 134.541,237.478 134.432,237.560 134.300 C 237.642 134.167,237.921 134.058,238.179 134.058 C 238.436 134.058,238.647 133.949,238.647 133.816 C 238.647 133.684,238.913 133.575,239.237 133.575 C 239.561 133.575,239.894 133.466,239.976 133.333 C 240.058 133.200,240.384 133.092,240.700 133.092 C 241.017 133.092,241.343 132.983,241.425 132.850 C 241.507 132.717,241.833 132.609,242.150 132.609 C 242.466 132.609,242.792 132.500,242.874 132.367 C 242.957 132.234,243.391 132.126,243.841 132.126 C 244.290 132.126,244.725 132.017,244.807 131.884 C 244.889 131.751,245.324 131.643,245.773 131.643 C 246.222 131.643,246.657 131.534,246.739 131.401 C 246.821 131.268,247.256 131.159,247.705 131.159 C 248.155 131.159,248.589 131.051,248.671 130.918 C 248.754 130.785,249.303 130.676,249.893 130.676 C 250.483 130.676,250.966 130.583,250.966 130.469 C 250.966 130.355,252.189 130.135,253.684 129.980 C 255.178 129.825,257.271 129.580,258.333 129.435 C 262.286 128.898,279.590 129.181,280.959 129.805 C 281.206 129.918,281.607 129.828,281.998 129.572 C 282.609 129.171,282.661 129.175,283.336 129.674 C 283.834 130.042,284.389 130.193,285.242 130.193 C 285.903 130.193,286.512 130.302,286.594 130.435 C 286.676 130.568,287.220 130.676,287.802 130.676 C 288.384 130.676,288.928 130.785,289.010 130.918 C 289.092 131.051,289.635 131.159,290.217 131.159 C 290.800 131.159,291.343 131.268,291.425 131.401 C 291.507 131.534,292.051 131.643,292.633 131.643 C 293.215 131.643,293.758 131.751,293.841 131.884 C 293.923 132.017,294.364 132.126,294.821 132.126 C 295.278 132.126,295.652 132.234,295.652 132.367 C 295.652 132.500,296.087 132.609,296.618 132.609 C 297.150 132.609,297.585 132.717,297.585 132.850 C 297.585 132.983,297.904 133.092,298.295 133.092 C 298.686 133.092,299.072 133.200,299.155 133.333 C 299.237 133.466,299.617 133.575,300.000 133.575 C 300.383 133.575,300.763 133.684,300.845 133.816 C 300.928 133.949,301.254 134.058,301.570 134.058 C 301.886 134.058,302.213 134.167,302.295 134.300 C 302.377 134.432,302.812 134.541,303.261 134.541 C 303.710 134.541,304.145 134.650,304.227 134.783 C 304.309 134.915,304.635 135.024,304.952 135.024 C 305.268 135.024,305.594 135.133,305.676 135.266 C 305.758 135.399,306.085 135.507,306.401 135.507 C 306.717 135.507,307.043 135.616,307.126 135.749 C 307.208 135.882,307.534 135.990,307.850 135.990 C 308.167 135.990,308.493 136.099,308.575 136.232 C 308.657 136.365,308.983 136.473,309.300 136.473 C 309.616 136.473,309.942 136.582,310.024 136.715 C 310.106 136.848,310.381 136.957,310.635 136.957 C 310.889 136.957,311.483 137.174,311.957 137.440 C 312.430 137.705,313.024 137.923,313.278 137.923 C 313.532 137.923,313.807 138.031,313.889 138.164 C 313.971 138.297,314.246 138.406,314.500 138.406 C 314.753 138.406,315.348 138.623,315.821 138.889 C 316.294 139.155,316.868 139.374,317.097 139.377 C 317.325 139.380,317.784 139.595,318.116 139.855 C 318.448 140.115,318.905 140.330,319.132 140.333 C 319.512 140.338,320.141 140.606,324.321 142.544 C 325.142 142.925,325.925 143.237,326.061 143.237 C 326.406 143.237,342.960 151.438,343.112 151.685 C 343.181 151.796,344.297 152.411,345.592 153.051 C 346.887 153.691,348.158 154.408,348.415 154.644 C 348.673 154.879,349.026 155.072,349.200 155.072 C 349.374 155.072,349.517 155.181,349.517 155.314 C 349.517 155.447,349.663 155.556,349.842 155.556 C 350.315 155.556,351.691 156.279,351.691 156.528 C 351.691 156.645,352.096 156.933,352.591 157.168 C 353.575 157.635,358.412 160.476,358.843 160.840 C 358.990 160.965,359.577 161.305,360.147 161.595 C 360.717 161.886,362.004 162.657,363.006 163.309 C 365.009 164.610,366.522 164.911,366.844 164.070 C 366.933 163.838,367.310 163.197,367.682 162.646 C 368.053 162.095,368.357 161.542,368.357 161.415 C 368.357 161.289,368.575 160.989,368.841 160.749 C 369.106 160.508,369.324 160.182,369.324 160.024 C 369.324 159.866,369.541 159.540,369.807 159.300 C 370.072 159.059,370.290 158.733,370.290 158.575 C 370.290 158.417,370.507 158.091,370.773 157.850 C 371.039 157.610,371.256 157.325,371.256 157.218 C 371.256 157.111,371.854 156.146,372.585 155.072 C 373.315 153.999,373.913 153.060,373.913 152.985 C 373.913 152.909,374.239 152.365,374.638 151.774 C 375.036 151.184,375.362 150.614,375.362 150.508 C 375.362 150.403,375.580 150.120,375.845 149.879 C 376.111 149.639,376.329 149.313,376.329 149.155 C 376.329 148.996,376.546 148.670,376.812 148.430 C 377.077 148.189,377.295 147.863,377.295 147.705 C 377.295 147.547,377.512 147.221,377.778 146.981 C 378.043 146.740,378.261 146.414,378.261 146.256 C 378.261 146.098,378.478 145.772,378.744 145.531 C 379.010 145.291,379.227 144.948,379.227 144.769 C 379.227 144.591,379.336 144.444,379.469 144.444 C 379.601 144.444,379.710 144.280,379.710 144.080 C 379.710 143.879,380.036 143.374,380.435 142.957 C 380.833 142.540,381.159 142.052,381.159 141.872 C 381.159 141.693,381.268 141.546,381.401 141.546 C 381.534 141.546,381.643 141.355,381.643 141.121 C 381.643 140.887,381.860 140.560,382.126 140.394 C 382.391 140.228,382.609 139.947,382.609 139.770 C 382.609 139.592,382.826 139.250,383.092 139.010 C 383.357 138.769,383.575 138.425,383.575 138.245 C 383.575 138.065,383.792 137.732,384.058 137.504 C 384.324 137.277,384.541 136.988,384.541 136.861 C 384.541 136.735,384.722 136.433,384.942 136.189 C 385.329 135.761,385.657 135.248,386.253 134.136 C 386.584 133.519,386.361 132.367,385.910 132.367 C 385.738 132.367,385.285 132.041,384.903 131.643 C 384.522 131.244,384.087 130.918,383.937 130.918 C 383.788 130.918,383.353 130.592,382.971 130.193 C 382.589 129.795,382.151 129.469,381.997 129.469 C 381.843 129.469,381.521 129.251,381.280 128.986 C 381.040 128.720,380.714 128.502,380.556 128.502 C 380.397 128.502,380.071 128.285,379.831 128.019 C 379.590 127.754,379.268 127.536,379.114 127.536 C 378.960 127.536,378.522 127.210,378.140 126.812 C 377.758 126.413,377.320 126.087,377.166 126.087 C 377.012 126.087,376.690 125.870,376.449 125.604 C 376.209 125.338,375.883 125.121,375.725 125.121 C 375.567 125.121,375.240 124.903,375.000 124.638 C 374.760 124.372,374.430 124.155,374.268 124.155 C 374.105 124.155,373.832 123.986,373.662 123.780 C 373.491 123.574,372.897 123.199,372.343 122.947 C 371.789 122.694,371.195 122.319,371.024 122.113 C 370.854 121.908,370.577 121.739,370.411 121.739 C 370.244 121.739,369.980 121.586,369.825 121.399 C 369.670 121.212,368.897 120.728,368.107 120.324 C 367.318 119.920,366.535 119.465,366.367 119.313 C 365.696 118.704,356.125 113.768,355.616 113.768 C 355.450 113.768,355.313 113.687,355.312 113.587 C 355.310 113.378,354.147 112.802,353.729 112.802 C 353.575 112.802,352.603 112.367,351.570 111.836 C 350.537 111.304,349.544 110.870,349.363 110.870 C 349.182 110.870,349.034 110.761,349.034 110.628 C 349.034 110.495,348.820 110.386,348.558 110.386 C 348.296 110.386,347.695 110.169,347.222 109.903 C 346.749 109.638,346.206 109.420,346.014 109.420 C 345.823 109.420,345.280 109.203,344.807 108.937 C 344.334 108.671,343.739 108.454,343.485 108.454 C 343.231 108.454,342.957 108.345,342.874 108.213 C 342.792 108.080,342.517 107.971,342.264 107.971 C 342.010 107.971,341.415 107.754,340.942 107.488 C 340.469 107.222,339.874 107.005,339.620 107.005 C 339.367 107.005,339.092 106.896,339.010 106.763 C 338.928 106.630,338.595 106.522,338.271 106.522 C 337.946 106.522,337.681 106.413,337.681 106.280 C 337.681 106.147,337.408 106.039,337.074 106.039 C 336.489 106.039,336.269 105.963,335.088 105.352 C 334.791 105.198,334.281 105.072,333.955 105.072 C 333.629 105.072,333.295 104.964,333.213 104.831 C 333.130 104.698,332.750 104.589,332.367 104.589 C 331.984 104.589,331.604 104.481,331.522 104.348 C 331.440 104.215,331.059 104.106,330.676 104.106 C 330.293 104.106,329.913 103.998,329.831 103.865 C 329.749 103.732,329.368 103.623,328.986 103.623 C 328.603 103.623,328.222 103.514,328.140 103.382 C 328.058 103.249,327.623 103.140,327.174 103.140 C 326.725 103.140,326.290 103.031,326.208 102.899 C 326.126 102.766,325.691 102.657,325.242 102.657 C 324.792 102.657,324.357 102.548,324.275 102.415 C 324.193 102.283,323.758 102.174,323.309 102.174 C 322.860 102.174,322.425 102.065,322.343 101.932 C 322.261 101.800,321.717 101.691,321.135 101.691 C 320.553 101.691,320.010 101.582,319.928 101.449 C 319.845 101.316,319.302 101.208,318.720 101.208 C 318.138 101.208,317.594 101.099,317.512 100.966 C 317.430 100.833,316.902 100.725,316.338 100.725 C 315.775 100.725,315.211 100.625,315.085 100.503 C 314.958 100.382,314.203 100.223,313.406 100.151 C 312.609 100.078,311.141 99.902,310.145 99.759 C 309.149 99.616,307.355 99.385,306.159 99.244 C 303.233 98.900,284.534 98.719,284.058 99.031 M87.319 103.382 C 87.234 103.519,86.004 103.623,84.454 103.623 C 82.961 103.623,81.636 103.724,81.510 103.848 C 81.383 103.972,80.302 104.128,79.106 104.196 C 76.247 104.356,74.570 104.586,74.287 104.854 C 74.161 104.974,73.488 105.072,72.792 105.072 C 72.096 105.072,71.459 105.181,71.377 105.314 C 71.295 105.447,70.751 105.556,70.169 105.556 C 69.587 105.556,69.043 105.664,68.961 105.797 C 68.879 105.930,68.336 106.039,67.754 106.039 C 67.171 106.039,66.628 106.147,66.546 106.280 C 66.464 106.413,66.023 106.522,65.565 106.522 C 65.108 106.522,64.734 106.630,64.734 106.763 C 64.734 106.896,64.360 107.005,63.903 107.005 C 63.446 107.005,63.005 107.114,62.923 107.246 C 62.841 107.379,62.406 107.488,61.957 107.488 C 61.507 107.488,61.072 107.597,60.990 107.729 C 60.908 107.862,60.582 107.971,60.266 107.971 C 59.949 107.971,59.623 108.080,59.541 108.213 C 59.459 108.345,59.133 108.454,58.816 108.454 C 58.500 108.454,58.174 108.563,58.092 108.696 C 58.010 108.829,57.684 108.937,57.367 108.937 C 57.051 108.937,56.725 109.046,56.643 109.179 C 56.560 109.312,56.234 109.420,55.918 109.420 C 55.601 109.420,55.275 109.529,55.193 109.662 C 55.111 109.795,54.836 109.903,54.582 109.903 C 54.329 109.903,53.734 110.121,53.261 110.386 C 52.788 110.652,52.244 110.870,52.053 110.870 C 51.862 110.870,51.318 111.087,50.845 111.353 C 50.372 111.618,49.836 111.836,49.653 111.836 C 49.256 111.836,47.257 112.846,47.142 113.104 C 47.097 113.204,46.853 113.285,46.598 113.285 C 46.344 113.285,46.135 113.394,46.135 113.527 C 46.135 113.659,45.962 113.768,45.750 113.768 C 45.538 113.768,44.804 114.076,44.120 114.452 C 43.435 114.829,42.005 115.612,40.942 116.194 C 39.879 116.775,38.873 117.384,38.706 117.547 C 38.539 117.709,38.186 117.912,37.921 117.996 C 37.656 118.080,37.440 118.232,37.440 118.335 C 37.440 118.438,37.164 118.647,36.827 118.801 C 36.490 118.954,36.082 119.188,35.921 119.319 C 34.571 120.420,34.079 120.773,33.891 120.773 C 33.771 120.773,33.248 121.208,32.729 121.739 C 32.211 122.271,31.671 122.705,31.530 122.705 C 31.197 122.705,24.155 129.757,24.155 130.091 C 24.155 130.230,23.829 130.657,23.430 131.039 C 23.031 131.420,22.705 131.855,22.705 132.005 C 22.705 132.154,22.379 132.589,21.981 132.971 C 21.582 133.353,21.256 133.758,21.256 133.872 C 21.256 133.985,21.039 134.312,20.773 134.597 C 20.507 134.882,20.290 135.258,20.290 135.432 C 20.290 135.606,20.181 135.749,20.048 135.749 C 19.915 135.749,19.807 135.916,19.807 136.121 C 19.807 136.326,19.607 136.708,19.362 136.971 C 18.898 137.469,18.853 137.552,17.678 140.097 C 16.559 142.521,16.058 143.744,15.702 144.928 C 15.522 145.525,15.285 146.118,15.175 146.244 C 15.066 146.370,14.976 146.826,14.976 147.256 C 14.976 147.687,14.867 148.106,14.734 148.188 C 14.601 148.271,14.493 148.705,14.493 149.155 C 14.493 149.604,14.384 150.039,14.251 150.121 C 13.959 150.302,13.937 151.926,14.221 152.374 C 14.538 152.874,15.802 152.632,15.896 152.053 C 16.012 151.343,18.086 147.186,18.492 146.848 C 18.684 146.689,18.841 146.426,18.841 146.264 C 18.841 146.101,19.058 145.772,19.324 145.531 C 19.589 145.291,19.807 144.986,19.807 144.853 C 19.807 144.720,20.323 144.037,20.954 143.334 C 21.585 142.631,22.411 141.669,22.789 141.197 C 23.168 140.725,23.607 140.338,23.765 140.338 C 23.923 140.338,24.587 139.795,25.242 139.130 C 25.896 138.466,26.554 137.923,26.705 137.923 C 26.855 137.923,27.175 137.705,27.415 137.440 C 27.656 137.174,27.986 136.957,28.148 136.957 C 28.310 136.957,28.573 136.801,28.731 136.610 C 29.061 136.212,34.271 133.575,34.727 133.575 C 35.023 133.575,35.299 133.462,36.410 132.888 C 36.707 132.734,37.223 132.609,37.557 132.609 C 37.891 132.609,38.164 132.500,38.164 132.367 C 38.164 132.234,38.647 132.126,39.237 132.126 C 39.827 132.126,40.377 132.017,40.459 131.884 C 40.541 131.751,41.193 131.643,41.908 131.643 C 42.623 131.643,43.275 131.534,43.357 131.401 C 43.444 131.261,44.769 131.159,46.512 131.159 C 48.354 131.159,49.517 131.253,49.517 131.401 C 49.517 131.549,50.680 131.643,52.522 131.643 C 54.265 131.643,55.590 131.744,55.676 131.884 C 55.758 132.017,56.628 132.126,57.609 132.126 C 58.589 132.126,59.459 132.234,59.541 132.367 C 59.623 132.500,60.275 132.609,60.990 132.609 C 61.705 132.609,62.358 132.717,62.440 132.850 C 62.522 132.983,63.065 133.092,63.647 133.092 C 64.229 133.092,64.773 133.200,64.855 133.333 C 64.937 133.466,65.535 133.575,66.184 133.575 C 66.832 133.575,67.430 133.684,67.512 133.816 C 67.594 133.949,68.029 134.058,68.478 134.058 C 68.928 134.058,69.362 134.167,69.444 134.300 C 69.527 134.432,69.961 134.541,70.411 134.541 C 70.860 134.541,71.295 134.650,71.377 134.783 C 71.459 134.915,71.894 135.024,72.343 135.024 C 72.792 135.024,73.227 135.133,73.309 135.266 C 73.391 135.399,73.717 135.507,74.034 135.507 C 74.350 135.507,74.676 135.616,74.758 135.749 C 74.841 135.882,75.275 135.990,75.725 135.990 C 76.174 135.990,76.609 136.099,76.691 136.232 C 76.773 136.365,77.099 136.473,77.415 136.473 C 77.732 136.473,78.058 136.582,78.140 136.715 C 78.222 136.848,78.548 136.957,78.865 136.957 C 79.181 136.957,79.507 137.065,79.589 137.198 C 79.671 137.331,80.004 137.440,80.328 137.440 C 80.653 137.440,80.918 137.548,80.918 137.681 C 80.918 137.814,81.244 137.923,81.643 137.923 C 82.041 137.923,82.367 138.031,82.367 138.164 C 82.367 138.297,82.617 138.406,82.923 138.406 C 83.559 138.406,84.778 138.921,84.781 139.191 C 84.782 139.290,84.997 139.372,85.258 139.372 C 85.520 139.372,86.121 139.589,86.594 139.855 C 87.067 140.121,87.620 140.338,87.823 140.338 C 88.025 140.338,88.810 140.651,89.566 141.033 C 90.323 141.415,91.214 141.836,91.546 141.968 C 91.878 142.100,94.516 143.364,97.408 144.776 C 100.300 146.188,102.760 147.343,102.874 147.343 C 102.988 147.343,103.217 147.507,103.384 147.708 C 103.551 147.909,104.375 148.402,105.216 148.803 C 106.057 149.204,106.807 149.634,106.884 149.758 C 106.961 149.883,107.712 150.313,108.552 150.714 C 109.393 151.115,110.217 151.608,110.384 151.809 C 110.551 152.010,110.824 152.174,110.990 152.174 C 111.157 152.174,111.433 152.342,111.604 152.548 C 111.775 152.754,112.392 153.140,112.974 153.405 C 113.557 153.671,114.094 154.046,114.168 154.239 C 114.242 154.432,114.509 154.589,114.760 154.589 C 115.012 154.589,115.217 154.681,115.217 154.793 C 115.217 154.905,115.734 155.255,116.365 155.571 C 116.996 155.888,117.989 156.557,118.573 157.059 C 119.156 157.560,119.766 157.971,119.929 157.971 C 120.091 157.971,120.592 158.296,121.042 158.693 C 121.492 159.091,122.050 159.478,122.283 159.555 C 122.515 159.632,122.705 159.783,122.705 159.890 C 122.705 159.998,123.031 160.221,123.430 160.386 C 123.829 160.552,124.155 160.775,124.155 160.883 C 124.155 160.990,124.371 161.147,124.636 161.231 C 124.901 161.316,125.254 161.515,125.421 161.676 C 125.588 161.836,126.331 162.366,127.072 162.853 C 127.812 163.340,128.559 163.908,128.732 164.115 C 128.904 164.323,129.225 164.493,129.445 164.493 C 129.665 164.493,130.002 164.710,130.193 164.976 C 130.385 165.242,130.653 165.459,130.790 165.460 C 130.927 165.461,131.386 165.787,131.811 166.185 C 132.235 166.583,132.670 166.909,132.777 166.909 C 132.884 166.910,133.318 167.236,133.743 167.634 C 134.167 168.032,134.578 168.357,134.656 168.357 C 134.733 168.357,135.497 168.901,136.353 169.565 C 137.209 170.229,138.000 170.773,138.112 170.773 C 138.224 170.773,138.628 171.099,139.010 171.498 C 139.391 171.896,139.826 172.222,139.976 172.222 C 140.125 172.222,140.560 172.548,140.942 172.947 C 141.324 173.345,141.759 173.671,141.908 173.671 C 142.058 173.671,142.493 173.998,142.874 174.396 C 143.256 174.795,143.698 175.121,143.856 175.121 C 144.014 175.121,144.291 175.299,144.472 175.516 C 144.652 175.733,145.182 176.169,145.649 176.483 C 146.116 176.798,146.987 177.435,147.585 177.899 C 148.182 178.363,148.889 178.840,149.155 178.960 C 149.420 179.080,149.957 179.515,150.347 179.927 C 150.737 180.339,151.182 180.676,151.336 180.676 C 151.490 180.676,151.813 180.894,152.053 181.159 C 152.294 181.425,152.616 181.643,152.770 181.643 C 152.924 181.643,153.362 181.969,153.744 182.367 C 154.126 182.766,154.561 183.092,154.710 183.092 C 154.860 183.092,155.294 183.418,155.676 183.816 C 156.058 184.215,156.496 184.541,156.650 184.541 C 156.804 184.541,157.127 184.758,157.367 185.024 C 157.608 185.290,157.930 185.507,158.084 185.507 C 158.238 185.507,158.676 185.833,159.058 186.232 C 159.440 186.630,159.878 186.957,160.032 186.957 C 160.186 186.957,160.508 187.174,160.749 187.440 C 160.989 187.705,161.312 187.923,161.466 187.923 C 161.620 187.923,162.058 188.249,162.440 188.647 C 162.821 189.046,163.276 189.372,163.449 189.372 C 163.622 189.372,163.900 189.589,164.066 189.855 C 164.232 190.121,164.538 190.338,164.747 190.338 C 164.956 190.338,165.439 190.664,165.821 191.063 C 166.203 191.461,166.615 191.787,166.737 191.787 C 166.928 191.787,167.419 192.138,168.771 193.241 C 168.932 193.373,169.340 193.606,169.677 193.760 C 170.014 193.913,170.290 194.117,170.290 194.212 C 170.290 194.308,170.616 194.521,171.014 194.686 C 171.413 194.851,171.739 195.068,171.739 195.169 C 171.739 195.270,172.065 195.487,172.464 195.652 C 172.862 195.817,173.188 196.041,173.188 196.148 C 173.188 196.256,173.423 196.419,173.709 196.509 C 173.995 196.600,175.074 197.260,176.107 197.975 C 177.139 198.690,178.084 199.275,178.206 199.275 C 178.328 199.275,178.624 199.493,178.865 199.758 C 179.105 200.024,179.448 200.242,179.627 200.242 C 179.805 200.242,179.952 200.350,179.952 200.483 C 179.952 200.616,180.145 200.725,180.381 200.725 C 180.618 200.725,180.968 200.942,181.159 201.208 C 181.351 201.473,181.701 201.691,181.937 201.691 C 182.174 201.691,182.367 201.800,182.367 201.932 C 182.367 202.065,182.513 202.174,182.692 202.174 C 182.871 202.174,183.214 202.391,183.454 202.657 C 183.695 202.923,184.017 203.140,184.171 203.140 C 184.324 203.140,184.661 203.333,184.918 203.570 C 185.176 203.806,186.009 204.302,186.771 204.672 C 187.532 205.042,188.216 205.443,188.290 205.563 C 188.364 205.683,189.123 206.115,189.976 206.522 C 190.829 206.929,191.585 207.356,191.657 207.472 C 191.826 207.745,204.896 214.251,205.276 214.251 C 205.436 214.251,206.406 214.672,207.433 215.187 C 208.460 215.702,209.652 216.199,210.082 216.293 C 210.512 216.386,210.926 216.563,211.002 216.685 C 211.078 216.808,211.405 216.908,211.729 216.908 C 212.054 216.908,212.319 217.017,212.319 217.150 C 212.319 217.283,212.536 217.391,212.802 217.391 C 213.068 217.391,213.285 217.500,213.285 217.633 C 213.285 217.766,213.504 217.874,213.771 217.874 C 214.039 217.874,214.474 217.983,214.738 218.116 C 215.001 218.249,215.433 218.466,215.697 218.599 C 215.961 218.732,216.343 218.841,216.546 218.841 C 216.749 218.841,217.131 218.949,217.395 219.082 C 217.658 219.215,218.090 219.432,218.354 219.565 C 218.618 219.698,219.046 219.807,219.306 219.807 C 219.566 219.807,219.845 219.915,219.928 220.048 C 220.010 220.181,220.336 220.290,220.652 220.290 C 220.969 220.290,221.295 220.399,221.377 220.531 C 221.459 220.664,221.785 220.773,222.101 220.773 C 222.418 220.773,222.744 220.882,222.826 221.014 C 222.908 221.147,223.234 221.256,223.551 221.256 C 223.867 221.256,224.193 221.365,224.275 221.498 C 224.357 221.630,224.792 221.739,225.242 221.739 C 225.691 221.739,226.126 221.848,226.208 221.981 C 226.290 222.114,226.616 222.222,226.932 222.222 C 227.249 222.222,227.575 222.331,227.657 222.464 C 227.739 222.597,228.174 222.705,228.623 222.705 C 229.072 222.705,229.507 222.814,229.589 222.947 C 229.671 223.080,230.113 223.188,230.570 223.188 C 231.027 223.188,231.401 223.297,231.401 223.430 C 231.401 223.563,231.836 223.671,232.367 223.671 C 232.899 223.671,233.333 223.780,233.333 223.913 C 233.333 224.046,233.768 224.155,234.300 224.155 C 234.831 224.155,235.266 224.263,235.266 224.396 C 235.266 224.529,235.787 224.638,236.425 224.638 C 237.063 224.638,237.688 224.735,237.814 224.854 C 238.040 225.068,239.041 225.251,241.425 225.515 C 242.089 225.588,242.736 225.747,242.862 225.868 C 242.989 225.988,243.661 226.087,244.358 226.087 C 245.054 226.087,245.691 226.196,245.773 226.329 C 245.855 226.461,246.725 226.570,247.705 226.570 C 248.686 226.570,249.556 226.679,249.638 226.812 C 249.720 226.944,250.698 227.053,251.812 227.053 C 252.925 227.053,253.903 227.162,253.986 227.295 C 254.075 227.440,255.755 227.536,258.213 227.536 C 260.671 227.536,262.350 227.632,262.440 227.778 C 262.638 228.099,277.110 228.107,277.431 227.786 C 277.560 227.657,280.238 227.500,283.458 227.433 C 291.124 227.273,294.756 227.073,295.036 226.797 C 295.162 226.672,296.053 226.570,297.015 226.570 C 297.977 226.570,298.831 226.461,298.913 226.329 C 298.995 226.196,299.865 226.087,300.845 226.087 C 301.826 226.087,302.696 225.978,302.778 225.845 C 302.860 225.713,303.512 225.604,304.227 225.604 C 304.942 225.604,305.594 225.495,305.676 225.362 C 305.758 225.229,306.302 225.121,306.884 225.121 C 307.466 225.121,308.010 225.012,308.092 224.879 C 308.174 224.746,308.609 224.638,309.058 224.638 C 309.507 224.638,309.942 224.529,310.024 224.396 C 310.106 224.263,310.541 224.155,310.990 224.155 C 311.440 224.155,311.874 224.046,311.957 223.913 C 312.039 223.780,312.473 223.671,312.923 223.671 C 313.372 223.671,313.807 223.563,313.889 223.430 C 313.971 223.297,314.297 223.188,314.614 223.188 C 314.930 223.188,315.256 223.080,315.338 222.947 C 315.420 222.814,315.746 222.705,316.063 222.705 C 316.379 222.705,316.705 222.597,316.787 222.464 C 316.870 222.331,317.196 222.222,317.512 222.222 C 317.829 222.222,318.155 222.114,318.237 221.981 C 318.319 221.848,318.651 221.739,318.976 221.739 C 319.300 221.739,319.565 221.630,319.565 221.498 C 319.565 221.365,319.783 221.256,320.048 221.256 C 320.314 221.256,320.531 221.147,320.531 221.014 C 320.531 220.882,320.797 220.773,321.121 220.773 C 321.445 220.773,321.778 220.664,321.860 220.531 C 321.942 220.399,322.211 220.290,322.458 220.290 C 322.705 220.290,322.943 220.205,322.987 220.100 C 323.031 219.996,323.909 219.498,324.938 218.993 C 325.966 218.489,326.870 217.976,326.945 217.854 C 327.021 217.732,327.538 217.416,328.094 217.152 C 328.651 216.888,329.541 216.348,330.072 215.951 C 330.604 215.554,331.421 214.970,331.888 214.652 C 332.355 214.335,332.884 213.898,333.065 213.680 C 333.245 213.463,333.506 213.285,333.645 213.285 C 334.122 213.285,342.512 205.402,342.512 204.953 C 342.512 204.794,342.729 204.468,342.995 204.227 C 344.190 203.146,343.128 201.706,341.637 202.385 C 341.309 202.535,340.578 202.657,340.013 202.657 C 339.448 202.657,338.882 202.758,338.756 202.881 C 338.230 203.394,319.431 203.873,318.478 203.397 C 318.213 203.264,317.126 203.102,316.063 203.036 C 312.904 202.841,311.261 202.649,310.749 202.415 C 310.483 202.294,309.668 202.144,308.937 202.081 C 308.207 202.018,307.065 201.854,306.401 201.716 C 304.446 201.309,302.836 200.994,301.932 200.841 C 300.322 200.569,299.981 200.468,300.085 200.295 C 300.142 200.199,299.473 200.094,298.597 200.061 C 297.722 200.028,296.896 199.892,296.764 199.759 C 296.631 199.626,296.169 199.517,295.739 199.517 C 295.308 199.517,294.889 199.408,294.807 199.275 C 294.725 199.143,294.399 199.034,294.082 199.034 C 293.766 199.034,293.440 198.925,293.357 198.792 C 293.275 198.659,292.841 198.551,292.391 198.551 C 291.942 198.551,291.507 198.442,291.425 198.309 C 291.343 198.176,291.017 198.068,290.700 198.068 C 290.384 198.068,290.058 197.959,289.976 197.826 C 289.894 197.693,289.453 197.585,288.995 197.585 C 288.538 197.585,288.164 197.476,288.164 197.343 C 288.164 197.210,287.827 197.101,287.414 197.101 C 286.894 197.101,286.701 197.004,286.785 196.785 C 286.872 196.557,286.717 196.496,286.235 196.566 C 285.866 196.620,285.491 196.546,285.401 196.400 C 285.311 196.254,284.978 196.135,284.662 196.135 C 284.345 196.135,284.019 196.027,283.937 195.894 C 283.855 195.761,283.529 195.652,283.213 195.652 C 282.896 195.652,282.570 195.543,282.488 195.411 C 282.406 195.278,282.080 195.169,281.763 195.169 C 281.447 195.169,281.121 195.060,281.039 194.928 C 280.957 194.795,280.682 194.686,280.428 194.686 C 280.174 194.686,279.579 194.469,279.106 194.203 C 278.633 193.937,278.039 193.720,277.785 193.720 C 277.531 193.720,277.256 193.611,277.174 193.478 C 277.092 193.345,276.817 193.237,276.563 193.237 C 276.309 193.237,275.715 193.019,275.242 192.754 C 274.768 192.488,274.225 192.271,274.034 192.271 C 273.843 192.271,273.299 192.053,272.826 191.787 C 272.353 191.522,271.810 191.304,271.618 191.304 C 271.427 191.304,270.884 191.087,270.411 190.821 C 269.938 190.556,269.402 190.338,269.220 190.338 C 269.038 190.338,268.270 190.012,267.512 189.614 C 266.754 189.215,266.041 188.889,265.926 188.889 C 265.811 188.889,264.601 188.345,263.237 187.681 C 261.874 187.017,260.678 186.473,260.580 186.473 C 260.289 186.473,251.657 182.168,251.234 181.812 C 251.020 181.632,250.004 181.076,248.975 180.577 C 247.947 180.078,247.048 179.577,246.978 179.464 C 246.813 179.198,245.422 178.502,245.054 178.502 C 244.898 178.502,243.483 177.850,241.908 177.053 C 240.334 176.256,238.923 175.604,238.774 175.604 C 238.363 175.604,237.202 175.025,237.200 174.819 C 237.199 174.719,236.981 174.638,236.715 174.638 C 236.449 174.638,236.232 174.529,236.232 174.396 C 236.232 174.263,236.072 174.155,235.876 174.155 C 235.680 174.155,235.055 173.883,234.487 173.551 C 233.919 173.219,232.720 172.603,231.824 172.183 C 230.927 171.763,230.193 171.334,230.193 171.230 C 230.193 171.125,229.188 170.536,227.959 169.920 C 224.910 168.391,223.184 167.455,222.727 167.084 C 222.516 166.912,221.854 166.512,221.256 166.194 C 220.658 165.876,220.115 165.548,220.048 165.464 C 219.982 165.381,219.535 165.130,219.055 164.907 C 218.575 164.684,218.046 164.337,217.878 164.135 C 217.711 163.933,217.441 163.768,217.278 163.768 C 217.116 163.768,216.786 163.551,216.546 163.285 C 216.305 163.019,215.976 162.802,215.813 162.802 C 215.651 162.802,215.378 162.634,215.207 162.428 C 215.037 162.222,214.443 161.847,213.889 161.594 C 213.335 161.342,212.741 160.967,212.570 160.761 C 212.399 160.555,212.127 160.386,211.964 160.386 C 211.802 160.386,211.472 160.169,211.232 159.903 C 210.991 159.638,210.665 159.420,210.507 159.420 C 210.349 159.420,210.023 159.203,209.783 158.937 C 209.542 158.671,209.220 158.454,209.066 158.454 C 208.912 158.454,208.474 158.128,208.092 157.729 C 207.710 157.331,207.272 157.005,207.118 157.005 C 206.964 157.005,206.641 156.787,206.401 156.522 C 206.161 156.256,205.834 156.039,205.676 156.039 C 205.518 156.039,205.192 155.821,204.952 155.556 C 204.711 155.290,204.385 155.072,204.227 155.072 C 204.069 155.072,203.743 154.855,203.502 154.589 C 203.262 154.324,202.939 154.106,202.786 154.106 C 202.632 154.106,202.193 153.780,201.812 153.382 C 201.430 152.983,200.991 152.657,200.838 152.657 C 200.684 152.657,200.361 152.440,200.121 152.174 C 199.880 151.908,199.579 151.691,199.451 151.691 C 199.323 151.691,198.856 151.392,198.414 151.027 C 197.972 150.661,197.164 150.036,196.618 149.638 C 196.073 149.239,195.265 148.614,194.823 148.249 C 194.380 147.883,193.917 147.585,193.793 147.585 C 193.670 147.585,193.256 147.258,192.874 146.860 C 192.493 146.461,192.054 146.135,191.900 146.135 C 191.747 146.135,191.424 145.918,191.184 145.652 C 190.943 145.386,190.627 145.169,190.481 145.169 C 190.335 145.169,189.908 144.843,189.532 144.444 C 189.156 144.046,188.706 143.720,188.533 143.720 C 188.360 143.720,187.962 143.395,187.648 142.997 C 187.334 142.600,186.931 142.274,186.751 142.273 C 186.572 142.272,186.121 141.944,185.749 141.546 C 185.376 141.147,184.925 140.820,184.746 140.819 C 184.567 140.818,184.163 140.492,183.850 140.094 C 183.536 139.697,183.148 139.372,182.989 139.372 C 182.830 139.372,182.387 139.046,182.005 138.647 C 181.623 138.249,181.210 137.923,181.086 137.923 C 180.963 137.923,180.170 137.379,179.325 136.715 C 178.480 136.051,177.694 135.507,177.579 135.507 C 177.464 135.507,177.054 135.231,176.668 134.894 C 175.990 134.301,173.642 132.663,170.319 130.463 C 169.439 129.881,168.665 129.337,168.599 129.255 C 168.533 129.173,168.179 128.951,167.814 128.763 C 167.449 128.575,167.150 128.330,167.150 128.220 C 167.150 128.110,167.007 128.019,166.833 128.019 C 166.659 128.019,166.306 127.826,166.048 127.589 C 165.790 127.352,165.187 126.973,164.707 126.748 C 164.227 126.522,163.698 126.172,163.530 125.971 C 163.363 125.769,163.089 125.604,162.923 125.604 C 162.756 125.604,162.480 125.435,162.309 125.230 C 162.138 125.024,161.534 124.644,160.965 124.385 C 160.397 124.126,159.868 123.809,159.788 123.680 C 159.708 123.551,158.945 123.113,158.092 122.705 C 157.239 122.298,156.478 121.863,156.401 121.739 C 156.324 121.615,155.563 121.180,154.710 120.773 C 153.857 120.366,153.102 119.941,153.033 119.829 C 152.860 119.549,146.611 116.384,144.686 115.602 C 143.333 115.052,142.584 114.712,140.040 113.487 C 139.809 113.376,139.401 113.285,139.134 113.285 C 138.866 113.285,138.647 113.203,138.647 113.102 C 138.647 113.002,138.294 112.776,137.862 112.599 C 136.202 111.921,135.856 111.773,135.450 111.566 C 135.219 111.449,134.866 111.353,134.665 111.353 C 134.464 111.353,134.300 111.244,134.300 111.111 C 134.300 110.978,133.973 110.870,133.575 110.870 C 133.176 110.870,132.850 110.761,132.850 110.628 C 132.850 110.495,132.585 110.386,132.261 110.386 C 131.936 110.386,131.604 110.278,131.522 110.145 C 131.440 110.012,131.165 109.903,130.911 109.903 C 130.657 109.903,130.062 109.686,129.589 109.420 C 129.116 109.155,128.522 108.937,128.268 108.937 C 128.014 108.937,127.739 108.829,127.657 108.696 C 127.575 108.563,127.249 108.454,126.932 108.454 C 126.616 108.454,126.290 108.345,126.208 108.213 C 126.126 108.080,125.800 107.971,125.483 107.971 C 125.167 107.971,124.841 107.862,124.758 107.729 C 124.676 107.597,124.350 107.488,124.034 107.488 C 123.717 107.488,123.391 107.379,123.309 107.246 C 123.227 107.114,122.901 107.005,122.585 107.005 C 122.268 107.005,121.942 106.896,121.860 106.763 C 121.778 106.630,121.337 106.522,120.879 106.522 C 120.422 106.522,120.048 106.413,120.048 106.280 C 120.048 106.147,119.729 106.039,119.338 106.039 C 118.947 106.039,118.560 105.930,118.478 105.797 C 118.396 105.664,117.907 105.556,117.391 105.556 C 116.876 105.556,116.386 105.447,116.304 105.314 C 116.222 105.181,115.570 105.072,114.855 105.072 C 114.140 105.072,113.488 104.964,113.406 104.831 C 113.324 104.698,112.672 104.589,111.957 104.589 C 111.242 104.589,110.589 104.481,110.507 104.348 C 110.425 104.215,109.556 104.106,108.575 104.106 C 107.594 104.106,106.725 103.998,106.643 103.865 C 106.556 103.725,105.231 103.623,103.488 103.623 C 101.646 103.623,100.483 103.530,100.483 103.382 C 100.483 103.227,98.153 103.140,93.976 103.140 C 89.898 103.140,87.412 103.230,87.319 103.382 M28.317 143.827 C 27.750 144.130,27.089 144.556,26.849 144.773 C 26.608 144.991,26.301 145.169,26.166 145.169 C 26.031 145.169,25.724 145.386,25.483 145.652 C 25.243 145.918,24.925 146.135,24.777 146.135 C 24.432 146.135,19.324 151.251,19.324 151.597 C 19.324 151.740,19.106 152.054,18.841 152.295 C 18.575 152.535,18.357 152.865,18.357 153.027 C 18.357 153.190,18.199 153.454,18.006 153.614 C 17.497 154.037,16.061 157.092,15.448 159.058 C 15.158 159.988,14.824 160.938,14.706 161.168 C 14.589 161.399,14.493 162.002,14.493 162.509 C 14.493 163.015,14.380 163.542,14.243 163.680 C 13.723 164.200,14.199 178.024,14.758 178.611 C 14.878 178.737,14.976 179.193,14.976 179.623 C 14.976 180.054,15.085 180.473,15.217 180.556 C 15.350 180.638,15.459 180.964,15.459 181.280 C 15.459 181.597,15.568 181.923,15.700 182.005 C 15.833 182.087,15.942 182.413,15.942 182.729 C 15.942 183.046,16.051 183.372,16.184 183.454 C 16.316 183.536,16.425 183.811,16.425 184.065 C 16.425 184.319,16.643 184.913,16.908 185.386 C 17.174 185.860,17.391 186.378,17.391 186.539 C 17.391 186.988,19.547 191.230,19.941 191.557 C 20.133 191.716,20.290 191.996,20.290 192.179 C 20.290 192.362,20.399 192.512,20.531 192.512 C 20.664 192.512,20.773 192.690,20.773 192.906 C 20.773 193.123,20.964 193.477,21.197 193.691 C 21.431 193.906,21.775 194.381,21.963 194.746 C 22.150 195.112,22.394 195.411,22.505 195.411 C 22.615 195.411,22.705 195.552,22.705 195.726 C 22.705 195.899,23.097 196.415,23.575 196.873 C 24.053 197.331,24.515 197.887,24.601 198.109 C 24.804 198.629,32.543 206.522,32.851 206.522 C 32.979 206.522,33.384 206.785,33.752 207.107 C 35.864 208.956,36.405 209.373,36.896 209.525 C 37.195 209.618,37.440 209.783,37.440 209.890 C 37.440 209.998,37.758 210.218,38.147 210.379 C 38.536 210.540,38.913 210.825,38.985 211.012 C 39.057 211.200,39.255 211.355,39.425 211.358 C 39.595 211.361,40.006 211.576,40.338 211.836 C 40.670 212.096,41.116 212.311,41.328 212.313 C 41.540 212.316,41.964 212.536,42.271 212.802 C 42.577 213.068,42.980 213.285,43.166 213.285 C 43.353 213.285,44.179 213.620,45.001 214.029 C 47.038 215.043,50.608 216.425,51.188 216.425 C 51.449 216.425,51.729 216.534,51.812 216.667 C 51.894 216.800,52.220 216.908,52.536 216.908 C 52.853 216.908,53.179 217.017,53.261 217.150 C 53.343 217.283,53.669 217.391,53.986 217.391 C 54.302 217.391,54.628 217.500,54.710 217.633 C 54.792 217.766,55.227 217.874,55.676 217.874 C 56.126 217.874,56.560 217.983,56.643 218.116 C 56.725 218.249,57.051 218.357,57.367 218.357 C 57.684 218.357,58.010 218.466,58.092 218.599 C 58.174 218.732,58.717 218.841,59.300 218.841 C 59.882 218.841,60.425 218.949,60.507 219.082 C 60.589 219.215,61.031 219.324,61.488 219.324 C 61.945 219.324,62.319 219.432,62.319 219.565 C 62.319 219.698,62.856 219.807,63.512 219.807 C 64.169 219.807,64.773 219.915,64.855 220.048 C 64.937 220.181,65.589 220.290,66.304 220.290 C 67.019 220.290,67.672 220.399,67.754 220.531 C 67.836 220.664,68.760 220.773,69.807 220.773 C 70.854 220.773,71.778 220.882,71.860 221.014 C 71.948 221.157,73.428 221.256,75.483 221.256 C 77.538 221.256,79.018 221.355,79.106 221.498 C 79.193 221.638,80.518 221.739,82.261 221.739 C 84.103 221.739,85.266 221.646,85.266 221.498 C 85.266 221.347,86.670 221.256,88.995 221.256 C 91.221 221.256,92.785 221.159,92.874 221.014 C 92.957 220.882,93.935 220.773,95.048 220.773 C 96.162 220.773,97.140 220.664,97.222 220.531 C 97.304 220.399,97.957 220.290,98.671 220.290 C 99.386 220.290,100.039 220.181,100.121 220.048 C 100.203 219.915,100.861 219.807,101.584 219.807 C 102.307 219.807,102.899 219.698,102.899 219.565 C 102.899 219.432,103.381 219.324,103.971 219.324 C 104.561 219.324,105.111 219.215,105.193 219.082 C 105.275 218.949,105.710 218.841,106.159 218.841 C 106.609 218.841,107.043 218.732,107.126 218.599 C 107.208 218.466,107.642 218.357,108.092 218.357 C 108.541 218.357,108.976 218.249,109.058 218.116 C 109.140 217.983,109.575 217.874,110.024 217.874 C 110.473 217.874,110.908 217.766,110.990 217.633 C 111.072 217.500,111.507 217.391,111.957 217.391 C 112.406 217.391,112.841 217.283,112.923 217.150 C 113.005 217.017,113.379 216.908,113.755 216.908 C 114.130 216.908,114.749 216.746,115.129 216.547 C 115.510 216.349,116.015 216.186,116.252 216.185 C 116.488 216.184,117.086 216.011,117.580 215.800 C 118.074 215.589,118.967 215.275,119.565 215.102 C 120.163 214.929,121.250 214.548,121.981 214.255 C 122.711 213.962,123.907 213.505,124.638 213.241 C 125.368 212.976,126.319 212.606,126.751 212.418 C 127.183 212.231,127.944 211.901,128.442 211.685 C 128.940 211.469,130.247 210.871,131.345 210.356 C 132.444 209.842,133.440 209.420,133.559 209.420 C 133.679 209.420,133.812 209.339,133.857 209.239 C 133.970 208.983,136.956 207.488,137.353 207.488 C 137.533 207.488,137.681 207.379,137.681 207.246 C 137.681 207.114,137.831 207.005,138.014 207.005 C 138.197 207.005,138.483 206.840,138.650 206.640 C 138.817 206.439,139.641 205.946,140.482 205.545 C 141.322 205.144,142.075 204.710,142.155 204.581 C 142.235 204.452,142.765 204.135,143.333 203.876 C 143.901 203.617,144.505 203.237,144.676 203.031 C 144.847 202.825,145.123 202.657,145.290 202.657 C 145.457 202.657,145.733 202.489,145.904 202.283 C 146.074 202.077,146.668 201.702,147.222 201.449 C 147.777 201.197,148.370 200.822,148.541 200.616 C 148.712 200.410,148.984 200.242,149.147 200.242 C 149.309 200.242,149.639 200.024,149.879 199.758 C 150.120 199.493,150.414 199.275,150.534 199.275 C 150.653 199.275,151.098 198.950,151.523 198.552 C 151.947 198.154,152.388 197.828,152.503 197.827 C 152.724 197.826,153.687 197.085,155.410 195.592 C 155.985 195.094,156.556 194.686,156.679 194.686 C 156.802 194.686,157.438 194.143,158.092 193.478 C 158.746 192.814,159.388 192.271,159.519 192.271 C 160.157 192.271,161.111 190.950,161.111 190.065 C 161.111 189.174,157.600 186.957,156.190 186.957 C 155.990 186.957,155.758 186.848,155.676 186.715 C 155.594 186.582,155.159 186.473,154.710 186.473 C 154.261 186.473,153.826 186.365,153.744 186.232 C 153.662 186.099,153.050 185.990,152.385 185.990 C 151.720 185.990,150.953 185.871,150.680 185.725 C 150.280 185.511,150.050 185.558,149.498 185.966 C 149.120 186.245,148.719 186.473,148.606 186.473 C 148.492 186.473,148.087 186.800,147.705 187.198 C 147.323 187.597,146.885 187.923,146.731 187.923 C 146.578 187.923,146.255 188.140,146.014 188.406 C 145.774 188.671,145.448 188.889,145.290 188.889 C 145.132 188.889,144.806 189.106,144.565 189.372 C 144.325 189.638,143.995 189.855,143.833 189.855 C 143.670 189.855,143.398 190.023,143.227 190.229 C 143.056 190.435,142.451 190.815,141.883 191.074 C 141.315 191.333,140.791 191.642,140.717 191.760 C 140.644 191.879,138.871 192.813,136.778 193.836 C 134.684 194.859,132.782 195.795,132.552 195.915 C 132.321 196.036,131.968 196.135,131.767 196.135 C 131.565 196.135,131.401 196.244,131.401 196.377 C 131.401 196.510,131.136 196.618,130.811 196.618 C 130.487 196.618,130.155 196.727,130.072 196.860 C 129.990 196.993,129.712 197.101,129.454 197.101 C 129.196 197.101,128.986 197.210,128.986 197.343 C 128.986 197.476,128.720 197.585,128.396 197.585 C 128.072 197.585,127.739 197.693,127.657 197.826 C 127.575 197.959,127.249 198.068,126.932 198.068 C 126.616 198.068,126.290 198.176,126.208 198.309 C 126.126 198.442,125.691 198.551,125.242 198.551 C 124.792 198.551,124.357 198.659,124.275 198.792 C 124.193 198.925,123.867 199.034,123.551 199.034 C 123.234 199.034,122.908 199.143,122.826 199.275 C 122.744 199.408,122.216 199.517,121.652 199.517 C 121.089 199.517,120.525 199.614,120.399 199.733 C 120.272 199.851,119.191 200.076,117.995 200.232 C 116.800 200.389,115.223 200.624,114.493 200.754 C 105.549 202.357,88.543 202.353,79.227 200.746 C 78.496 200.620,76.920 200.389,75.725 200.232 C 74.529 200.076,73.447 199.851,73.321 199.733 C 73.195 199.614,72.740 199.517,72.309 199.517 C 71.878 199.517,71.459 199.408,71.377 199.275 C 71.295 199.143,70.914 199.034,70.531 199.034 C 70.149 199.034,69.768 198.925,69.686 198.792 C 69.604 198.659,69.217 198.551,68.826 198.551 C 68.436 198.551,68.116 198.442,68.116 198.309 C 68.116 198.176,67.790 198.068,67.391 198.068 C 66.993 198.068,66.667 197.959,66.667 197.826 C 66.667 197.693,66.401 197.585,66.077 197.585 C 65.753 197.585,65.420 197.476,65.338 197.343 C 65.256 197.210,64.981 197.101,64.727 197.101 C 64.474 197.101,63.879 196.884,63.406 196.618 C 62.933 196.353,62.409 196.135,62.242 196.135 C 61.871 196.135,56.892 193.657,56.326 193.190 C 56.101 193.005,55.592 192.695,55.193 192.502 C 54.795 192.308,54.258 191.960,54.000 191.727 C 53.743 191.495,53.406 191.304,53.253 191.304 C 53.099 191.304,52.777 191.087,52.536 190.821 C 52.296 190.556,51.997 190.338,51.873 190.338 C 51.575 190.338,50.469 189.486,49.206 188.282 C 48.646 187.749,47.808 187.044,47.343 186.717 C 46.134 185.866,42.995 182.821,42.995 182.499 C 42.995 182.350,42.452 181.693,41.787 181.039 C 41.123 180.384,40.580 179.728,40.580 179.580 C 40.580 179.432,40.308 179.056,39.976 178.744 C 39.644 178.432,39.372 178.049,39.372 177.894 C 39.372 177.738,39.155 177.414,38.889 177.174 C 38.623 176.933,38.406 176.650,38.406 176.543 C 38.406 176.328,37.386 174.718,36.893 174.155 C 36.718 173.955,36.314 173.249,35.994 172.585 C 35.674 171.920,35.258 171.192,35.070 170.966 C 34.607 170.408,33.575 168.346,33.575 167.979 C 33.575 167.815,33.249 167.062,32.850 166.304 C 32.452 165.547,32.126 164.727,32.126 164.482 C 32.126 164.238,32.017 163.971,31.884 163.889 C 31.751 163.807,31.643 163.481,31.643 163.164 C 31.643 162.848,31.534 162.522,31.401 162.440 C 31.268 162.358,31.159 162.031,31.159 161.715 C 31.159 161.399,31.051 161.072,30.918 160.990 C 30.785 160.908,30.676 160.473,30.676 160.024 C 30.676 159.575,30.568 159.140,30.435 159.058 C 30.302 158.976,30.193 158.541,30.193 158.092 C 30.193 157.642,30.085 157.208,29.952 157.126 C 29.819 157.043,29.710 156.446,29.710 155.797 C 29.710 155.149,29.601 154.551,29.469 154.469 C 29.330 154.383,29.227 153.142,29.227 151.570 C 29.227 149.998,29.330 148.757,29.469 148.671 C 29.601 148.589,29.710 148.214,29.710 147.836 C 29.710 147.459,30.041 146.521,30.446 145.752 C 31.689 143.389,30.741 142.531,28.317 143.827 M229.348 161.353 C 229.867 161.884,230.346 162.319,230.412 162.319 C 230.478 162.319,230.108 161.884,229.589 161.353 C 229.070 160.821,228.592 160.386,228.525 160.386 C 228.459 160.386,228.829 160.821,229.348 161.353 " stroke="none" fill="#5c94cc" fill-rule="evenodd"></path>
    <path id="path1" d="M33.459 13.760 C 33.374 13.897,32.829 14.010,32.246 14.010 C 31.664 14.010,31.121 14.118,31.039 14.251 C 30.957 14.384,30.522 14.493,30.072 14.493 C 29.623 14.493,29.188 14.601,29.106 14.734 C 29.024 14.867,28.749 14.976,28.496 14.976 C 28.242 14.976,27.647 15.193,27.174 15.459 C 26.701 15.725,26.171 15.942,25.996 15.942 C 25.541 15.942,24.258 16.613,23.909 17.034 C 23.746 17.231,23.483 17.391,23.325 17.391 C 23.167 17.391,22.725 17.717,22.343 18.116 C 21.961 18.514,21.530 18.841,21.386 18.841 C 21.046 18.841,17.874 22.031,17.874 22.372 C 17.874 22.514,17.657 22.827,17.391 23.068 C 17.126 23.308,16.908 23.638,16.908 23.800 C 16.908 23.963,16.747 24.229,16.551 24.392 C 16.086 24.778,15.459 26.042,15.459 26.593 C 15.459 26.830,15.350 27.092,15.217 27.174 C 15.085 27.256,14.976 27.582,14.976 27.899 C 14.976 28.215,14.867 28.541,14.734 28.623 C 14.601 28.705,14.493 29.031,14.493 29.348 C 14.493 29.664,14.384 29.990,14.251 30.072 C 14.118 30.155,14.010 30.807,14.010 31.522 C 14.010 32.237,13.901 32.889,13.768 32.971 C 13.447 33.169,13.447 39.294,13.768 39.493 C 13.901 39.575,14.010 40.227,14.010 40.942 C 14.010 41.657,14.118 42.309,14.251 42.391 C 14.384 42.473,14.493 42.908,14.493 43.357 C 14.493 43.807,14.601 44.242,14.734 44.324 C 14.867 44.406,14.976 44.656,14.976 44.879 C 14.976 45.414,16.589 48.669,17.040 49.043 C 17.233 49.203,17.391 49.459,17.391 49.611 C 17.391 49.967,22.022 54.589,22.378 54.589 C 22.526 54.589,22.777 54.747,22.937 54.940 C 23.298 55.375,27.576 57.488,28.095 57.488 C 28.303 57.488,28.541 57.597,28.623 57.729 C 28.705 57.862,29.140 57.971,29.589 57.971 C 30.039 57.971,30.466 58.068,30.540 58.187 C 30.889 58.753,44.970 59.232,46.014 58.714 C 46.280 58.582,47.150 58.421,47.947 58.356 C 50.188 58.172,51.548 57.942,51.800 57.705 C 51.926 57.585,52.361 57.480,52.766 57.470 C 54.412 57.431,54.944 56.805,55.024 54.812 C 55.064 53.827,55.199 52.917,55.326 52.790 C 55.669 52.447,55.617 47.984,55.266 47.633 C 54.965 47.332,52.743 47.233,52.073 47.490 C 51.846 47.577,51.691 47.921,51.691 48.335 C 51.691 48.719,51.582 49.034,51.449 49.034 C 51.316 49.034,51.208 49.251,51.208 49.517 C 51.208 49.783,51.099 50.000,50.966 50.000 C 50.833 50.000,50.725 50.217,50.725 50.483 C 50.725 50.749,50.616 50.966,50.483 50.966 C 50.350 50.966,50.242 51.114,50.242 51.294 C 50.242 52.238,46.610 55.072,45.402 55.072 C 45.157 55.072,44.889 55.181,44.807 55.314 C 44.725 55.447,44.072 55.556,43.357 55.556 C 42.642 55.556,41.990 55.664,41.908 55.797 C 41.826 55.930,40.841 56.039,39.720 56.039 C 38.522 56.039,37.681 55.939,37.681 55.797 C 37.681 55.664,37.198 55.556,36.608 55.556 C 36.018 55.556,35.469 55.447,35.386 55.314 C 35.304 55.181,34.978 55.072,34.662 55.072 C 34.345 55.072,34.019 54.964,33.937 54.831 C 33.855 54.698,33.536 54.589,33.228 54.589 C 32.920 54.589,32.531 54.424,32.363 54.223 C 32.196 54.021,31.666 53.678,31.187 53.461 C 30.237 53.032,26.329 49.344,26.329 48.878 C 26.329 48.720,26.233 48.555,26.117 48.510 C 25.525 48.285,23.578 43.573,23.140 41.304 C 22.771 39.394,22.619 33.082,22.934 32.766 C 23.074 32.627,23.188 32.206,23.188 31.831 C 23.188 30.116,25.374 24.236,26.117 23.953 C 26.233 23.909,26.329 23.714,26.329 23.519 C 26.329 23.118,29.685 19.824,30.103 19.813 C 30.253 19.810,30.507 19.649,30.667 19.455 C 31.041 19.005,34.296 17.391,34.831 17.391 C 35.054 17.391,35.304 17.283,35.386 17.150 C 35.475 17.006,36.995 16.908,39.130 16.908 C 41.266 16.908,42.786 17.006,42.874 17.150 C 42.957 17.283,43.391 17.391,43.841 17.391 C 44.290 17.391,44.725 17.500,44.807 17.633 C 44.889 17.766,45.150 17.874,45.388 17.874 C 45.939 17.874,47.203 18.502,47.589 18.966 C 47.752 19.163,48.002 19.324,48.144 19.324 C 48.569 19.324,49.758 20.588,49.758 21.040 C 49.758 21.269,49.840 21.494,49.940 21.538 C 50.238 21.670,51.208 23.682,51.208 24.169 C 51.208 24.813,51.940 25.121,53.469 25.121 C 55.003 25.121,55.706 24.650,55.417 23.817 C 55.321 23.538,55.195 22.548,55.138 21.618 C 55.081 20.688,54.935 19.824,54.812 19.698 C 54.690 19.572,54.589 18.694,54.589 17.747 C 54.589 15.778,54.173 15.159,52.657 14.875 C 52.192 14.787,51.268 14.604,50.604 14.468 C 47.025 13.732,33.814 13.186,33.459 13.760 M90.580 14.728 C 90.380 14.860,89.653 14.970,88.964 14.972 C 88.274 14.974,87.642 15.085,87.560 15.217 C 87.478 15.350,87.059 15.459,86.628 15.459 C 86.198 15.459,85.742 15.545,85.616 15.651 C 85.490 15.757,84.952 15.983,84.420 16.154 C 83.020 16.605,80.042 18.078,79.701 18.489 C 79.541 18.682,79.283 18.841,79.130 18.841 C 78.976 18.841,78.204 19.493,77.415 20.290 C 76.627 21.087,75.839 21.739,75.666 21.739 C 75.492 21.739,75.255 21.984,75.139 22.283 C 75.023 22.582,74.582 23.152,74.159 23.551 C 73.737 23.949,73.188 24.720,72.939 25.262 C 72.691 25.805,72.319 26.389,72.113 26.560 C 71.908 26.731,71.739 27.072,71.739 27.317 C 71.739 27.562,71.522 28.150,71.256 28.623 C 70.990 29.096,70.773 29.806,70.773 30.201 C 70.773 30.595,70.664 30.918,70.531 30.918 C 70.399 30.918,70.290 31.292,70.290 31.749 C 70.290 32.206,70.181 32.647,70.048 32.729 C 69.901 32.820,69.807 34.619,69.807 37.319 C 69.807 40.018,69.901 41.817,70.048 41.908 C 70.181 41.990,70.290 42.425,70.290 42.874 C 70.290 43.324,70.399 43.758,70.531 43.841 C 70.664 43.923,70.773 44.282,70.773 44.638 C 70.773 45.350,72.766 49.549,73.323 50.011 C 73.515 50.171,73.671 50.425,73.671 50.578 C 73.671 50.928,78.300 55.556,78.650 55.556 C 78.794 55.556,79.107 55.773,79.348 56.039 C 79.588 56.304,79.918 56.522,80.080 56.522 C 80.243 56.522,80.509 56.683,80.672 56.879 C 81.047 57.331,82.317 57.971,82.839 57.971 C 83.058 57.971,83.340 58.069,83.466 58.189 C 85.037 59.680,93.589 60.640,99.155 59.949 C 101.921 59.605,105.069 58.754,105.664 58.189 C 105.790 58.069,106.073 57.971,106.291 57.971 C 106.813 57.971,108.083 57.331,108.458 56.879 C 108.621 56.683,108.888 56.522,109.050 56.522 C 109.213 56.522,109.542 56.304,109.783 56.039 C 110.023 55.773,110.341 55.556,110.489 55.556 C 110.839 55.556,115.459 50.920,115.459 50.569 C 115.459 50.421,115.617 50.169,115.811 50.009 C 116.261 49.635,117.874 46.380,117.874 45.845 C 117.874 45.622,117.983 45.372,118.116 45.290 C 118.249 45.208,118.357 44.882,118.357 44.565 C 118.357 44.249,118.466 43.923,118.599 43.841 C 118.732 43.758,118.841 43.215,118.841 42.633 C 118.841 42.051,118.949 41.507,119.082 41.425 C 119.227 41.335,119.324 39.692,119.324 37.305 C 119.324 34.818,119.233 33.333,119.082 33.333 C 118.949 33.333,118.841 32.851,118.841 32.261 C 118.841 31.671,118.732 31.121,118.599 31.039 C 118.466 30.957,118.357 30.706,118.357 30.483 C 118.357 29.952,115.772 24.756,115.322 24.383 C 115.132 24.225,114.976 23.971,114.976 23.819 C 114.976 23.463,110.345 18.841,109.989 18.841 C 109.842 18.841,109.591 18.684,109.432 18.492 C 109.058 18.042,104.832 15.942,104.300 15.942 C 104.076 15.942,103.833 15.845,103.760 15.727 C 103.687 15.609,103.219 15.442,102.720 15.357 C 102.220 15.271,101.159 15.084,100.362 14.941 C 98.371 14.584,91.038 14.425,90.580 14.728 M256.763 14.729 C 256.564 14.861,255.837 14.970,255.147 14.972 C 254.457 14.974,253.826 15.085,253.744 15.217 C 253.662 15.350,253.242 15.459,252.812 15.459 C 252.381 15.459,251.926 15.545,251.800 15.651 C 251.673 15.757,251.135 15.983,250.604 16.154 C 249.204 16.605,246.226 18.078,245.885 18.489 C 245.724 18.682,245.464 18.841,245.305 18.841 C 245.147 18.841,244.706 19.167,244.324 19.565 C 243.942 19.964,243.509 20.290,243.361 20.290 C 243.028 20.290,241.304 22.032,241.304 22.368 C 241.304 22.504,240.978 22.927,240.580 23.309 C 240.181 23.691,239.855 24.133,239.855 24.291 C 239.855 24.449,239.697 24.710,239.503 24.870 C 239.053 25.244,237.440 28.499,237.440 29.034 C 237.440 29.257,237.331 29.507,237.198 29.589 C 237.065 29.671,236.957 30.113,236.957 30.570 C 236.957 31.027,236.848 31.401,236.715 31.401 C 236.579 31.401,236.473 32.081,236.473 32.957 C 236.473 33.812,236.365 34.580,236.232 34.662 C 236.095 34.747,235.990 35.953,235.990 37.454 C 235.990 39.055,236.086 40.097,236.232 40.097 C 236.368 40.097,236.473 40.776,236.473 41.652 C 236.473 42.508,236.582 43.275,236.715 43.357 C 236.848 43.440,236.957 43.874,236.957 44.324 C 236.957 44.773,237.065 45.208,237.198 45.290 C 237.331 45.372,237.440 45.622,237.440 45.845 C 237.440 46.380,239.053 49.635,239.503 50.009 C 239.697 50.169,239.855 50.425,239.855 50.577 C 239.855 51.049,244.998 55.943,245.944 56.371 C 246.436 56.594,246.901 56.875,246.975 56.996 C 247.147 57.275,248.531 57.971,248.913 57.971 C 249.071 57.971,249.565 58.152,250.010 58.374 C 250.454 58.596,251.232 58.868,251.737 58.978 C 252.243 59.088,253.119 59.297,253.684 59.443 C 258.254 60.617,265.839 60.432,273.309 58.963 C 277.215 58.195,277.295 58.138,277.295 56.070 C 277.295 55.271,277.403 54.551,277.536 54.469 C 277.669 54.386,277.778 53.517,277.778 52.536 C 277.778 51.556,277.886 50.686,278.019 50.604 C 278.446 50.340,278.277 49.226,277.741 48.760 C 276.749 47.900,274.155 48.193,274.155 49.166 C 274.155 49.476,274.046 49.797,273.913 49.879 C 273.780 49.961,273.671 50.223,273.671 50.460 C 273.671 52.502,268.675 56.522,266.137 56.522 C 265.631 56.522,265.217 56.630,265.217 56.763 C 265.217 56.910,264.135 57.005,262.454 57.005 C 260.872 57.005,259.627 56.902,259.541 56.763 C 259.459 56.630,258.915 56.522,258.333 56.522 C 257.751 56.522,257.208 56.413,257.126 56.280 C 257.043 56.147,256.711 56.039,256.387 56.039 C 256.062 56.039,255.797 55.930,255.797 55.797 C 255.797 55.664,255.633 55.556,255.432 55.556 C 254.965 55.556,254.104 55.073,253.597 54.529 C 253.381 54.296,253.106 54.106,252.986 54.106 C 252.654 54.106,248.309 49.671,248.309 49.331 C 248.309 49.168,248.200 49.034,248.068 49.034 C 247.935 49.034,247.826 48.816,247.826 48.551 C 247.826 48.285,247.717 48.068,247.585 48.068 C 247.452 48.068,247.343 47.850,247.343 47.585 C 247.343 47.319,247.261 47.101,247.162 47.100 C 246.920 47.097,246.377 45.905,246.377 45.377 C 246.377 45.145,246.268 44.889,246.135 44.807 C 246.002 44.725,245.894 44.399,245.894 44.082 C 245.894 43.766,245.785 43.440,245.652 43.357 C 245.519 43.275,245.411 42.623,245.411 41.908 C 245.411 41.193,245.302 40.541,245.169 40.459 C 245.028 40.372,244.928 39.012,244.928 37.198 C 244.928 35.384,245.028 34.024,245.169 33.937 C 245.302 33.855,245.411 33.312,245.411 32.729 C 245.411 32.147,245.519 31.604,245.652 31.522 C 245.785 31.440,245.894 31.081,245.894 30.724 C 245.894 30.017,248.368 24.849,248.929 24.383 C 249.119 24.225,249.275 23.989,249.275 23.858 C 249.275 22.891,254.756 18.841,256.065 18.841 C 256.301 18.841,256.560 18.732,256.643 18.599 C 256.725 18.466,257.159 18.357,257.609 18.357 C 258.058 18.357,258.493 18.249,258.575 18.116 C 258.661 17.976,259.982 17.874,261.715 17.874 C 263.448 17.874,264.769 17.976,264.855 18.116 C 264.937 18.249,265.318 18.357,265.700 18.357 C 266.083 18.357,266.464 18.466,266.546 18.599 C 266.628 18.732,266.885 18.841,267.117 18.841 C 267.658 18.841,269.920 19.964,270.300 20.422 C 270.460 20.615,270.721 20.773,270.881 20.773 C 271.247 20.773,272.222 21.794,272.222 22.177 C 272.222 22.335,272.331 22.464,272.464 22.464 C 272.597 22.464,272.705 22.681,272.705 22.947 C 272.705 23.213,272.787 23.431,272.886 23.432 C 273.121 23.434,273.671 24.619,273.671 25.121 C 273.671 26.033,276.713 26.572,277.488 25.797 C 277.839 25.446,277.874 24.001,277.536 23.792 C 277.403 23.710,277.295 22.841,277.295 21.860 C 277.295 20.879,277.186 20.010,277.053 19.928 C 276.920 19.845,276.812 19.095,276.812 18.260 C 276.812 16.513,276.409 15.942,275.176 15.942 C 274.763 15.942,274.357 15.833,274.275 15.700 C 274.193 15.568,273.556 15.459,272.860 15.459 C 272.164 15.459,271.491 15.358,271.365 15.234 C 270.896 14.774,257.401 14.307,256.763 14.729 M341.948 15.137 C 341.860 15.225,341.787 15.545,341.787 15.847 C 341.787 16.149,341.679 16.464,341.546 16.546 C 341.413 16.628,341.304 17.389,341.304 18.237 C 341.304 19.085,341.196 19.845,341.063 19.928 C 340.930 20.010,340.821 20.879,340.821 21.860 C 340.821 22.841,340.713 23.710,340.580 23.792 C 340.163 24.050,340.307 25.501,340.793 25.941 C 341.578 26.651,344.298 26.397,344.405 25.604 C 344.449 25.272,344.585 24.897,344.706 24.771 C 344.828 24.644,344.928 24.291,344.928 23.986 C 344.928 23.680,345.036 23.430,345.169 23.430 C 345.302 23.430,345.411 23.213,345.411 22.947 C 345.411 22.681,345.519 22.464,345.652 22.464 C 345.785 22.464,345.894 22.320,345.894 22.144 C 345.894 21.545,347.681 20.290,348.533 20.290 C 348.793 20.290,349.072 20.181,349.155 20.048 C 349.237 19.915,350.052 19.807,350.966 19.807 C 351.880 19.807,352.696 19.698,352.778 19.565 C 352.865 19.424,354.270 19.324,356.174 19.324 L 359.420 19.324 359.420 35.493 C 359.420 46.012,359.336 51.714,359.179 51.812 C 359.046 51.894,358.929 52.308,358.920 52.732 C 358.897 53.713,358.191 54.930,357.589 55.025 C 357.334 55.065,356.908 55.199,356.643 55.324 C 356.377 55.448,355.290 55.579,354.227 55.613 L 352.295 55.676 352.220 56.997 C 352.104 59.044,351.487 58.937,363.435 58.937 C 375.038 58.937,374.638 58.994,374.638 57.334 C 374.638 55.732,374.386 55.556,372.093 55.556 C 370.891 55.556,370.048 55.456,370.048 55.314 C 370.048 55.181,369.796 55.072,369.487 55.072 C 368.798 55.072,367.874 54.138,367.874 53.441 C 367.874 53.158,367.766 52.860,367.633 52.778 C 367.476 52.681,367.391 46.817,367.391 35.976 L 367.391 19.324 370.517 19.324 C 372.340 19.324,373.705 19.424,373.792 19.565 C 373.874 19.698,374.635 19.807,375.483 19.807 C 376.331 19.807,377.092 19.915,377.174 20.048 C 377.256 20.181,377.536 20.290,377.795 20.290 C 379.238 20.290,381.643 22.781,381.643 24.275 C 381.643 24.567,381.816 25.152,382.028 25.577 L 382.413 26.349 384.141 26.278 L 385.870 26.208 385.939 23.692 C 385.980 22.183,385.908 21.077,385.758 20.927 C 385.620 20.789,385.507 19.889,385.507 18.927 C 385.507 17.965,385.399 17.111,385.266 17.029 C 385.133 16.947,385.024 16.517,385.024 16.074 C 385.024 15.563,384.885 15.216,384.642 15.122 C 384.021 14.884,381.684 14.955,381.522 15.217 C 381.433 15.361,379.873 15.459,377.657 15.459 C 375.441 15.459,373.881 15.556,373.792 15.700 C 373.697 15.855,369.930 15.942,363.285 15.942 C 356.640 15.942,352.874 15.855,352.778 15.700 C 352.688 15.556,351.089 15.459,348.792 15.459 C 346.495 15.459,344.896 15.362,344.807 15.217 C 344.642 14.950,342.204 14.881,341.948 15.137 M134.360 16.102 C 133.281 16.537,134.306 19.324,135.546 19.324 C 136.499 19.324,138.286 20.352,139.859 21.805 L 141.304 23.141 141.304 36.677 C 141.304 45.440,141.219 50.266,141.063 50.362 C 140.930 50.444,140.821 51.141,140.821 51.910 C 140.821 54.485,139.758 55.556,137.198 55.556 C 135.576 55.556,135.024 55.992,135.024 57.274 C 135.024 58.872,135.374 58.937,143.892 58.937 C 152.529 58.937,152.242 59.005,152.128 56.997 L 152.053 55.676 150.362 55.609 C 146.213 55.442,146.377 56.052,146.377 40.799 L 146.377 28.291 149.939 31.913 C 151.898 33.904,153.580 35.745,153.675 36.004 C 153.771 36.262,154.003 36.473,154.191 36.473 C 154.379 36.473,154.590 36.691,154.659 36.957 C 154.729 37.222,154.959 37.440,155.171 37.440 C 155.382 37.440,155.556 37.556,155.556 37.699 C 155.556 37.841,158.871 41.288,162.923 45.359 C 166.975 49.429,170.290 52.880,170.290 53.027 C 170.290 53.174,171.751 54.717,173.537 56.455 C 178.708 61.489,178.261 62.202,178.261 48.919 C 178.261 42.190,178.347 38.381,178.502 38.285 C 178.656 38.190,178.744 35.115,178.744 29.854 C 178.744 19.439,178.747 19.430,182.729 19.271 L 184.420 19.203 184.494 17.776 C 184.593 15.856,185.019 15.950,176.184 15.946 C 167.439 15.942,167.391 15.951,167.391 17.684 C 167.391 18.951,167.961 19.320,169.947 19.341 C 171.784 19.361,173.015 19.873,173.140 20.672 C 173.181 20.927,173.319 21.353,173.447 21.618 C 173.591 21.915,173.656 26.512,173.616 33.558 L 173.551 45.014 168.841 40.245 C 166.250 37.623,164.087 35.348,164.035 35.190 C 163.982 35.032,159.690 30.637,154.496 25.423 L 145.052 15.942 139.857 15.961 C 137.000 15.972,134.526 16.035,134.360 16.102 M200.762 16.393 C 199.281 17.677,200.364 19.324,202.688 19.324 C 204.707 19.324,205.328 19.640,205.985 21.002 L 206.522 22.116 206.522 37.510 C 206.522 49.377,206.453 53.029,206.220 53.445 C 205.351 55.000,204.349 55.556,202.416 55.556 C 200.735 55.556,200.242 55.983,200.242 57.438 C 200.242 58.956,200.113 58.937,210.507 58.937 C 220.817 58.937,220.773 58.943,220.773 57.516 C 220.773 56.086,220.160 55.556,218.507 55.556 C 216.649 55.556,214.976 54.570,214.976 53.475 C 214.976 53.173,214.867 52.860,214.734 52.778 C 214.577 52.681,214.493 47.260,214.493 37.305 C 214.493 27.250,214.576 21.981,214.734 21.981 C 214.867 21.981,214.976 21.730,214.976 21.424 C 214.976 20.255,216.382 19.324,218.146 19.324 C 220.341 19.324,221.733 17.482,220.483 16.232 C 219.932 15.680,201.409 15.832,200.762 16.393 M292.370 16.273 C 292.300 16.455,292.276 17.188,292.317 17.903 L 292.391 19.203 294.481 19.272 C 296.777 19.349,297.826 19.939,297.826 21.154 C 297.826 21.460,297.935 21.778,298.068 21.860 C 298.375 22.050,298.401 52.485,298.094 53.083 C 297.975 53.314,297.764 53.793,297.624 54.149 C 297.274 55.038,296.085 55.528,294.082 55.609 L 292.391 55.676 292.319 57.186 C 292.231 59.035,290.875 58.768,301.449 58.987 C 314.833 59.264,325.088 59.592,326.395 59.784 C 327.877 60.001,328.261 59.697,328.261 58.304 C 328.261 57.722,328.370 57.246,328.502 57.246 C 328.644 57.246,328.744 56.406,328.744 55.207 C 328.744 54.086,328.853 53.101,328.986 53.019 C 329.414 52.755,329.288 49.109,328.845 48.939 C 327.261 48.331,325.121 49.064,325.121 50.214 C 325.121 51.623,323.532 54.021,322.137 54.716 C 321.281 55.144,311.730 55.246,311.473 54.831 C 311.391 54.698,310.894 54.589,310.369 54.589 C 309.261 54.589,308.680 54.305,307.428 53.152 L 306.522 52.317 306.522 45.111 L 306.522 37.904 311.534 38.009 C 317.878 38.143,319.361 38.336,319.683 39.070 C 319.814 39.369,320.004 39.614,320.106 39.614 C 320.207 39.614,320.290 39.927,320.290 40.311 C 320.290 41.929,321.112 42.745,322.748 42.750 C 324.646 42.756,324.638 42.782,324.638 36.561 C 324.638 30.179,324.642 30.193,322.837 30.193 C 321.095 30.193,320.773 30.348,320.773 31.185 C 320.773 31.570,320.664 31.884,320.531 31.884 C 320.399 31.884,320.290 32.137,320.290 32.446 C 320.290 33.005,319.692 33.664,318.663 34.239 C 318.366 34.405,317.328 34.541,316.356 34.541 C 315.384 34.541,314.478 34.653,314.341 34.789 C 314.187 34.943,312.686 35.012,310.368 34.970 L 306.643 34.903 306.579 27.114 L 306.515 19.324 311.456 19.324 C 314.489 19.324,316.454 19.417,316.546 19.565 C 316.628 19.698,317.606 19.807,318.720 19.807 C 319.833 19.807,320.812 19.915,320.894 20.048 C 320.976 20.181,321.289 20.290,321.591 20.290 C 322.159 20.290,323.188 21.194,323.188 21.694 C 323.188 21.852,323.297 21.981,323.430 21.981 C 323.563 21.981,323.671 22.307,323.671 22.705 C 323.671 23.104,323.780 23.430,323.913 23.430 C 324.046 23.430,324.155 23.680,324.155 23.986 C 324.155 25.040,326.646 25.672,327.488 24.831 C 327.845 24.474,327.888 20.145,327.536 19.928 C 327.403 19.845,327.295 19.095,327.295 18.260 C 327.295 15.727,328.953 15.942,309.454 15.942 C 295.324 15.942,292.476 15.997,292.370 16.273 M97.222 18.116 C 97.304 18.249,97.702 18.357,98.105 18.357 C 98.508 18.357,99.127 18.555,99.480 18.797 C 99.832 19.038,100.719 19.525,101.449 19.878 C 102.718 20.492,106.522 23.839,106.522 24.343 C 106.522 24.472,106.680 24.709,106.872 24.870 C 107.280 25.208,108.454 27.486,108.454 27.939 C 108.454 28.108,108.671 28.633,108.937 29.106 C 109.203 29.579,109.420 30.267,109.420 30.635 C 109.420 31.003,109.556 31.440,109.722 31.606 C 109.946 31.830,110.024 33.337,110.024 37.440 C 110.024 41.543,109.946 43.049,109.722 43.273 C 109.556 43.439,109.420 43.934,109.420 44.372 C 109.420 44.810,109.312 45.169,109.179 45.169 C 109.046 45.169,108.937 45.386,108.937 45.652 C 108.937 45.918,108.829 46.135,108.696 46.135 C 108.563 46.135,108.454 46.461,108.454 46.860 C 108.454 47.258,108.345 47.585,108.213 47.585 C 108.080 47.585,107.971 47.778,107.971 48.014 C 107.971 48.251,107.754 48.601,107.488 48.792 C 107.222 48.984,107.005 49.263,107.005 49.412 C 107.005 49.561,106.787 49.880,106.522 50.121 C 106.256 50.361,106.039 50.674,106.039 50.816 C 106.039 51.167,103.104 54.106,102.754 54.106 C 102.600 54.106,102.341 54.267,102.179 54.463 C 102.016 54.659,101.269 55.117,100.519 55.481 C 99.768 55.844,99.118 56.227,99.074 56.332 C 99.030 56.436,98.568 56.522,98.048 56.522 C 97.527 56.522,97.101 56.630,97.101 56.763 C 97.101 56.907,96.180 57.005,94.821 57.005 C 93.561 57.005,92.474 56.897,92.391 56.763 C 92.309 56.630,91.835 56.522,91.338 56.522 C 90.418 56.522,89.136 56.065,89.132 55.737 C 89.131 55.637,88.989 55.556,88.816 55.556 C 88.372 55.556,87.202 54.987,87.200 54.771 C 87.199 54.671,87.047 54.589,86.863 54.589 C 86.477 54.589,82.807 50.897,82.575 50.275 C 82.491 50.048,82.246 49.717,82.032 49.539 C 81.818 49.362,81.643 49.066,81.643 48.883 C 81.643 48.700,81.534 48.551,81.401 48.551 C 81.268 48.551,81.159 48.333,81.159 48.068 C 81.159 47.802,81.078 47.584,80.978 47.583 C 80.736 47.580,80.193 46.388,80.193 45.860 C 80.193 45.628,80.085 45.372,79.952 45.290 C 79.819 45.208,79.710 44.773,79.710 44.324 C 79.710 43.874,79.601 43.440,79.469 43.357 C 79.336 43.275,79.227 42.732,79.227 42.150 C 79.227 41.568,79.118 41.024,78.986 40.942 C 78.843 40.854,78.744 39.414,78.744 37.440 C 78.744 35.465,78.843 34.025,78.986 33.937 C 79.118 33.855,79.227 33.312,79.227 32.729 C 79.227 32.147,79.336 31.604,79.469 31.522 C 79.601 31.440,79.710 31.005,79.710 30.556 C 79.710 30.106,79.819 29.671,79.952 29.589 C 80.085 29.507,80.193 29.257,80.193 29.034 C 80.193 28.499,81.807 25.244,82.257 24.870 C 82.450 24.710,82.609 24.474,82.609 24.346 C 82.609 24.041,86.357 20.290,86.662 20.290 C 86.792 20.290,87.031 20.129,87.194 19.933 C 87.580 19.468,88.844 18.841,89.395 18.841 C 89.632 18.841,89.894 18.732,89.976 18.599 C 90.058 18.466,90.493 18.357,90.942 18.357 C 91.391 18.357,91.826 18.249,91.908 18.116 C 91.992 17.980,93.154 17.874,94.565 17.874 C 95.976 17.874,97.138 17.980,97.222 18.116 M334.534 156.944 L 332.971 158.575 334.601 157.012 C 335.498 156.152,336.232 155.418,336.232 155.381 C 336.232 155.204,335.986 155.430,334.534 156.944 " stroke="none" fill="#5c94cc" fill-rule="evenodd"></path>
    <path id="path2" d="M281.796 129.728 C 281.236 130.168,281.159 130.401,281.159 131.660 C 281.159 132.448,281.064 133.092,280.948 133.092 C 280.831 133.092,280.668 133.662,280.584 134.360 C 280.265 137.026,280.133 137.810,279.967 138.043 C 279.873 138.176,279.767 138.774,279.733 139.372 C 279.699 139.970,279.572 140.562,279.449 140.688 C 279.327 140.815,279.227 141.472,279.227 142.150 C 279.227 142.827,279.129 143.485,279.009 143.611 C 278.889 143.737,278.731 144.330,278.658 144.928 C 278.585 145.525,278.420 146.612,278.293 147.343 C 278.165 148.074,277.990 149.142,277.906 149.717 C 277.821 150.292,277.649 151.033,277.523 151.363 C 277.397 151.693,277.295 152.428,277.295 152.995 C 277.295 153.562,277.220 154.100,277.129 154.192 C 276.935 154.385,276.912 154.542,276.675 157.194 C 276.577 158.295,276.405 159.252,276.292 159.322 C 276.179 159.392,276.087 159.932,276.087 160.522 C 276.087 161.111,275.978 161.594,275.845 161.594 C 275.713 161.594,275.604 162.186,275.604 162.908 C 275.604 163.631,275.495 164.290,275.362 164.372 C 275.229 164.454,275.121 164.982,275.121 165.546 C 275.121 166.109,275.020 166.673,274.896 166.800 C 274.773 166.926,274.632 167.409,274.583 167.874 C 274.531 168.364,274.433 168.567,274.351 168.357 C 273.929 167.280,272.705 163.303,272.705 163.007 C 272.705 162.818,272.488 162.236,272.222 161.715 C 271.957 161.194,271.739 160.471,271.739 160.108 C 271.739 159.745,271.630 159.382,271.498 159.300 C 271.365 159.217,271.256 158.891,271.256 158.575 C 271.256 158.258,271.147 157.932,271.014 157.850 C 270.882 157.768,270.773 157.442,270.773 157.126 C 270.773 156.809,270.664 156.483,270.531 156.401 C 270.399 156.319,270.290 155.993,270.290 155.676 C 270.290 155.360,270.181 155.034,270.048 154.952 C 269.915 154.870,269.807 154.543,269.807 154.227 C 269.807 153.911,269.698 153.585,269.565 153.502 C 269.432 153.420,269.324 153.094,269.324 152.778 C 269.324 152.461,269.215 152.135,269.082 152.053 C 268.949 151.971,268.841 151.712,268.841 151.477 C 268.841 151.242,268.407 149.753,267.876 148.170 C 267.346 146.586,266.911 145.100,266.910 144.867 C 266.909 144.635,266.800 144.444,266.667 144.444 C 266.534 144.444,266.425 144.262,266.425 144.039 C 266.425 143.585,265.995 142.130,265.671 141.489 C 265.554 141.258,265.459 140.857,265.459 140.597 C 265.459 140.338,265.350 140.058,265.217 139.976 C 265.085 139.894,264.976 139.568,264.976 139.251 C 264.976 138.935,264.867 138.609,264.734 138.527 C 264.601 138.444,264.493 138.112,264.493 137.788 C 264.493 137.463,264.384 137.198,264.251 137.198 C 264.118 137.198,264.010 136.824,264.010 136.367 C 264.010 135.910,263.901 135.469,263.768 135.386 C 263.635 135.304,263.527 135.025,263.527 134.765 C 263.527 134.505,263.401 134.050,263.247 133.753 C 263.094 133.456,262.893 133.050,262.800 132.850 C 262.177 131.510,260.983 132.758,261.216 134.506 C 261.298 135.123,261.469 136.443,261.596 137.440 C 261.722 138.436,261.941 140.121,262.082 141.184 C 262.223 142.246,262.393 143.877,262.458 144.807 C 262.524 145.737,262.676 146.715,262.796 146.981 C 262.917 147.246,263.077 148.170,263.152 149.034 C 263.282 150.525,263.398 151.511,264.002 156.280 C 264.145 157.409,264.368 159.203,264.498 160.266 C 264.775 162.532,265.101 164.900,265.347 166.425 L 265.523 167.512 264.766 166.803 C 264.350 166.412,264.005 165.978,263.999 165.836 C 263.994 165.695,263.451 165.036,262.794 164.372 C 262.136 163.708,261.597 163.050,261.596 162.911 C 261.595 162.772,261.159 162.234,260.628 161.715 C 260.097 161.196,259.662 160.684,259.662 160.576 C 259.662 160.469,259.119 159.811,258.457 159.115 C 257.794 158.420,257.250 157.751,257.249 157.631 C 257.247 157.510,256.676 156.777,255.978 156.003 C 253.595 153.356,252.657 152.247,252.657 152.072 C 252.657 151.976,252.141 151.353,251.510 150.687 C 250.879 150.021,250.265 149.296,250.146 149.074 C 250.026 148.853,249.564 148.331,249.119 147.914 C 248.674 147.498,248.309 147.021,248.309 146.855 C 248.309 146.690,247.766 146.019,247.101 145.365 C 246.437 144.711,245.894 144.072,245.894 143.945 C 245.894 143.817,245.408 143.198,244.814 142.569 C 243.209 140.869,241.063 138.214,241.063 137.930 C 241.063 137.793,240.739 137.681,240.343 137.681 C 239.207 137.681,239.127 138.579,240.099 140.417 C 240.532 141.237,241.008 142.152,241.156 142.450 C 241.304 142.748,241.507 142.992,241.606 142.993 C 241.706 142.994,241.787 143.204,241.787 143.458 C 241.787 143.713,241.875 143.957,241.981 144.002 C 242.088 144.046,242.590 144.952,243.097 146.014 C 245.477 151.003,248.466 156.991,249.080 157.998 C 249.453 158.610,249.758 159.276,249.758 159.478 C 249.758 159.679,249.915 159.974,250.107 160.133 C 250.299 160.293,250.974 161.474,251.609 162.760 C 252.243 164.045,252.847 165.133,252.951 165.177 C 253.055 165.221,253.140 165.466,253.140 165.721 C 253.140 165.975,253.249 166.184,253.382 166.184 C 253.514 166.184,253.623 166.401,253.623 166.667 C 253.623 166.932,253.732 167.150,253.865 167.150 C 253.998 167.150,254.106 167.367,254.106 167.633 C 254.106 167.899,254.215 168.116,254.348 168.116 C 254.481 168.116,254.589 168.257,254.589 168.430 C 254.589 168.874,255.157 170.044,255.374 170.046 C 255.474 170.047,255.556 170.190,255.556 170.362 C 255.556 170.807,256.124 171.977,256.341 171.979 C 256.440 171.980,256.522 172.142,256.522 172.339 C 256.522 172.647,256.404 172.641,255.676 172.294 C 255.211 172.073,254.831 171.805,254.831 171.700 C 254.831 171.596,254.348 171.290,253.759 171.021 C 253.169 170.752,252.621 170.427,252.541 170.297 C 252.460 170.167,251.992 169.876,251.499 169.650 C 251.007 169.423,250.325 169.047,249.984 168.813 C 249.644 168.579,248.611 167.987,247.690 167.497 C 244.298 165.692,243.870 165.451,243.497 165.137 C 243.287 164.960,242.713 164.631,242.220 164.406 C 241.728 164.181,241.261 163.894,241.184 163.768 C 241.106 163.642,240.639 163.352,240.147 163.123 C 239.654 162.893,239.075 162.510,238.861 162.271 C 238.646 162.032,238.292 161.836,238.076 161.836 C 237.859 161.836,237.681 161.727,237.681 161.594 C 237.681 161.461,237.464 161.353,237.198 161.353 C 236.932 161.353,236.714 161.271,236.713 161.171 C 236.712 160.973,235.864 160.442,233.816 159.357 C 233.086 158.970,232.316 158.500,232.107 158.312 C 231.897 158.125,231.611 157.971,231.472 157.971 C 231.333 157.971,231.082 157.807,230.915 157.606 C 230.749 157.405,229.924 156.912,229.084 156.511 C 228.243 156.110,227.411 155.649,227.234 155.487 C 226.780 155.070,225.899 154.589,225.590 154.589 C 225.446 154.589,225.159 154.420,224.952 154.214 C 224.380 153.642,223.327 153.858,223.227 154.568 C 223.153 155.093,231.953 164.219,232.837 164.534 C 232.960 164.578,233.747 165.274,234.586 166.082 C 235.425 166.890,236.301 167.655,236.532 167.782 C 236.764 167.909,237.602 168.634,238.393 169.393 C 239.185 170.152,239.923 170.773,240.033 170.773 C 240.143 170.773,240.802 171.316,241.499 171.981 C 242.195 172.645,242.844 173.190,242.940 173.191 C 243.037 173.193,243.583 173.628,244.153 174.158 C 244.723 174.687,245.270 175.121,245.367 175.121 C 245.465 175.121,245.902 175.447,246.338 175.845 C 246.774 176.244,247.192 176.570,247.265 176.570 C 247.339 176.570,248.091 177.114,248.936 177.778 C 249.781 178.442,250.558 178.986,250.662 178.986 C 250.765 178.986,251.121 179.230,251.452 179.529 C 251.783 179.828,252.352 180.227,252.717 180.415 C 253.083 180.604,253.382 180.848,253.382 180.959 C 253.382 181.069,253.485 181.159,253.611 181.159 C 253.737 181.159,254.324 181.486,254.914 181.884 C 255.505 182.283,256.095 182.609,256.225 182.609 C 256.356 182.609,256.599 182.773,256.766 182.974 C 256.932 183.175,257.734 183.671,258.547 184.077 C 259.359 184.482,260.673 185.194,261.466 185.659 C 262.259 186.124,263.319 186.632,263.821 186.789 C 264.323 186.946,264.734 187.156,264.734 187.257 C 264.734 187.357,264.952 187.440,265.217 187.440 C 265.483 187.440,265.701 187.521,265.702 187.621 C 265.705 187.891,266.924 188.406,267.560 188.406 C 267.866 188.406,268.116 188.488,268.116 188.588 C 268.116 188.765,268.514 188.956,270.290 189.633 C 270.755 189.810,271.717 190.258,272.428 190.629 C 273.139 191.001,273.920 191.304,274.165 191.304 C 274.409 191.304,274.676 191.413,274.758 191.546 C 274.841 191.679,275.119 191.787,275.377 191.787 C 275.634 191.787,275.845 191.896,275.845 192.029 C 275.845 192.162,276.063 192.271,276.329 192.271 C 276.594 192.271,276.812 192.379,276.812 192.512 C 276.812 192.645,277.138 192.754,277.536 192.754 C 277.935 192.754,278.261 192.836,278.261 192.936 C 278.261 193.116,278.764 193.355,280.435 193.969 C 280.900 194.140,281.383 194.372,281.510 194.483 C 281.636 194.595,281.867 194.686,282.024 194.686 C 282.180 194.686,282.729 194.868,283.243 195.091 C 283.758 195.313,284.363 195.529,284.588 195.570 C 284.813 195.611,285.383 195.862,285.856 196.128 C 286.328 196.393,286.715 196.560,286.715 196.499 C 286.715 196.437,287.449 196.641,288.345 196.951 C 289.242 197.261,290.465 197.655,291.063 197.826 C 291.661 197.997,292.616 198.285,293.185 198.465 C 293.754 198.645,294.542 198.792,294.936 198.792 C 295.330 198.792,295.652 198.901,295.652 199.034 C 295.652 199.167,296.065 199.275,296.570 199.275 C 297.075 199.275,297.591 199.373,297.717 199.492 C 297.844 199.611,298.382 199.771,298.913 199.847 C 299.444 199.924,300.586 200.103,301.449 200.247 C 302.313 200.390,303.617 200.561,304.348 200.627 C 305.079 200.692,305.894 200.848,306.159 200.973 C 306.425 201.097,308.056 201.244,309.783 201.298 C 311.510 201.353,313.317 201.474,313.800 201.567 C 314.352 201.674,314.738 201.639,314.841 201.472 C 314.931 201.327,315.487 201.208,316.077 201.208 C 316.667 201.208,317.150 201.099,317.150 200.966 C 317.150 200.833,317.585 200.725,318.116 200.725 C 318.647 200.725,319.082 200.616,319.082 200.483 C 319.082 200.350,319.456 200.242,319.913 200.242 C 320.370 200.242,320.812 200.133,320.894 200.000 C 320.976 199.867,321.363 199.758,321.753 199.758 C 322.144 199.758,322.464 199.650,322.464 199.517 C 322.464 199.384,322.826 199.275,323.269 199.275 C 323.712 199.275,324.155 199.194,324.254 199.094 C 324.353 198.995,325.159 198.785,326.045 198.628 C 328.286 198.232,329.031 198.063,329.589 197.826 C 329.855 197.713,330.344 197.566,330.676 197.499 C 331.008 197.432,331.715 197.250,332.246 197.096 C 332.778 196.941,333.593 196.764,334.058 196.702 C 334.523 196.639,335.121 196.489,335.386 196.367 C 335.652 196.246,336.141 196.114,336.473 196.074 C 336.806 196.035,337.203 195.923,337.358 195.826 C 337.512 195.730,337.919 195.627,338.263 195.599 C 338.607 195.570,338.889 195.474,338.889 195.384 C 338.889 195.229,339.502 195.089,341.486 194.792 C 341.984 194.717,342.609 194.561,342.874 194.446 C 343.530 194.161,346.302 193.450,347.343 193.301 C 347.808 193.234,348.306 193.086,348.449 192.971 C 348.592 192.857,348.943 192.728,349.228 192.684 C 349.885 192.584,350.081 192.384,350.127 191.770 C 350.175 191.116,349.401 190.733,348.463 190.947 C 348.046 191.043,345.857 191.215,343.599 191.330 C 341.341 191.445,337.808 191.653,335.749 191.791 C 333.690 191.929,330.320 192.095,328.261 192.160 C 326.202 192.224,324.300 192.383,324.034 192.512 C 323.768 192.642,321.757 192.797,319.565 192.857 C 317.373 192.918,314.824 193.038,313.901 193.125 C 312.184 193.286,311.849 192.804,313.407 192.413 C 313.729 192.332,314.459 191.957,315.028 191.580 C 315.597 191.203,316.416 190.743,316.848 190.557 C 317.280 190.372,317.633 190.138,317.633 190.038 C 317.633 189.937,317.810 189.855,318.027 189.855 C 318.244 189.855,318.597 189.660,318.812 189.421 C 319.027 189.182,319.816 188.691,320.565 188.330 C 321.314 187.968,322.292 187.430,322.739 187.133 C 323.185 186.837,323.877 186.434,324.275 186.239 C 324.674 186.044,325.435 185.603,325.966 185.258 C 326.498 184.914,327.765 184.226,328.784 183.730 C 329.802 183.235,330.757 182.682,330.905 182.503 C 331.054 182.324,331.525 182.039,331.952 181.870 C 332.380 181.701,332.893 181.432,333.092 181.272 C 333.291 181.112,334.528 180.417,335.840 179.728 C 337.153 179.038,338.385 178.317,338.577 178.124 C 338.770 177.931,339.018 177.829,339.129 177.898 C 339.240 177.966,339.367 177.940,339.412 177.840 C 339.456 177.739,339.982 177.405,340.580 177.096 C 342.479 176.116,343.595 175.488,343.720 175.329 C 343.786 175.244,344.613 174.776,345.558 174.290 C 347.393 173.344,348.047 172.575,347.638 171.843 C 347.395 171.409,346.377 171.163,346.377 171.538 C 346.377 171.649,346.104 171.739,345.770 171.739 C 345.436 171.739,344.947 171.848,344.683 171.981 C 344.419 172.114,343.987 172.331,343.723 172.464 C 343.459 172.597,342.970 172.705,342.636 172.705 C 342.302 172.705,342.029 172.814,342.029 172.947 C 342.029 173.080,341.709 173.188,341.319 173.188 C 340.928 173.188,340.541 173.297,340.459 173.430 C 340.377 173.563,340.051 173.671,339.734 173.671 C 339.418 173.671,339.092 173.780,339.010 173.913 C 338.928 174.046,338.601 174.155,338.285 174.155 C 337.969 174.155,337.642 174.263,337.560 174.396 C 337.478 174.529,337.152 174.638,336.836 174.638 C 336.519 174.638,336.193 174.746,336.111 174.879 C 336.029 175.012,335.697 175.121,335.372 175.121 C 335.048 175.121,334.783 175.229,334.783 175.362 C 334.783 175.495,334.457 175.604,334.058 175.604 C 333.659 175.604,333.333 175.689,333.333 175.793 C 333.333 175.897,332.817 176.123,332.186 176.296 C 331.555 176.469,330.821 176.703,330.556 176.816 C 330.290 176.929,329.638 177.152,329.106 177.312 C 328.575 177.472,327.923 177.690,327.657 177.795 C 327.391 177.901,326.739 178.118,326.208 178.278 C 325.676 178.438,325.024 178.656,324.758 178.761 C 324.493 178.867,323.841 179.092,323.309 179.260 C 322.778 179.429,322.240 179.654,322.114 179.759 C 321.987 179.865,321.687 179.952,321.446 179.952 C 321.205 179.952,320.819 180.049,320.589 180.168 C 320.358 180.288,319.354 180.625,318.357 180.918 C 317.361 181.211,316.357 181.548,316.126 181.667 C 315.896 181.787,315.488 181.884,315.221 181.884 C 314.953 181.884,314.734 181.993,314.734 182.126 C 314.734 182.258,314.408 182.367,314.010 182.367 C 313.611 182.367,313.285 182.461,313.285 182.576 C 313.285 182.691,312.782 182.853,312.168 182.938 C 311.553 183.022,310.076 183.425,308.885 183.834 C 307.694 184.243,306.677 184.536,306.626 184.484 C 306.575 184.433,309.166 181.816,312.385 178.668 C 315.603 175.521,318.970 172.228,319.867 171.352 C 320.764 170.475,321.498 169.677,321.498 169.579 C 321.498 169.351,323.003 167.976,323.397 167.845 C 324.192 167.580,336.715 154.733,336.715 154.182 C 336.715 153.355,335.790 153.044,335.129 153.649 C 334.855 153.901,334.519 154.106,334.382 154.106 C 334.245 154.106,333.936 154.324,333.696 154.589 C 333.455 154.855,333.129 155.072,332.971 155.072 C 332.813 155.072,332.478 155.299,332.227 155.577 C 331.716 156.141,329.790 157.488,329.494 157.488 C 329.388 157.488,329.105 157.705,328.865 157.971 C 328.624 158.237,328.281 158.454,328.103 158.454 C 327.924 158.454,327.778 158.544,327.778 158.655 C 327.778 158.765,327.479 159.005,327.114 159.188 C 326.748 159.371,326.232 159.754,325.966 160.039 C 325.529 160.507,325.088 160.795,323.279 161.789 C 322.963 161.962,322.705 162.199,322.705 162.316 C 322.705 162.432,322.489 162.597,322.224 162.681 C 321.959 162.765,321.605 162.963,321.439 163.122 C 320.890 163.642,317.724 165.700,317.471 165.700 C 317.336 165.700,317.028 165.918,316.787 166.184 C 316.547 166.449,316.231 166.670,316.086 166.673 C 315.940 166.677,315.507 167.000,315.123 167.391 C 314.739 167.783,314.332 168.045,314.218 167.974 C 314.103 167.904,314.010 167.961,314.010 168.102 C 314.010 168.242,313.874 168.358,313.708 168.358 C 313.542 168.358,313.025 168.684,312.560 169.082 C 312.095 169.480,311.603 169.806,311.466 169.806 C 311.330 169.807,311.061 170.024,310.870 170.290 C 310.678 170.556,310.345 170.773,310.129 170.773 C 309.913 170.773,309.540 170.990,309.300 171.256 C 309.059 171.522,308.716 171.739,308.537 171.739 C 308.359 171.739,308.213 171.835,308.213 171.953 C 308.213 172.071,307.847 172.341,307.400 172.553 C 306.954 172.765,306.451 173.103,306.284 173.305 C 306.116 173.506,305.847 173.671,305.684 173.671 C 305.522 173.671,305.192 173.889,304.952 174.155 C 304.711 174.420,304.385 174.638,304.227 174.638 C 304.069 174.638,303.743 174.855,303.502 175.121 C 303.262 175.386,302.936 175.604,302.778 175.604 C 302.620 175.604,302.294 175.821,302.053 176.087 C 301.813 176.353,301.470 176.570,301.291 176.570 C 301.112 176.570,300.966 176.679,300.966 176.812 C 300.966 176.944,300.863 177.053,300.737 177.053 C 300.487 177.053,302.168 173.629,302.735 172.982 C 302.926 172.763,303.163 172.313,303.262 171.981 C 303.360 171.649,303.525 171.268,303.628 171.135 C 303.732 171.002,304.276 170.024,304.838 168.961 C 306.090 166.596,306.989 164.952,307.805 163.540 C 308.146 162.950,308.371 162.379,308.305 162.272 C 308.238 162.165,308.299 162.077,308.440 162.077 C 308.581 162.077,308.696 161.860,308.696 161.594 C 308.696 161.329,308.804 161.111,308.937 161.111 C 309.070 161.111,309.179 160.903,309.179 160.648 C 309.179 160.394,309.261 160.149,309.361 160.105 C 309.461 160.060,309.912 159.290,310.363 158.394 C 310.814 157.497,311.254 156.763,311.340 156.763 C 311.427 156.763,311.643 156.356,311.821 155.857 C 312.000 155.359,312.212 154.897,312.294 154.831 C 312.551 154.622,314.010 151.638,314.010 151.320 C 314.010 151.154,314.161 150.960,314.345 150.889 C 314.712 150.748,315.459 149.398,315.459 148.876 C 315.459 148.697,315.568 148.551,315.700 148.551 C 315.833 148.551,315.942 148.342,315.942 148.088 C 315.942 147.833,316.027 147.589,316.131 147.544 C 316.236 147.500,316.734 146.649,317.239 145.652 C 317.743 144.656,318.327 143.561,318.536 143.220 C 319.094 142.306,318.785 141.304,317.945 141.304 C 317.352 141.304,315.459 142.987,315.459 143.513 C 315.459 143.610,314.209 144.969,312.681 146.534 C 311.153 148.099,309.903 149.485,309.903 149.614 C 309.903 149.743,308.832 150.888,307.522 152.158 C 306.213 153.429,305.044 154.650,304.926 154.871 C 304.807 155.092,303.493 156.528,302.006 158.060 C 300.518 159.593,299.105 161.150,298.866 161.521 C 298.626 161.891,297.370 163.259,296.075 164.560 C 294.780 165.861,293.720 167.028,293.720 167.154 C 293.720 167.280,293.339 167.774,292.874 168.253 C 292.039 169.113,292.029 169.116,292.029 168.513 C 292.029 168.178,292.138 167.836,292.271 167.754 C 292.403 167.672,292.512 167.237,292.512 166.787 C 292.512 166.338,292.621 165.903,292.754 165.821 C 292.886 165.739,292.995 165.304,292.995 164.855 C 292.995 164.406,293.104 163.971,293.237 163.889 C 293.370 163.807,293.478 163.366,293.478 162.908 C 293.478 162.451,293.587 162.077,293.720 162.077 C 293.853 162.077,293.961 161.595,293.961 161.005 C 293.961 160.415,294.070 159.865,294.203 159.783 C 294.336 159.701,294.444 159.266,294.444 158.816 C 294.444 158.367,294.542 157.939,294.660 157.866 C 294.864 157.740,294.938 157.401,295.310 154.890 C 295.393 154.324,295.559 153.802,295.678 153.728 C 295.797 153.655,295.894 153.281,295.894 152.899 C 295.894 152.516,296.002 152.135,296.135 152.053 C 296.268 151.971,296.377 151.536,296.377 151.087 C 296.377 150.638,296.486 150.203,296.618 150.121 C 296.751 150.039,296.860 149.495,296.860 148.913 C 296.860 148.331,296.969 147.787,297.101 147.705 C 297.234 147.623,297.343 147.188,297.343 146.739 C 297.343 146.290,297.452 145.855,297.585 145.773 C 297.717 145.691,297.826 145.250,297.826 144.793 C 297.826 144.335,297.935 143.961,298.068 143.961 C 298.200 143.961,298.309 143.527,298.309 142.995 C 298.309 142.464,298.418 142.029,298.551 142.029 C 298.684 142.029,298.792 141.655,298.792 141.198 C 298.792 140.741,298.901 140.299,299.034 140.217 C 299.167 140.135,299.275 139.701,299.275 139.251 C 299.275 138.802,299.373 138.374,299.491 138.301 C 299.610 138.227,299.767 137.759,299.840 137.260 C 299.913 136.761,300.046 135.998,300.135 135.565 C 300.697 132.836,298.458 133.934,297.465 136.875 C 297.248 137.518,296.806 138.519,296.482 139.100 C 296.158 139.682,295.894 140.286,295.894 140.444 C 295.894 140.602,295.636 141.267,295.320 141.923 C 294.843 142.916,293.923 145.117,293.006 147.464 C 292.902 147.729,292.477 148.641,292.061 149.490 C 291.645 150.339,291.304 151.236,291.304 151.483 C 291.304 151.730,291.223 151.933,291.123 151.934 C 290.937 151.936,290.338 153.081,290.338 153.435 C 290.338 153.544,289.903 154.553,289.372 155.676 C 288.841 156.800,288.406 157.878,288.406 158.073 C 288.406 158.267,288.297 158.493,288.164 158.575 C 288.031 158.657,287.923 158.935,287.923 159.193 C 287.923 159.451,287.831 159.662,287.720 159.662 C 287.608 159.662,287.372 160.124,287.195 160.688 C 287.018 161.253,286.783 161.818,286.673 161.944 C 286.563 162.071,286.473 162.370,286.473 162.609 C 286.473 162.848,286.365 163.043,286.232 163.043 C 286.099 163.043,285.990 163.208,285.990 163.409 C 285.990 163.610,285.891 163.963,285.769 164.194 C 285.647 164.425,285.349 165.048,285.105 165.580 L 284.662 166.546 284.597 160.636 C 284.559 157.184,284.434 154.627,284.295 154.488 C 284.151 154.344,284.058 151.529,284.058 147.309 C 284.058 142.941,283.968 140.311,283.816 140.217 C 283.668 140.125,283.575 138.084,283.575 134.898 C 283.575 130.033,283.547 129.712,283.108 129.477 C 282.501 129.152,282.536 129.146,281.796 129.728 " stroke="none" fill="#ecbd55" fill-rule="evenodd"></path>
  </g>
</svg>