<?xml version="1.0" encoding="utf-8"?>
<!-- Generator: Adobe Illustrator 23.0.1, SVG Export Plug-In . SVG Version: 6.00 Build 0)  -->
<svg version="1.0" id="Warstwa_1" xmlns="http://www.w3.org/2000/svg" xmlns:xlink="http://www.w3.org/1999/xlink" x="0px" y="0px"
	 viewBox="0 0 68.57 45" style="enable-background:new 0 0 68.57 45;" xml:space="preserve">
<style type="text/css">
	.st0{fill:#1226AA;}
	.st1{fill:#009FE3;}
	.st2{fill:url(#SVGID_1_);}
</style>
<g>
	<g>
		<g>
			<path class="st0" d="M33.65,40.9c0,2.02-0.26,3.9-3.2,4.08C30.29,45,30.1,45,29.91,45v-1.57c0.11,0,0.23,0,0.32-0.02
				c1.36-0.15,1.46-1.19,1.46-2.46V30.78h1.97V40.9z"/>
		</g>
		<g>
			<path class="st0" d="M35.86,35.9c0-2.74,2.02-5.43,5.48-5.43c3.46,0,5.48,2.69,5.48,5.45c0,2.76-2.02,5.43-5.48,5.43
				c-3.46,0-5.48-2.67-5.48-5.43V35.9z M37.83,35.94c0,2.04,1.55,3.57,3.52,3.57c1.97,0,3.52-1.53,3.52-3.59
				c0-2.06-1.55-3.59-3.52-3.59c-1.97,0-3.52,1.53-3.52,3.59V35.94z"/>
		</g>
		<g>
			<path class="st0" d="M48.84,30.78h1.85v1.51c0.59-1.21,1.66-1.8,3.06-1.82v1.97h-0.13c-1.85,0-2.82,1.02-2.82,3.06v5.56h-1.97
				V30.78z"/>
		</g>
		<g>
			<path class="st0" d="M55.88,36.55c0.09,2.08,1.91,3.14,3.46,3.14c1.38,0,2.4-0.66,2.97-1.74h2.04c-0.49,1.13-1.21,1.99-2.08,2.55
				c-0.87,0.59-1.89,0.87-2.93,0.87c-3.37,0-5.45-2.7-5.45-5.43c0-2.95,2.31-5.47,5.43-5.47c1.48,0,2.82,0.55,3.8,1.51
				c1.21,1.23,1.72,2.84,1.55,4.56H55.88z M62.72,35.01c-0.09-1.36-1.46-2.89-3.4-2.86c-2,0-3.31,1.46-3.4,2.86H62.72z"/>
		</g>
		<g>
			<path class="st0" d="M66.6,27.07h1.97v13.99H66.6V27.07z"/>
		</g>
		<g>
			<path class="st0" d="M26.83,30.78v1.27c-0.96-0.95-2.28-1.54-3.72-1.54c-2.95,0-5.34,2.43-5.34,5.41c0,2.98,2.4,5.41,5.34,5.41
				c1.45,0,2.76-0.59,3.72-1.54v1.27h1.97V30.78H26.83z M23.11,39.43c-1.9,0-3.44-1.58-3.44-3.51c0-1.94,1.54-3.51,3.44-3.51
				s3.44,1.58,3.44,3.51C26.55,37.86,25,39.43,23.11,39.43z"/>
		</g>
		<path class="st0" d="M11.27,30.54c-1.38,0-2.6,0.64-3.41,1.64c-0.8-1-2.03-1.64-3.41-1.64c-0.98,0-1.89,0.33-2.62,0.87V30.8H0
			v10.28h0.08h1.76h0.18v-6.16c0-1.35,1.09-2.44,2.44-2.44s2.44,1.09,2.44,2.44v6.16h1.94v-6.16c0-1.35,1.09-2.44,2.44-2.44
			s2.44,1.09,2.44,2.44v6.16h1.94v-6.16C15.64,32.5,13.68,30.54,11.27,30.54z"/>
		<circle class="st0" cx="32.71" cy="28.11" r="1.29"/>
	</g>
	<path class="st1" d="M40.84,20.6c2.36,1.71,4.8,3.47,7.52,4.17c-0.26,0.27-0.52,0.53-0.78,0.77c-2.53-0.78-4.78-2.35-6.96-3.93
		c-0.58-0.86-1.21-1.72-1.91-2.51C39.43,19.58,40.13,20.09,40.84,20.6z M45.68,26.97c0.12-0.07,0.24-0.14,0.36-0.22
		c-1.49-0.72-2.86-1.93-4.2-3.24C43.34,25.84,44.5,27.65,45.68,26.97z M23.93,21.13c0,0,4.14-5.26,8.64-5.26
		c3.59,0,5.74,2.79,5.74,2.79c1.03,0.44,2.09,0.95,3.16,1.47c2.58,1.24,5.23,2.52,8.17,3.18c0.21-0.26,0.42-0.53,0.64-0.8
		c-3.01-0.6-5.75-1.92-8.41-3.2c-1.69-0.82-3.36-1.62-5.03-2.19c2.39,0.37,4.87,1.13,7.49,1.93c2.26,0.69,4.59,1.4,7.06,1.93
		c0.18-0.26,0.35-0.53,0.53-0.8c-2.56-0.53-4.98-1.27-7.33-1.99c-2.94-0.9-5.72-1.74-8.39-2.08c4.8-0.2,10.33,0.94,16.69,2.49
		c0.15-0.26,0.3-0.51,0.44-0.78c-5.59-1.36-11-2.57-15.84-2.59c-0.04,0-0.08,0-0.12,0c-0.54,0-1.06,0.02-1.57,0.04
		c5.5-1.14,11.93-0.88,18.38,0.92c0.13-0.25,0.25-0.5,0.37-0.76c-5.9-1.66-11.84-2.11-17.2-1.29c-0.68,0.1-1.34,0.23-1.99,0.37
		c5.76-2.06,12.86-2.96,19.96-0.77c0.1-0.25,0.21-0.49,0.31-0.74c-7.38-2.31-14.77-1.33-20.73,0.84c0.82-0.4,1.67-0.79,2.54-1.15
		c6.85-2.82,13.19-3.31,18.84-1.45c0.08-0.25,0.16-0.49,0.24-0.73c-5.83-1.92-12.35-1.43-19.37,1.47c-0.85,0.35-1.69,0.73-2.5,1.13
		c6.33-3.84,14.56-7,22.38-4.44c0.06-0.25,0.11-0.49,0.16-0.73c-8.04-2.59-16.46,0.63-22.91,4.54c1.32-0.95,2.75-1.89,4.25-2.76
		c7.08-4.11,13.43-5.36,18.92-3.74c0.02-0.25,0.03-0.49,0.03-0.73c-5.64-1.6-12.13-0.31-19.31,3.86c-1.49,0.86-2.9,1.79-4.21,2.72
		c1.5-1.22,3.13-2.44,4.87-3.58c6.89-4.52,13.07-6.21,18.44-5.07c-0.07-0.26-0.15-0.51-0.24-0.75c-5.46-1.02-11.68,0.73-18.57,5.25
		c-1.74,1.14-3.37,2.36-4.87,3.58c1.14-1.04,2.36-2.08,3.65-3.1c4.14-3.26,8.12-5.53,11.84-6.75c2.07-0.68,4.05-1.02,5.94-1.05
		C54.42,0.13,53.74,0,52.94,0c-0.42,0-0.83,0.02-1.25,0.06c-0.93,0.18-1.87,0.42-2.84,0.74c-3.78,1.24-7.83,3.55-12.04,6.85
		c-2.23,1.75-4.26,3.6-6.01,5.33c-2.16,2.27-3.86,4.34-4.93,5.69c-0.44,0.55-1.33,1.66-1.33,1.66l-0.72,0.36L23.93,21.13z"/>
	<linearGradient id="SVGID_1_" gradientUnits="userSpaceOnUse" x1="23.8385" y1="13.5562" x2="57.4663" y2="13.5562">
		<stop  offset="0.0758" style="stop-color:#1226AA"/>
		<stop  offset="0.6893" style="stop-color:#1226AA;stop-opacity:0"/>
	</linearGradient>
	<path class="st2" d="M40.84,20.6c2.36,1.71,4.8,3.47,7.52,4.17c-0.26,0.27-0.52,0.53-0.78,0.77c-2.53-0.78-4.78-2.35-6.96-3.93
		c-0.58-0.86-1.21-1.72-1.91-2.51C39.43,19.58,40.13,20.09,40.84,20.6z M45.68,26.97c0.12-0.07,0.24-0.14,0.36-0.22
		c-1.49-0.72-2.86-1.93-4.2-3.24C43.34,25.84,44.5,27.65,45.68,26.97z M23.93,21.13c0,0,4.14-5.26,8.64-5.26
		c3.59,0,5.74,2.79,5.74,2.79c1.03,0.44,2.09,0.95,3.16,1.47c2.58,1.24,5.23,2.52,8.17,3.18c0.21-0.26,0.42-0.53,0.64-0.8
		c-3.01-0.6-5.75-1.92-8.41-3.2c-1.69-0.82-3.36-1.62-5.03-2.19c2.39,0.37,4.87,1.13,7.49,1.93c2.26,0.69,4.59,1.4,7.06,1.93
		c0.18-0.26,0.35-0.53,0.53-0.8c-2.56-0.53-4.98-1.27-7.33-1.99c-2.94-0.9-5.72-1.74-8.39-2.08c4.8-0.2,10.33,0.94,16.69,2.49
		c0.15-0.26,0.3-0.51,0.44-0.78c-5.59-1.36-11-2.57-15.84-2.59c-0.04,0-0.08,0-0.12,0c-0.54,0-1.06,0.02-1.57,0.04
		c5.5-1.14,11.93-0.88,18.38,0.92c0.13-0.25,0.25-0.5,0.37-0.76c-5.9-1.66-11.84-2.11-17.2-1.29c-0.68,0.1-1.34,0.23-1.99,0.37
		c5.76-2.06,12.86-2.96,19.96-0.77c0.1-0.25,0.21-0.49,0.31-0.74c-7.38-2.31-14.77-1.33-20.73,0.84c0.82-0.4,1.67-0.79,2.54-1.15
		c6.85-2.82,13.19-3.31,18.84-1.45c0.08-0.25,0.16-0.49,0.24-0.73c-5.83-1.92-12.35-1.43-19.37,1.47c-0.85,0.35-1.69,0.73-2.5,1.13
		c6.33-3.84,14.56-7,22.38-4.44c0.06-0.25,0.11-0.49,0.16-0.73c-8.04-2.59-16.46,0.63-22.91,4.54c1.32-0.95,2.75-1.89,4.25-2.76
		c7.08-4.11,13.43-5.36,18.92-3.74c0.02-0.25,0.03-0.49,0.03-0.73c-5.64-1.6-12.13-0.31-19.31,3.86c-1.49,0.86-2.9,1.79-4.21,2.72
		c1.5-1.22,3.13-2.44,4.87-3.58c6.89-4.52,13.07-6.21,18.44-5.07c-0.07-0.26-0.15-0.51-0.24-0.75c-5.46-1.02-11.68,0.73-18.57,5.25
		c-1.74,1.14-3.37,2.36-4.87,3.58c1.14-1.04,2.36-2.08,3.65-3.1c4.14-3.26,8.12-5.53,11.84-6.75c2.07-0.68,4.05-1.02,5.94-1.05
		C54.42,0.13,53.74,0,52.94,0c-0.42,0-0.83,0.02-1.25,0.06c-0.93,0.18-1.87,0.42-2.84,0.74c-3.78,1.24-7.83,3.55-12.04,6.85
		c-2.23,1.75-4.26,3.6-6.01,5.33c-2.16,2.27-3.86,4.34-4.93,5.69c-0.44,0.55-1.33,1.66-1.33,1.66l-0.72,0.36L23.93,21.13z"/>
	<g>
		<g>
			<g>
				<path class="st1" d="M15.68,21.13h8.25c0.2-0.28,0.41-0.55,0.62-0.8h-8.88C15.68,20.61,15.68,20.88,15.68,21.13z"/>
				<path class="st1" d="M15.68,22.73h7.15c0.18-0.26,0.36-0.53,0.54-0.8h-7.69C15.68,22.32,15.68,22.59,15.68,22.73z"/>
				<path class="st1" d="M15.97,24.33h5.63c0.22-0.25,0.44-0.52,0.65-0.8h-6.51C15.79,23.79,15.86,24.06,15.97,24.33z"/>
				<path class="st1" d="M16.49,25.14c0.43,0.45,1.09,0.77,2.08,0.77c0.84,0,1.55-0.3,2.18-0.77H16.49z"/>
			</g>
			<path class="st1" d="M29.92,13.92H15.68c0,0.26,0,0.53,0,0.8H29.2C29.43,14.46,29.67,14.19,29.92,13.92z"/>
			<path class="st1" d="M28.49,15.52H15.68c0,0.26,0,0.53,0,0.8H27.8C28.02,16.06,28.25,15.8,28.49,15.52z"/>
			<path class="st1" d="M27.13,17.13H15.68c0,0.27,0,0.53,0,0.8h10.79C26.68,17.67,26.89,17.41,27.13,17.13z"/>
			<path class="st1" d="M35.02,9.12H15.98c-0.1,0.25-0.18,0.52-0.23,0.8H34.1C34.4,9.65,34.71,9.38,35.02,9.12z"/>
			<path class="st1" d="M32.34,11.5c0.28-0.26,0.56-0.52,0.85-0.78c0,0,0,0,0,0H15.68c0,0.18,0,0.45,0,0.8h16.65
				C32.33,11.51,32.34,11.51,32.34,11.5z"/>
			<path class="st1" d="M30.81,12.98c0.22-0.22,0.44-0.44,0.67-0.66h-15.8c0,0.25,0,0.52,0,0.8h14.99
				C30.72,13.07,30.76,13.02,30.81,12.98z"/>
			<path class="st1" d="M36.82,7.65c0.05-0.04,0.1-0.08,0.15-0.11c-7.36,0-17.32,0-18.56,0c-0.85,0-1.48,0.3-1.92,0.78h19.51
				C36.26,8.09,36.54,7.87,36.82,7.65z"/>
		</g>
		<path class="st1" d="M25.83,18.73H15.68c0,0.27,0,0.54,0,0.8h9.51C25.41,19.25,25.65,18.95,25.83,18.73z"/>
	</g>
</g>
</svg>
