<?xml version="1.0" standalone="no"?>
<!DOCTYPE svg PUBLIC "-//W3C//DTD SVG 20010904//EN"
 "http://www.w3.org/TR/2001/REC-SVG-20010904/DTD/svg10.dtd">
<svg version="1.0" xmlns="http://www.w3.org/2000/svg"
 width="900pt" height="900pt" viewBox="0 0 900 900"
 preserveAspectRatio="xMidYMid meet">

<g transform="translate(0.000000,900) scale(0.100000,-0.100000)"
fill="#916DA6" stroke="none">
<path d="M1775 8540 c-154 -18 -279 -109 -353 -255 -31 -62 -42 -135 -42 -270
l0 -125 -237 0 c-264 0 -339 -10 -426 -57 -68 -37 -148 -117 -181 -181 -60
-118 -56 55 -56 -2597 0 -2658 -4 -2485 57 -2596 39 -73 118 -145 202 -187
l75 -37 1497 -3 1496 -2 7 -38 c10 -60 7 -294 -4 -334 -45 -159 -536 -328
-1369 -469 -453 -76 -678 -184 -941 -448 -208 -210 -246 -290 -172 -363 l32
-33 571 -3 c637 -3 627 -4 655 64 26 62 12 109 -42 145 -28 18 -51 19 -467 19
l-439 0 58 52 c131 121 300 220 471 278 51 17 181 45 302 65 941 157 1438 344
1543 581 27 62 40 206 32 356 l-6 128 441 0 441 0 0 -188 c0 -222 11 -281 69
-357 159 -211 649 -379 1528 -524 329 -54 500 -129 723 -315 l85 -71 -1892 -5
-1893 -5 -31 -31 c-55 -55 -39 -145 32 -181 19 -10 456 -13 2027 -13 2192 0
2054 -4 2086 59 34 66 11 120 -119 271 -117 136 -288 271 -447 351 -178 89
-278 119 -602 175 -568 98 -893 184 -1131 299 -144 69 -195 114 -206 180 -10
61 -11 197 -2 287 l6 68 1481 0 1481 0 67 24 c122 43 201 116 261 243 l32 68
3 2470 c2 2711 7 2513 -56 2628 -32 61 -114 137 -182 172 -58 29 -175 57 -230
55 -19 -1 -124 -2 -232 -1 l-198 1 0 139 c0 109 -4 153 -19 200 -53 172 -198
290 -379 311 -97 11 -5314 11 -5407 0z m5445 -241 c56 -25 86 -53 113 -104 22
-39 22 -49 22 -465 l0 -425 -145 2 c-80 1 -1373 2 -2875 2 l-2730 1 5 432 c5
431 5 433 28 470 27 43 69 76 121 94 29 11 553 13 2726 13 2686 1 2690 1 2735
-20z m-5840 -2731 c0 -1375 4 -2108 11 -2137 38 -167 186 -309 354 -340 83
-16 5387 -15 5471 0 165 30 307 161 350 323 11 42 14 404 14 2149 l0 2097 243
0 c133 0 258 -4 277 -10 47 -13 106 -63 133 -113 l22 -42 0 -2441 0 -2441 -30
-49 c-19 -30 -49 -60 -79 -79 l-49 -30 -3586 -3 c-2565 -2 -3599 0 -3631 8
-64 16 -113 53 -145 111 l-27 51 1 2433 c0 1716 4 2441 12 2462 19 51 61 95
113 119 49 23 59 24 299 24 l247 0 0 -2092z m5980 -271 c0 -1982 5 -1849 -67
-1919 -76 -74 186 -68 -2804 -68 -1988 0 -2702 3 -2730 11 -47 14 -104 60
-127 102 -16 30 -17 151 -22 1845 l-5 1812 2878 0 2877 0 0 -1783z"/>
<path d="M4664 7911 c-63 -27 -86 -125 -41 -176 31 -36 78 -44 255 -45 165 0
206 9 236 51 27 39 21 103 -13 141 l-29 33 -194 2 c-106 1 -203 -2 -214 -6z"/>
<path d="M5579 7897 c-81 -54 -54 -181 42 -201 52 -10 336 -7 366 5 69 26 97
87 70 152 -26 61 -51 67 -260 67 -175 0 -186 -1 -218 -23z"/>
<path d="M6518 7903 c-29 -18 -58 -68 -58 -100 0 -33 39 -84 77 -99 56 -24
377 -16 414 9 56 38 63 127 14 176 -25 26 -26 26 -223 29 -173 2 -200 0 -224
-15z"/>
<path d="M2061 6304 c-38 -31 -48 -78 -28 -127 26 -60 51 -67 258 -67 l181 0
34 34 c37 37 45 85 23 129 -28 54 -40 57 -246 57 -191 0 -192 0 -222 -26z"/>
<path d="M2934 6312 c-30 -24 -44 -55 -44 -97 0 -29 8 -45 34 -71 l34 -34
1949 0 c1929 0 1948 0 1981 20 62 38 70 114 18 166 l-34 34 -1959 0 c-1840 0
-1959 -1 -1979 -18z"/>
<path d="M3384 5125 c-169 -37 -319 -157 -400 -320 -80 -164 -83 -339 -7 -505
70 -154 205 -272 368 -323 98 -30 252 -30 350 0 133 42 247 128 326 248 141
213 116 527 -56 714 -149 163 -368 233 -581 186z m195 -205 c203 -38 343 -234
311 -434 -19 -120 -101 -230 -210 -284 -50 -24 -65 -27 -165 -27 -106 0 -112
1 -173 34 -143 78 -223 239 -194 393 30 162 147 288 294 317 60 12 78 12 137
1z"/>
<path d="M4663 5125 c-106 -23 -189 -71 -279 -160 -148 -147 -207 -324 -173
-524 37 -212 202 -398 414 -464 98 -30 252 -30 350 0 186 58 332 203 391 388
36 113 36 247 0 361 -93 291 -399 465 -703 399z m195 -205 c204 -38 348 -237
313 -434 -22 -124 -100 -229 -210 -284 -50 -24 -67 -27 -161 -27 -99 0 -110 2
-172 33 -154 76 -237 255 -194 422 39 151 149 262 288 289 60 12 78 12 136 1z"/>
<path d="M5530 5081 l-30 -29 0 -512 0 -511 25 -24 c34 -35 112 -35 152 -1
l28 24 3 191 3 191 113 0 c158 0 238 30 317 117 65 71 84 125 84 233 0 82 -4
103 -26 150 -32 66 -96 133 -164 169 -49 25 -55 26 -263 29 l-212 3 -30 -30z
m432 -206 c57 -42 74 -124 38 -182 -34 -56 -62 -67 -182 -72 l-108 -3 0 142 0
142 113 -4 c93 -2 117 -6 139 -23z"/>
<path d="M2505 4981 c-16 -10 -119 -108 -227 -218 l-198 -199 0 -49 0 -48 203
-204 c111 -113 214 -211 229 -219 92 -48 195 45 154 139 -8 18 -82 99 -165
182 l-151 149 159 161 c174 176 186 195 155 260 -29 62 -101 83 -159 46z"/>
<path d="M6502 4987 c-42 -24 -56 -58 -53 -126 1 -18 47 -71 161 -186 l160
-161 -151 -149 c-83 -83 -157 -164 -165 -181 -39 -91 66 -186 154 -140 15 8
118 106 230 218 l202 204 0 49 0 49 -213 214 c-206 206 -215 214 -258 218 -26
3 -53 -1 -67 -9z"/>
<path d="M3011 757 c-86 -44 -83 -162 4 -204 29 -14 41 -14 75 -4 97 29 107
168 15 207 -42 17 -63 17 -94 1z"/>
</g>
</svg>
