<svg id="svg" version="1.1" xmlns="http://www.w3.org/2000/svg" style="display: block;" viewBox="0 0 898 899">
  

  <path
    d="M0 0 C190.08 0 380.16 0 576 0 C576.061875 58.884375 576.12375 117.76875 576.1875 178.4375 C576.21481201 197.04568115 576.24212402 215.6538623 576.27026367 234.82592773 C576.28381348 257.5098877 576.28381348 257.5098877 576.28633118 268.12171936 C576.28913153 275.54968607 576.30014768 282.97758528 576.31672668 290.40553284 C576.33581651 298.9710652 576.34450927 307.53653269 576.34033485 316.10208649 C576.33852679 320.48417335 576.34140304 324.86611521 576.35764539 329.2481755 C576.37224964 333.21237796 576.37296677 337.17633295 576.36270332 341.1405468 C576.36143316 342.57199789 576.36522086 344.00346453 576.37464774 345.43488514 C576.42765517 353.98798014 576.40154491 362.03239728 571.421875 369.3046875 C570.87015625 369.82289063 570.3184375 370.34109375 569.75 370.875 C569.20859375 371.40867187 568.6671875 371.94234375 568.109375 372.4921875 C562.12753259 376.76809708 556.85928088 377.43714977 549.71480751 377.38031673 C548.79601681 377.38497665 547.8772261 377.38963657 546.93059325 377.3944377 C543.84702645 377.4064034 540.76389898 377.39698602 537.68032837 377.38768005 C535.44918149 377.39185227 533.21803673 377.39732917 530.98689592 377.40399987 C524.85179332 377.41848786 518.71682467 377.41419922 512.58171463 377.40683305 C506.64598208 377.40259676 500.71027716 377.41240568 494.77455412 377.42174067 C481.88378044 377.44141313 468.99304696 377.44375387 456.10226186 377.43854547 C444.82011586 377.43398926 433.53798578 377.43458627 422.2558403 377.44038582 C420.74278627 377.44114268 419.22973223 377.44189866 417.71667819 377.44265376 C415.43666995 377.44379895 413.1566617 377.44494883 410.87665346 377.44611301 C389.67725681 377.4568191 368.47786546 377.46154215 347.27846718 377.45364285 C346.07960969 377.45319709 346.07960969 377.45319709 344.85653287 377.45274232 C338.36605607 377.45029336 331.87557933 377.44768178 325.3851026 377.44505819 C300.06823331 377.43495594 274.75143035 377.44331029 249.43457031 377.46655273 C220.99268198 377.49262188 192.55083358 377.50547416 164.10893285 377.49836498 C161.07655232 377.49764892 158.04417178 377.49697453 155.01179123 377.49632454 C154.26513913 377.49615473 153.51848703 377.49598492 152.74920911 377.49580997 C141.47566026 377.49350648 130.20214848 377.50148637 118.92860794 377.51461601 C106.10806336 377.52952071 93.28760567 377.53037925 80.46706297 377.5125451 C73.92424267 377.50381843 67.38155459 377.5019391 60.8387394 377.51719666 C54.85047018 377.5309883 48.86251001 377.52635157 42.87425892 377.50695742 C40.70675936 377.50318013 38.53923536 377.50616884 36.37175746 377.51656907 C33.42642341 377.52969786 30.48216249 377.51819179 27.53687477 377.50057125 C26.69456794 377.51022176 25.85226111 377.51987227 24.98442984 377.52981523 C18.31842181 377.44788423 12.11009689 375.87898304 7.10951904 371.25000223 C2.476991 366.19679914 0.75263025 361.63883664 0.73828697 354.74689007 C0.73082073 353.47903227 0.72335449 352.21117447 0.715662 350.90489674 C0.71743791 349.50118804 0.71939949 348.09747957 0.7215271 346.69377136 C0.7165314 345.20400692 0.71066269 343.7142452 0.70399475 342.2244873 C0.68816978 338.12150534 0.68478626 334.01859167 0.68335578 329.91558288 C0.67958319 325.4265505 0.66425712 320.93755498 0.6503849 316.4485445 C0.62518115 307.73146843 0.61021235 299.01440459 0.59880099 290.29730074 C0.58516343 280.21595458 0.55882695 270.13466803 0.5324707 260.05334473 C0.46915784 233.43142002 0.42314159 206.80945646 0.375 180.1875 C0.25125 120.725625 0.1275 61.26375 0 0 Z M43 80 C41.24538183 83.9083555 41.77591837 87.34020409 43.125 91.3125 C45.27211468 94.39003105 46.61136745 95.4125838 50 97 C52.86504812 97.31096629 55.50733631 97.46799571 58.37109375 97.46875 C59.17104263 97.47636353 59.97099152 97.48397705 60.79518127 97.49182129 C62.4819935 97.50259524 64.16887229 97.5054864 65.85571289 97.50097656 C68.42643213 97.50000419 70.99416439 97.54165187 73.56445312 97.5859375 C75.20832715 97.59114518 76.85221148 97.59383268 78.49609375 97.59375 C79.64010902 97.6183429 79.64010902 97.6183429 80.80723572 97.64343262 C86.51560826 97.57008195 89.00699466 96.08274878 93 92 C94.59561887 88.80876226 94.3799142 85.47254909 94 82 C92.36312815 78.41447119 91.31027417 77.20684945 88 75 C85.0969331 74.76748044 82.29227569 74.64793676 79.38671875 74.62890625 C78.53954788 74.61987778 77.69237701 74.6108493 76.8195343 74.60154724 C75.02661676 74.58704109 73.23364624 74.57815709 71.44067383 74.57446289 C68.7075789 74.56258725 65.97675758 74.51342617 63.24414062 74.46289062 C61.50001099 74.45342358 59.75586752 74.44618989 58.01171875 74.44140625 C57.19902023 74.42187393 56.38632172 74.40234161 55.54899597 74.38221741 C49.67192055 74.42856555 47.08742837 75.75169967 43 80 Z M130 80 C128.38570077 83.22859847 128.40429343 86.50993653 129 90 C130.73602105 93.02508145 132.83580137 95.41790069 136 97 C138.10485787 97.09886576 140.21293427 97.13102909 142.32011032 97.13422108 C142.97908617 97.13657331 143.63806201 97.13892554 144.31700683 97.14134905 C146.54670163 97.14805764 148.77633841 97.14758027 151.00604248 97.14717102 C152.61216549 97.15046849 154.21828766 97.15419381 155.82440877 97.1583125 C160.25492142 97.16835392 164.68542053 97.17205273 169.11594296 97.17470181 C173.88771582 97.17859852 178.6594779 97.18817727 183.4312439 97.19691467 C194.96335112 97.21669688 206.49545924 97.22674745 218.02757919 97.23564246 C223.45408872 97.24002243 228.88059727 97.24538998 234.30710602 97.25063133 C252.3388842 97.26764525 270.37066177 97.2821404 288.40244675 97.28938007 C293.08405305 97.29129007 297.76565934 97.29321038 302.44726562 97.29516602 C304.19271797 97.29589163 304.19271797 97.29589163 305.97343197 97.2966319 C324.83213945 97.3049358 343.69078357 97.33027807 362.54946336 97.36274669 C381.89762926 97.39578733 401.24576292 97.41382611 420.59395719 97.41702431 C431.46279149 97.41919218 442.3315334 97.42798113 453.20034027 97.45348549 C462.4550032 97.47515158 471.7095513 97.48326311 480.96423671 97.47351871 C485.68800525 97.46896213 490.41153668 97.4709388 495.13527298 97.49028015 C499.45823094 97.50782801 503.78077735 97.50698269 508.10373917 97.49138286 C509.66905666 97.48899399 511.23440203 97.49339624 512.79967675 97.50521151 C514.92579515 97.52026834 517.0504435 97.51070334 519.17652512 97.49498463 C520.35789008 97.49596144 521.53925504 97.49693824 522.75641894 97.49794465 C527.25927866 96.80667939 530.60477784 94.83915648 533.375 91.1875 C534.31707395 87.89024117 534.41260656 85.4187401 534 82 C532.21523759 79.02760759 530.14791945 76.57395973 527 75 C524.88381245 74.90022258 522.76439602 74.86714413 520.64586163 74.86298561 C519.98320944 74.86033378 519.32055724 74.85768196 518.63782468 74.85494977 C516.39563598 74.84723072 514.15350179 74.84669661 511.91130066 74.84609985 C510.29621519 74.84208695 508.68113073 74.83764902 507.06604749 74.8328203 C502.61080305 74.82082988 498.15556945 74.81520065 493.70031202 74.81063914 C488.90197178 74.80469247 484.10364458 74.79308039 479.30531311 74.78234863 C467.709439 74.75780451 456.11356056 74.74319523 444.51766846 74.73028857 C441.24442889 74.72657832 437.97118974 74.72260496 434.6979506 74.7185359 C414.38645076 74.69330287 394.07495028 74.67124233 373.76343822 74.65880775 C369.05672897 74.6558779 364.35001974 74.65291625 359.64331055 74.64990234 C358.47343211 74.64915629 357.30355368 74.64841024 356.09822438 74.64764158 C337.13536146 74.63498059 318.17259215 74.6017486 299.20977303 74.56010051 C279.75652145 74.51772424 260.30331786 74.49411777 240.85002023 74.48888719 C229.92139011 74.48546835 218.99290631 74.47365746 208.06432152 74.44078445 C198.75947592 74.41284202 189.45480663 74.40175904 180.14992233 74.41297992 C175.39989809 74.41818134 170.65024339 74.41518395 165.90027237 74.39051437 C161.55447176 74.36813164 157.20930849 74.3686755 152.86349753 74.38771825 C151.28877292 74.39053375 149.71400609 74.38483422 148.13934972 74.36990531 C146.00267161 74.3508816 143.86828567 74.36252746 141.7316618 74.38196754 C140.54384159 74.38061102 139.35602138 74.37925449 138.13220662 74.37785685 C134.07802327 75.18313016 132.5974114 76.8634022 130 80 Z M147.9140625 212.17578125 C137.11139496 224.82028291 131.22304873 240.10698379 131.72265625 256.75390625 C133.0551017 272.34914803 139.7859319 287.97569679 151.72265625 298.37109375 C165.18851962 308.95265606 180.71785839 314.5690947 198 313 C215.27442989 310.77556645 228.81308799 302.94590474 239.8125 289.5625 C249.50835483 276.42176498 253.12073599 261.72302744 251.375 245.5625 C248.83120001 229.08676231 240.91630856 215.01512746 227.3984375 205.08984375 C221.55472082 201.21323733 215.66582188 198.18174104 209 196 C208.319375 195.77441406 207.63875 195.54882812 206.9375 195.31640625 C186.08078407 189.58870964 162.6950525 196.75815685 147.9140625 212.17578125 Z M272.8671875 216.32421875 C262.73142295 228.54417731 258.66011126 244.31764022 260 260 C262.16374306 276.04288772 270.01060898 290.73930435 282.75 300.75 C296.6682445 310.66200043 312.36673645 314.75555946 329.3671875 312.56640625 C346.15640193 309.55631324 359.39270717 300.97379569 369.47265625 287.3125 C378.72942794 273.29713212 381.55893805 258.01684929 378.78515625 241.484375 C375.05636248 224.9366932 365.94875164 211.9334408 351.75 202.75 C324.04952268 186.35518261 293.88808515 193.41683029 272.8671875 216.32421875 Z M391 201 C389.861798 203.27640399 389.86504768 204.54983602 389.84609985 207.07917786 C389.83749939 207.9329451 389.82889893 208.78671234 389.82003784 209.66635132 C389.81577789 210.60508087 389.81151794 211.54381042 389.80712891 212.51098633 C389.79895142 213.49811111 389.79077393 214.4852359 389.78234863 215.50227356 C389.75747408 218.77885323 389.74097402 222.05538954 389.7265625 225.33203125 C389.72123882 226.44927771 389.71591515 227.56652416 389.71043015 228.71762657 C389.68369063 234.63018483 389.66431757 240.54272191 389.64990234 246.45532227 C389.63324529 252.56896933 389.5884604 258.6820783 389.5375309 264.79552174 C389.50391201 269.490663 389.49233079 274.18567566 389.48667526 278.88092613 C389.47994885 281.13482466 389.46469099 283.38871433 389.44078445 285.64249611 C389.40924361 288.79572326 389.4090798 291.94748727 389.41650391 295.10083008 C389.3918959 296.49981537 389.3918959 296.49981537 389.36679077 297.92706299 C389.41059364 302.46731558 389.52263159 304.38240787 392.38021851 308.07939148 C396.01139963 310.7414751 398.26299207 310.65051531 402.62109375 310.4296875 C405.98198103 309.82263068 407.75510177 308.53456252 410 306 C411.25282725 302.24151826 411.12381835 298.74509081 411.09765625 294.83203125 C411.09553383 293.63981209 411.09553383 293.63981209 411.09336853 292.42350769 C411.08777378 289.88646675 411.07522228 287.34951425 411.0625 284.8125 C411.05748432 283.09179815 411.05292153 281.37109492 411.04882812 279.65039062 C411.03780607 275.4335597 411.02054506 271.21679484 411 267 C411.67466309 267.02094727 412.34932617 267.04189453 413.04443359 267.06347656 C416.15446567 267.14754586 419.26425759 267.19894444 422.375 267.25 C423.43589844 267.28351563 424.49679687 267.31703125 425.58984375 267.3515625 C435.265016 267.47027627 443.3569519 265.11443848 451 259 C458.70312499 251.41538462 463.20808542 243.48712325 463.375 232.5625 C463.43492427 223.59417283 461.14873247 215.92363484 455.75 208.625 C447.28171684 200.5416388 438.30378351 196.52456228 426.64453125 196.56640625 C425.7798674 196.5611644 424.91520355 196.55592255 424.02433777 196.55052185 C422.21000232 196.54413879 420.39562529 196.54539007 418.58129883 196.55395508 C415.80931394 196.56250983 413.03936237 196.53358162 410.26757812 196.50195312 C408.49739645 196.50034191 406.72721114 196.50091711 404.95703125 196.50390625 C404.13298294 196.49267227 403.30893463 196.48143829 402.45991516 196.46986389 C397.38492548 196.53132314 394.67078892 197.16184852 391 201 Z M78.13671875 220.6328125 C77.3041304 221.46585907 76.47154205 222.29890564 75.61372375 223.15719604 C73.86242073 224.91151046 72.11353901 226.66824496 70.36694336 228.42724609 C67.68463757 231.12788199 64.99434191 233.82035655 62.30273438 236.51171875 C60.60108847 238.21827747 58.89990039 239.92529284 57.19921875 241.6328125 C55.98838875 242.84531174 55.98838875 242.84531174 54.75309753 244.08230591 C54.01175064 244.83003265 53.27040375 245.5777594 52.5065918 246.34814453 C51.52446968 247.33598434 51.52446968 247.33598434 50.52250671 248.34378052 C47.69738855 251.41701212 47.3178341 254.29311409 47.4543457 258.36914062 C48.12994852 261.62654371 49.24216331 262.86887303 51.51953125 265.28125 C52.33679688 266.15007812 53.1540625 267.01890625 53.99609375 267.9140625 C54.99539576 268.94465146 55.99688434 269.97312266 57 271 C57.87700562 271.90153809 57.87700562 271.90153809 58.77172852 272.82128906 C62.86256103 277.01545457 66.98807187 281.1738428 71.13110352 285.31640625 C73.33052313 287.51804128 75.5217799 289.72759926 77.71289062 291.9375 C79.11669887 293.34423778 80.5209786 294.75050525 81.92578125 296.15625 C82.90240471 297.14365173 82.90240471 297.14365173 83.89875793 298.15100098 C84.51007065 298.75923706 85.12138336 299.36747314 85.7512207 299.99414062 C86.28366898 300.52801392 86.81611725 301.06188721 87.36470032 301.61193848 C90.3355805 304.13365637 92.54205967 304.95836906 96.4375 305.3125 C100.34554834 304.96968874 102.03904287 304.54971309 105 302 C106.94238233 298.56845789 107.95708977 296.00839034 108.125 292.0625 C104.75494428 282.88845943 94.42528729 275.30914805 87.5625 268.5 C86.4379167 267.38044368 85.31356595 266.26065371 84.18945312 265.140625 C81.46230656 262.42438466 78.73204093 259.71131708 76 257 C79.67902468 252.48483334 83.61398709 248.32366009 87.765625 244.2421875 C88.28797729 243.72771057 88.81032959 243.21323364 89.34851074 242.6831665 C91.53566356 240.53252419 93.72558558 238.38488982 95.92480469 236.24658203 C97.54521905 234.66855946 99.15597727 233.08118099 100.765625 231.4921875 C101.26145081 231.0149826 101.75727661 230.53777771 102.26812744 230.04611206 C105.09884987 227.23660119 106.91389089 224.85687652 108 221 C107.91982499 216.51019962 107.49221191 214.58055763 104.5625 211.125 C94.07478537 202.42787079 85.42399777 213.27984167 78.13671875 220.6328125 Z M487 211 C484.78333124 214.32500313 484.22862087 216.03723828 484 220 C485.99218607 226.05720618 489.10030673 229.64226727 493.63671875 234.02734375 C494.27615921 234.66112442 494.91559967 235.29490509 495.57441711 235.94789124 C497.60285366 237.95408068 499.64479828 239.94584776 501.6875 241.9375 C503.07188248 243.30180254 504.45535607 244.66702799 505.83789062 246.03320312 C509.21483857 249.36623858 512.60396645 252.68641754 516 256 C512.27758409 260.46534323 508.43261968 264.66869712 504.234375 268.6875 C503.16868416 269.72596079 502.1035973 270.76504168 501.0390625 271.8046875 C499.39022638 273.41021091 497.73800193 275.01148037 496.07519531 276.60253906 C494.44988883 278.1609605 492.84122656 279.73508531 491.234375 281.3125 C490.73854919 281.77938232 490.24272339 282.24626465 489.73187256 282.72729492 C486.25173804 286.18021119 484.86338357 289.19508273 484 294 C485.47545221 299.12068707 487.32219956 302.34215884 492 305 C496.71105082 305.68524376 499.37176829 305.11903728 503.24154663 302.40533447 C507.05611022 299.3567818 510.43036385 295.83105123 513.86328125 292.3671875 C514.6958696 291.53414093 515.52845795 290.70109436 516.38627625 289.84280396 C518.13757927 288.08848954 519.88646099 286.33175504 521.63305664 284.57275391 C524.31536243 281.87211801 527.00565809 279.17964345 529.69726562 276.48828125 C531.39891153 274.78172253 533.10009961 273.07470716 534.80078125 271.3671875 C535.60800125 270.55885468 536.41522125 269.75052185 537.24690247 268.91769409 C537.98824936 268.16996735 538.72959625 267.4222406 539.4934082 266.65185547 C540.14815628 265.99329559 540.80290436 265.33473572 541.47749329 264.65621948 C544.35210992 261.52914226 544.53934994 258.65721101 544.44830322 254.53358459 C543.91709647 251.53147089 543.0470718 250.43101372 540.98339844 248.22045898 C540.34559448 247.53080048 539.70779053 246.84114197 539.05065918 246.13058472 C538.37394165 245.42749176 537.69722412 244.7243988 537 244 C536.35260864 243.32421906 535.70521729 242.64843811 535.03820801 241.95217896 C532.96418049 239.81666804 530.86898696 237.70426895 528.765625 235.59765625 C528.00578308 234.83448593 527.24594116 234.07131561 526.46307373 233.28501892 C524.87105744 231.68797678 523.27771754 230.09225305 521.68310547 228.49780273 C519.2376743 226.05016317 516.80037844 223.5946063 514.36328125 221.13867188 C512.81038486 219.58284508 511.25701631 218.02748937 509.703125 216.47265625 C508.97498596 215.7373317 508.24684692 215.00200714 507.49664307 214.24440002 C506.81873718 213.56957077 506.1408313 212.89474152 505.44238281 212.19946289 C504.84838684 211.6040419 504.25439087 211.00862091 503.64239502 210.39515686 C498.63022813 206.1374972 491.8795815 207.23575142 487 211 Z "
    transform="translate(160,191)" style="fill: #FFFFFF;" />
  <path
    d="M0 0 C0.90218215 -0.00175304 1.80436429 -0.00350607 2.73388529 -0.00531223 C5.74280872 -0.00994678 8.75168329 -0.00751333 11.76060867 -0.00507832 C13.94540612 -0.00694757 16.13020323 -0.00924873 18.31499982 -0.01194364 C24.30821566 -0.01805386 30.30141753 -0.01792896 36.29463577 -0.01674926 C42.76241139 -0.01654506 49.23018255 -0.02206585 55.69795609 -0.02680683 C68.3653523 -0.03532638 81.03274453 -0.03787446 93.70014331 -0.03841921 C103.997269 -0.03887913 114.2943932 -0.04093942 124.5915184 -0.04411983 C127.55780832 -0.04501741 130.52409824 -0.04590722 133.49038815 -0.04679471 C134.22785964 -0.04701576 134.96533112 -0.04723681 135.72515023 -0.04746456 C156.4626407 -0.05361685 177.20013065 -0.05756531 197.93762207 -0.05712128 C199.10987615 -0.05709791 199.10987615 -0.05709791 200.30581213 -0.05707407 C204.26660351 -0.05699096 208.22739488 -0.05689192 212.18818626 -0.05678936 C213.36808305 -0.05675944 213.36808305 -0.05675944 214.57181614 -0.05672892 C216.16250783 -0.05668848 217.75319952 -0.05664669 219.34389121 -0.05660353 C244.09065202 -0.05599082 268.83739914 -0.06349732 293.58415604 -0.07717609 C321.4005788 -0.09254537 349.21699257 -0.10114182 377.03341985 -0.10021287 C380.00096718 -0.10013824 382.96851452 -0.10008954 385.93606186 -0.10005856 C386.66672269 -0.1000469 387.39738352 -0.10003525 388.15018558 -0.10002324 C399.89438801 -0.0999925 411.63857851 -0.10637084 423.3827774 -0.11499082 C435.19103198 -0.12347842 446.99926771 -0.12427738 458.8075237 -0.1178815 C465.20108459 -0.11461652 471.59460238 -0.11455892 477.98815918 -0.12323475 C483.84572447 -0.13110142 489.70321249 -0.12966652 495.56077591 -0.12095062 C497.67511352 -0.11941602 499.7894569 -0.12123026 501.9037877 -0.12681069 C521.78771244 -0.17579796 539.10357956 0.11010037 554.34001541 14.7106657 C564.43894883 25.85369562 566.00085382 37.67991044 565.71892166 52.25363445 C565.70383598 53.60518191 565.69015449 54.9567458 565.67790604 56.30832195 C565.6428289 59.58218816 565.59367263 62.85519125 565.53142166 66.12863445 C566.40893333 66.1186417 566.40893333 66.1186417 567.30417252 66.10844707 C573.45351478 66.04150963 579.60275173 65.9965944 585.75236893 65.96383953 C588.04017219 65.94885498 590.32794723 65.92846033 592.61565018 65.90231609 C611.54933817 65.69152847 628.58930988 65.65673011 643.34392166 79.25363445 C651.78452496 88.20853975 655.85367498 99.49514383 655.78869057 111.65860653 C655.79219664 112.4957561 655.79570272 113.33290568 655.79931504 114.19542342 C655.80862051 117.00120947 655.80370789 119.80678757 655.7988472 122.61258221 C655.80258388 124.64431227 655.80718548 126.6760409 655.81257784 128.70776725 C655.82482097 134.2917074 655.82454582 139.8755877 655.82218909 145.45953822 C655.82178126 151.48150447 655.83281687 157.50345145 655.84230423 163.52540874 C655.85892237 175.32392075 655.86444006 187.1224178 655.86552899 198.92093906 C655.86644827 208.51068916 655.870566 218.10043278 655.87693024 227.69018078 C655.87872534 230.45116289 655.88050497 233.21214501 655.88227999 235.97312713 C655.88294314 237.00272845 655.88294314 237.00272845 655.88361968 238.05312979 C655.89592729 257.35917737 655.90382089 276.6652227 655.90293312 295.97127438 C655.90290196 296.69908497 655.90287081 297.42689556 655.9028387 298.17676102 C655.90267249 301.86555644 655.90247441 305.55435186 655.90226929 309.24314728 C655.90220945 310.34204684 655.90220945 310.34204684 655.90214841 311.46314639 C655.90206753 312.94464157 655.90198394 314.42613675 655.90189763 315.90763193 C655.90067221 338.95544576 655.9156838 362.00320074 655.94304276 385.05099773 C655.97377248 410.9490404 655.99097471 436.84704441 655.98911631 462.74510646 C655.98896705 465.50734599 655.98886964 468.26958553 655.98880768 471.03182507 C655.98877272 472.05201411 655.98877272 472.05201411 655.98873705 473.09281304 C655.98867553 484.03162446 656.00144016 494.97038474 656.01867221 505.90918096 C656.0356366 516.90561289 656.03725344 527.90197941 656.02445357 538.89841875 C656.01791781 544.85418135 656.0178289 550.80975883 656.03516006 556.76550388 C656.05086855 562.2197268 656.04804958 567.67361744 656.0305918 573.12783214 C656.02751704 575.09887031 656.03117215 577.06993314 656.04231195 579.04094222 C656.14251246 598.03050143 656.14251246 598.03050143 651.53142166 607.12863445 C651.07605321 608.02816884 650.62068476 608.92770323 650.15151727 609.85449624 C644.3410687 620.79306327 635.05905247 627.04955072 623.62906933 631.17659092 C618.30931661 632.6602587 612.89533946 632.39727049 607.41437149 632.36914349 C605.58617745 632.37170676 605.58617745 632.37170676 603.7210502 632.37432182 C600.35051093 632.37704076 596.98020531 632.37081217 593.60969436 632.3607657 C589.9703834 632.35211214 586.33107938 632.3550527 582.69176102 632.35657024 C576.39053076 632.35761789 570.089342 632.35135387 563.78812218 632.34009457 C554.67767211 632.32382622 545.56724207 632.31863019 536.45677906 632.31611858 C521.67492655 632.31174358 506.89309615 632.29843974 492.11125565 632.27951336 C477.75383489 632.26114953 463.39642015 632.24699549 449.03899002 632.23849773 C447.71104209 632.23770956 447.71104209 632.23770956 446.35626692 632.23690547 C441.91489224 632.23429536 437.47351751 632.23176795 433.03214276 632.22928166 C396.19855346 632.20855521 359.36498928 632.17333497 322.53142166 632.12863445 C322.48153762 636.52111626 322.44547585 640.91344269 322.42155838 645.30612469 C322.41157496 646.79671385 322.39798344 648.28728381 322.38054276 649.77780437 C321.48963775 663.11509313 321.48963775 663.11509313 326.06547928 674.91388226 C354.71555069 701.47324656 408.09984472 706.8508846 445.14860916 713.1325407 C446.15579498 713.30397594 447.1629808 713.47541119 448.20068741 713.65204144 C453.16185173 714.49346961 458.12488253 715.31787428 463.09367752 716.11300945 C493.67833128 721.11911799 521.81117388 731.83722629 545.53142166 752.12863445 C546.06783279 752.58528484 546.60424393 753.04193523 547.15690994 753.51242352 C573.58105088 776.24477833 573.58105088 776.24477833 574.84392166 789.37863445 C574.47279186 793.8321921 573.42827893 795.76201655 570.53142166 799.12863445 C565.75443971 801.87788407 560.59160109 801.40708217 555.2473793 801.38311005 C554.19631638 801.38631652 553.14525346 801.389523 552.06234014 801.39282665 C548.51690445 801.40117195 544.97163571 801.39518649 541.42619705 801.38933086 C538.86806788 801.39234947 536.3099396 801.39623748 533.75181293 801.40092343 C528.17784148 801.40969659 522.60390676 801.41099359 517.02993011 801.40742016 C508.74134604 801.40212038 500.45279763 801.4082011 492.16421744 801.41650309 C476.50133353 801.43175952 460.83846576 801.43344651 445.17557597 801.43098006 C433.08334326 801.42914892 420.99111586 801.43090324 408.89888382 801.43520451 C407.16292129 801.4358069 405.42695876 801.4364081 403.69099623 801.43700811 C401.07522715 801.43791534 398.45945807 801.438824 395.843689 801.43974046 C371.51777245 801.44817238 347.1918579 801.45250399 322.86594009 801.44833374 C321.9485229 801.44817736 321.03110572 801.44802099 320.08588801 801.44785987 C315.43582139 801.44705406 310.78575479 801.44620829 306.13568819 801.44534657 C305.21213328 801.44517548 304.28857837 801.4450044 303.33703695 801.44482812 C301.46938447 801.44448147 299.60173198 801.44413294 297.7340795 801.44378254 C268.66488729 801.43842376 239.5957254 801.44635922 210.52653885 801.46481609 C177.8840035 801.48551741 145.24148694 801.49626246 112.59894466 801.49224061 C109.12061628 801.49184525 105.64228789 801.4914837 102.1639595 801.49114323 C100.87923398 801.49100713 100.87923398 801.49100713 99.56855441 801.49086828 C86.62193432 801.48970082 73.67533316 801.49636181 60.7287178 801.50695515 C46.01116214 801.51898508 31.29364827 801.52059158 16.576092 801.50816498 C8.33425961 801.5015181 0.09252703 801.50320938 -8.14929746 801.51675349 C-14.29323278 801.52592701 -20.4370571 801.51952535 -26.58098423 801.5069057 C-29.07417769 801.50423646 -31.56738266 801.50669424 -34.06056488 801.51464156 C-37.43540719 801.52465727 -40.80971579 801.516403 -44.18453598 801.50336456 C-45.16466585 801.51067391 -46.14479572 801.51798325 -47.15462649 801.5255141 C-52.10952052 801.4855169 -55.42365944 801.3182924 -59.46857834 798.12863445 C-60.33482834 797.54082195 -60.33482834 797.54082195 -61.21857834 796.94113445 C-63.29297959 793.93325264 -63.56402519 790.68743866 -63.46857834 787.12863445 C-60.21835935 777.58111616 -51.22642087 769.35365903 -44.46857834 762.12863445 C-43.23494553 760.79638836 -43.23494553 760.79638836 -41.97639084 759.4372282 C-17.24799511 733.64485106 15.94122065 721.23078534 50.58443069 715.71506023 C55.61163415 714.91086937 60.63002821 714.05506708 65.64860916 713.19894695 C66.65587555 713.02744122 67.66314194 712.85593548 68.70093155 712.6792326 C133.26838766 704.15478722 133.26838766 704.15478722 186.53142166 673.12863445 C188.51242289 668.35010794 188.79842278 663.98822895 188.72673416 658.88644695 C188.72390427 658.11807507 188.72107437 657.34970318 188.71815872 656.55804729 C188.70703477 654.12307925 188.68194526 651.68848984 188.65642166 649.25363445 C188.64638177 647.59478563 188.63725769 645.93593099 188.62907791 644.27707195 C188.60712103 640.22744866 188.57264572 636.17810558 188.53142166 632.12863445 C187.90889185 632.12977361 187.28636203 632.13091277 186.64496768 632.13208646 C149.73536595 632.19924459 112.82577328 632.25070622 75.91612295 632.28183044 C71.4827133 632.28558249 67.04930378 632.28946546 62.61589432 632.29342937 C61.29199602 632.29460977 61.29199602 632.29460977 59.94135229 632.29581401 C45.65706522 632.30886209 31.37281442 632.33251265 17.08854885 632.36009284 C2.42772195 632.38816367 -12.23308598 632.40481426 -26.89393866 632.41089994 C-35.93789187 632.4150129 -44.98174253 632.42799573 -54.02566417 632.45238385 C-60.23039505 632.46826175 -66.43507305 632.47303016 -72.63982277 632.46913859 C-76.21775272 632.46722023 -79.79550365 632.47012699 -83.37340164 632.48625088 C-87.25857615 632.503631 -91.14351942 632.49757927 -95.02872849 632.489398 C-96.15132077 632.49813653 -97.27391305 632.50687505 -98.43052328 632.51587838 C-109.75946076 632.45149239 -118.11289944 629.38252017 -127.46857834 623.12863445 C-128.35545334 622.55113445 -129.24232834 621.97363445 -130.15607834 621.37863445 C-138.57853439 613.18381234 -144.19091533 602.19440457 -144.59737951 590.38711834 C-144.60426423 588.8956984 -144.60568179 587.40424718 -144.60279942 585.91281414 C-144.60632776 584.67158034 -144.60632776 584.67158034 -144.60992739 583.40527111 C-144.61660749 580.62033742 -144.61615946 577.83545048 -144.61574936 575.05050945 C-144.6190486 573.03843108 -144.62277429 571.02635337 -144.62689084 569.0142765 C-144.63691213 563.47530064 -144.64062784 557.93633562 -144.64328015 552.39735198 C-144.64718281 546.42712395 -144.65676118 540.45690449 -144.66549301 534.48668194 C-144.68432418 520.74543358 -144.69451369 507.00418369 -144.70295369 493.26292597 C-144.7071616 486.47069425 -144.71238342 479.67846341 -144.71763822 472.88623243 C-144.73552826 449.63031944 -144.7505235 426.3744062 -144.75795841 403.11848736 C-144.75843317 401.65867323 -144.75890906 400.1988591 -144.75938607 398.73904496 C-144.75962245 398.01511676 -144.75985883 397.29118855 -144.76010237 396.54532313 C-144.76130355 392.87761831 -144.762519 389.20991349 -144.76374435 385.54220867 C-144.7639845 384.81434489 -144.76422465 384.08648112 -144.76447208 383.33656086 C-144.77236304 359.74343434 -144.79579074 336.15035813 -144.8283003 312.55725357 C-144.86261749 287.60668333 -144.88231132 262.65614251 -144.88560265 237.70554829 C-144.88602018 234.96514796 -144.88649974 232.22474765 -144.88702583 229.48434734 C-144.88714902 228.80959576 -144.88727222 228.13484418 -144.88739914 227.43964557 C-144.88972886 216.59223852 -144.90537611 205.74489001 -144.92586768 194.8975038 C-144.94614886 183.98816925 -144.95125939 173.07890816 -144.94209705 162.16955847 C-144.93755127 156.26216405 -144.93945503 150.35495926 -144.95885849 144.44759083 C-144.97648263 139.03513165 -144.97549821 133.62300054 -144.9599612 128.21053791 C-144.95758402 126.25689839 -144.96191431 124.30323619 -144.97378985 122.34963131 C-145.05684474 107.77907671 -144.02015925 94.04900743 -134.46857834 82.12863445 C-132.98357834 81.63363445 -132.98357834 81.63363445 -131.46857834 81.12863445 C-131.46857834 80.46863445 -131.46857834 79.80863445 -131.46857834 79.12863445 C-130.80857834 79.12863445 -130.14857834 79.12863445 -129.46857834 79.12863445 C-129.13857834 78.13863445 -128.80857834 77.14863445 -128.46857834 76.12863445 C-126.20295334 74.40988445 -126.20295334 74.40988445 -123.21857834 72.62863445 C-121.78771896 71.7469157 -121.78771896 71.7469157 -120.32795334 70.84738445 C-107.14648489 64.43688331 -92.40021204 65.7783502 -78.15607834 65.94113445 C-75.8546548 65.95620822 -73.55322172 65.96989186 -71.25178146 65.98215008 C-65.65716946 66.01494261 -60.06291931 66.06492833 -54.46857834 66.12863445 C-54.48428879 65.36832928 -54.49999924 64.6080241 -54.51618576 63.82467937 C-54.57921488 60.3219092 -54.61778286 56.81925896 -54.65607834 53.31613445 C-54.68121506 52.12052898 -54.70635178 50.92492352 -54.73225021 49.69308758 C-54.83204822 37.48446522 -52.45733594 28.16421494 -45.46857834 18.12863445 C-44.80728928 17.17150555 -44.80728928 17.17150555 -44.13264084 16.1950407 C-37.75378642 7.91727876 -27.48651468 2.26437527 -17.18060844 0.80454348 C-11.43652849 0.23391338 -5.77056341 -0.01446329 0 0 Z M-27.46857834 31.12863445 C-31.04709455 36.59784124 -32.05681748 41.3917065 -32.01447678 47.83957195 C-32.02481445 48.66979366 -32.03515213 49.50001537 -32.04580307 50.35539532 C-32.07506038 53.07167703 -32.07672659 55.78720808 -32.07795334 58.50363445 C-32.09294655 60.39793587 -32.10967609 62.29222427 -32.1280632 64.18649578 C-32.17162082 69.15124416 -32.19171008 74.11581622 -32.20679855 79.08072186 C-32.22641149 84.15539201 -32.26837677 89.22987293 -32.30842209 94.3044157 C-32.38359862 104.24576341 -32.43396605 114.1870685 -32.46857834 124.12863445 C22.33602692 124.24108614 77.14063449 124.35234794 131.94525528 124.45698833 C133.16094682 124.45931003 133.16094682 124.45931003 134.40119779 124.46167862 C152.01251869 124.49530476 169.62384 124.52870819 187.23516175 124.56188205 C195.87110589 124.57815065 204.50704993 124.59446848 213.14299393 124.61081219 C214.00239772 124.61243779 214.86180151 124.61406339 215.74724783 124.61573825 C243.62880431 124.66850059 271.5103531 124.72451753 299.39189977 124.78221302 C328.03151499 124.84146007 356.67113477 124.89744209 385.3107644 124.94928554 C389.35113982 124.95660096 393.39151517 124.9639539 397.43189049 124.97132969 C398.22713459 124.97278026 399.02237869 124.97423084 399.8417211 124.97572537 C412.66950787 124.9992207 425.49728515 125.02618238 438.32506225 125.05442383 C451.20521927 125.08270723 464.08537913 125.10737809 476.96555024 125.12830562 C484.62828683 125.14086724 492.29100594 125.15625438 499.95372849 125.17559392 C505.65966115 125.18969097 511.3655922 125.1986236 517.07153774 125.20546555 C519.39186661 125.20907424 521.7121935 125.21440953 524.03251415 125.22156281 C527.16448495 125.23097663 530.29640273 125.23434249 533.42838573 125.23606491 C534.80819316 125.24241195 534.80819316 125.24241195 536.21587548 125.24888721 C540.19022183 125.64530185 540.19022183 125.64530185 543.53142166 124.12863445 C543.64776066 121.6259045 543.69941593 119.15039147 543.70842361 116.64645672 C543.71499481 115.86258083 543.72156601 115.07870495 543.72833633 114.27107525 C543.74813209 111.66239617 543.7597512 109.05377506 543.76970291 106.4450407 C543.77377844 105.55376917 543.77785397 104.66249763 543.78205299 103.74421787 C543.80294918 99.01892482 543.81723051 94.29366104 543.82658768 89.56833172 C543.83760673 84.70286358 543.8719438 79.83785856 543.91175938 74.97255325 C543.93801504 71.22082498 543.94628786 67.46920497 543.94986916 63.71739292 C543.95471895 61.92537559 543.96628674 60.13336258 543.98490715 58.34143543 C544.46629317 43.28825347 544.46629317 43.28825347 537.83972549 30.23948956 C531.46509009 24.14979563 524.79130782 22.68024386 516.2746706 22.75111103 C515.35895705 22.74675071 514.44324349 22.74239039 513.49978104 22.73789793 C510.42668647 22.72693642 507.35404005 22.73736808 504.28094864 22.74768353 C502.05733906 22.74422732 499.83373119 22.73946302 497.61012691 22.73350179 C491.49589249 22.72095697 485.38179821 22.72717809 479.26756322 22.73646045 C473.35203396 22.74254058 467.43653469 22.73456074 461.52100957 22.72701835 C448.67440792 22.71121853 435.82785102 22.71259139 422.98124512 22.72125509 C411.73838776 22.72880004 400.49554682 22.73077267 389.25268745 22.72718716 C388.50708872 22.726958 387.76148998 22.72672885 386.99329734 22.72649275 C383.96670185 22.72555874 380.94010638 22.72460354 377.91351091 22.72361346 C349.51724571 22.71443493 321.12100902 22.7227591 292.72474822 22.73890415 C267.49517032 22.75313966 242.26563784 22.75186848 217.03606033 22.73752117 C188.69343317 22.72145745 160.3508312 22.71508731 132.00820011 22.72435796 C128.98679062 22.72532012 125.96538113 22.72625864 122.94397163 22.72718716 C122.20001841 22.72742439 121.45606519 22.72766162 120.68956793 22.72790604 C109.45434094 22.73131868 98.21913216 22.72732719 86.9839077 22.7197485 C74.20836 22.71117377 61.43286407 22.71330862 48.65732283 22.72959073 C42.13691917 22.73748383 35.61660777 22.74054727 29.09620476 22.73064327 C23.12962048 22.72171746 17.16321418 22.72659454 11.19664609 22.74257593 C9.03589462 22.74593269 6.87512817 22.74420965 4.71438629 22.73694856 C1.7807141 22.72784479 -1.15234602 22.73716415 -4.08598614 22.75111103 C-4.92771129 22.74408753 -5.76943644 22.73706403 -6.63666841 22.7298277 C-14.9145614 22.80864596 -21.53700117 25.06224871 -27.46857834 31.12863445 Z M-118.03107834 98.25363445 C-121.17485339 102.83125592 -121.60540489 106.44575998 -121.67191696 111.96084881 C-121.68161542 112.66616702 -121.69131387 113.37148523 -121.70130622 114.09817672 C-121.73270004 116.49208485 -121.75678133 118.88600677 -121.78059006 121.28000164 C-121.80104094 123.02181821 -121.82174594 124.76363181 -121.84268188 126.50544262 C-121.89897136 131.35859874 -121.94742417 136.21180484 -121.9935441 141.06506729 C-122.0235137 144.20144899 -122.05500579 147.33781274 -122.08670807 150.47417736 C-122.68357193 210.47186344 -122.62065828 270.47279244 -122.59804019 330.47273952 C-122.59357727 342.54017009 -122.59442041 354.60759077 -122.59894943 366.67502117 C-122.61114587 400.70596405 -122.60284334 434.7366885 -122.52394104 468.7675581 C-122.52228122 469.48375681 -122.5206214 470.19995553 -122.51891129 470.93785724 C-122.51225807 473.79883442 -122.50559748 476.65981158 -122.49877772 479.52078837 C-122.47466231 489.7104781 -122.46364603 499.90009786 -122.46064377 510.08981609 C-122.45692853 520.99431575 -122.43229317 531.89850363 -122.37784612 542.80287337 C-122.35115378 548.21736211 -122.33346831 553.63144213 -122.34162903 559.04600048 C-122.3486742 563.94860584 -122.32816292 568.85028015 -122.28516436 573.75269508 C-122.27451211 575.50718001 -122.27381813 577.26176104 -122.2843318 579.0162468 C-122.33561671 588.58487987 -122.07160108 596.52369246 -115.46857834 604.12863445 C-107.96301313 610.51634952 -99.83504577 610.41969591 -90.45034599 610.38311005 C-89.23608989 610.38631652 -88.02183379 610.389523 -86.77078205 610.39282665 C-83.39779549 610.39970152 -80.02502922 610.39762112 -76.65205493 610.39177092 C-72.98345397 610.38760123 -69.31487334 610.39500223 -65.64627731 610.40092343 C-59.21566552 610.40969114 -52.78508558 610.41099552 -46.3544693 610.40742016 C-36.79189361 610.40211747 -27.22934881 610.40820408 -17.66677648 610.41650309 C0.40463935 610.43175507 18.47604118 610.43344693 36.54746209 610.43098006 C50.5007873 610.42914842 64.45410792 610.4309043 78.40743256 610.43520451 C80.41108075 610.4358069 82.41472894 610.4364081 84.41837714 610.43700811 C87.4375683 610.43791535 90.45675947 610.43882401 93.47595063 610.43974046 C121.55211878 610.44817182 149.62828519 610.45250441 177.70445442 610.44833374 C178.76319329 610.44817736 179.82193216 610.44802099 180.91275402 610.44785987 C186.27903586 610.44705407 191.64531769 610.4462083 197.01159953 610.44534657 C198.07738717 610.44517548 199.14317482 610.4450044 200.24125906 610.44482812 C202.39654107 610.44448147 204.55182307 610.44413294 206.70710508 610.44378254 C240.24767543 610.43842463 273.7882195 610.44635698 307.32878494 610.46481609 C344.99976727 610.48552404 382.67073331 610.49626113 420.34172165 610.49224061 C424.35707418 610.49184525 428.37242671 610.49148371 432.38777924 610.49114323 C433.37648267 610.49105249 434.3651861 610.49096176 435.38385025 610.49086828 C450.32041608 610.48970148 465.25696549 610.49635691 480.19352722 610.50695515 C497.1770541 610.51899341 514.16054476 610.52058196 531.14407216 610.50816498 C540.65148639 610.50152534 550.15881406 610.50319286 559.6662214 610.51675349 C566.01483858 610.52497969 572.36339073 610.52232432 578.7120026 610.51077823 C582.33058463 610.50450361 585.9489974 610.50296768 589.56756984 610.51464156 C593.46563447 610.52710153 597.36343973 610.51636938 601.26150703 610.50336456 C602.94610796 610.51432858 602.94610796 610.51432858 604.66474122 610.5255141 C612.35999412 610.47208176 619.5463123 609.65105327 625.84392166 604.87863445 C632.53152911 598.03550125 633.68466041 591.34502569 633.66284943 582.02657986 C633.66490206 581.21139926 633.66695469 580.39621867 633.66906953 579.55633563 C633.67474285 576.81330994 633.67328187 574.07033441 633.67186356 571.32730389 C633.67444699 569.34537328 633.6774601 567.3634432 633.68086696 565.38151383 C633.6889426 559.9260265 633.69072684 554.47055232 633.69146442 549.01505971 C633.69331398 543.13488966 633.70086078 537.25472645 633.70759964 531.37456036 C633.72189571 517.84236702 633.72770983 504.31017549 633.73229158 490.777976 C633.73462781 484.09070991 633.73823048 477.40344466 633.74198696 470.71617923 C633.7548216 447.82427054 633.76554124 424.93236231 633.76898956 402.0404501 C633.7692112 400.60360025 633.76943298 399.1667504 633.76965491 397.72990055 C633.76987555 396.28958707 633.77009604 394.84927359 633.77031636 393.4089601 C633.77075891 390.51945702 633.77120603 387.62995394 633.77165604 384.74045086 C633.77176543 384.02402279 633.77187482 383.30759471 633.77198752 382.5694567 C633.7756186 359.33639524 633.791541 336.10336498 633.8148464 312.87031547 C633.83944231 288.30585215 633.85316227 263.74140666 633.85435748 239.17693067 C633.85452894 236.48041455 633.85474436 233.78389843 633.85499191 231.08738232 C633.85507557 230.09144821 633.85507557 230.09144821 633.85516091 229.07539422 C633.85624026 219.05245539 633.86560272 209.02954669 633.87917709 199.00661755 C633.89456273 187.60603377 633.89970759 176.20550347 633.89143899 164.80491129 C633.88752717 158.98715576 633.88848817 153.16950797 633.90249634 147.35176563 C633.91520298 142.02591392 633.91406615 136.70025126 633.90190563 131.37439993 C633.89994303 129.44775149 633.90305293 127.5210898 633.91174999 125.59445998 C633.92282971 122.97409547 633.91536276 120.35439972 633.90335846 117.73405361 C633.91095365 116.98743581 633.91854885 116.24081802 633.9263742 115.47157544 C633.84662933 107.39900266 631.61439733 100.48592527 626.07829666 94.56613445 C621.32748284 90.15123676 616.80441803 88.99915719 610.48747635 89.01510906 C608.98637314 89.01522236 608.98637314 89.01522236 607.45494461 89.01533794 C605.84537888 89.02307987 605.84537888 89.02307987 604.20329666 89.0309782 C603.09915421 89.03239315 601.99501175 89.0338081 600.85741043 89.03526592 C597.33205324 89.04086188 593.80675964 89.05341367 590.28142166 89.06613445 C587.89079758 89.07114997 585.5001725 89.07571279 583.10954666 89.07980633 C577.25014998 89.09082998 571.39079036 89.10756412 565.53142166 89.12863445 C565.53044485 90.01566048 565.52946804 90.9026865 565.52846164 91.8165921 C565.47019574 144.38333119 565.39640358 196.95002893 565.30243538 249.51671695 C565.29116715 255.82778561 565.28002871 262.13885449 565.26897049 268.44992352 C565.26676681 269.70634923 565.26456312 270.96277494 565.26229266 272.25727417 C565.22691563 292.60390409 565.20205378 312.95053398 565.18107464 333.29718326 C565.15931585 354.17310526 565.12626463 375.04898734 565.0827201 395.92487538 C565.05620481 408.80747499 565.03850852 421.69002484 565.03207562 434.57265039 C565.02682139 443.40549991 565.01060315 452.23828681 564.985756 461.07110278 C564.97174234 466.16794282 564.96256974 471.26467075 564.9664135 476.36153126 C564.96982753 481.03015083 564.95943683 485.69853111 564.93818615 490.36710168 C564.93292451 492.05366669 564.93267677 493.7402566 564.93802603 495.42682134 C564.98051114 510.34453068 562.80534932 522.70870391 552.15642166 533.94113445 C541.88505832 543.51422529 530.12245161 546.28873867 516.39327431 546.26006222 C515.02069976 546.26314117 515.02069976 546.26314117 513.62039644 546.26628232 C510.54363607 546.27195223 507.46692047 546.27049507 504.39015579 546.26907635 C502.16613705 546.27165998 499.94211878 546.27467314 497.71810114 546.27807975 C491.59797243 546.28615313 485.47785545 546.28793951 479.35772204 546.28867722 C473.43770364 546.29033725 467.51769135 546.29665489 461.59767613 546.30275563 C445.73812655 546.31880938 429.87857794 546.32471816 414.01902169 546.32950438 C406.51532093 546.33184091 399.01162093 546.33544362 391.50792077 546.33919975 C365.81815081 546.35203459 340.12838127 546.36275393 314.43860817 546.36620235 C312.82620352 546.36642399 311.21379887 546.36664577 309.60139421 546.36686771 C307.98511361 546.36708835 306.368833 546.36730883 304.75255239 546.36752915 C301.51005959 546.3679717 298.2675668 546.36841882 295.02507401 546.36886883 C294.22112538 546.36897822 293.41717675 546.36908761 292.58886604 546.36920032 C266.52185178 546.3728308 240.45486533 546.38875089 214.38786171 546.41205919 C186.8233254 546.43666145 159.25880499 546.45037537 131.69425738 546.45157027 C128.66770529 546.45174172 125.64115321 546.45195715 122.61460114 546.4522047 C121.86938795 546.45226047 121.12417477 546.45231624 120.35637937 546.4523737 C108.36979793 546.45352379 96.38324505 546.46454215 84.39667324 546.47909176 C72.34599596 546.49346613 60.29535525 546.49668843 48.24467175 546.48865178 C41.71770566 546.4845914 35.19081649 546.48568691 28.66386032 546.49970913 C22.68654959 546.51243309 16.7094072 546.51126356 10.73209675 546.49911842 C8.57191377 546.49715884 6.41171893 546.50025187 4.25155263 546.50896278 C-13.96795723 546.57777045 -28.61881136 545.16948164 -42.46467209 532.21457195 C-53.19527607 521.04470348 -54.06218057 506.3208064 -53.98756027 491.62050152 C-53.99344564 489.87685911 -54.00107794 488.13322189 -54.01029134 486.3895939 C-54.03044586 481.63021219 -54.02602546 476.87113035 -54.01738381 472.11172569 C-54.01242137 466.96735979 -54.0305457 461.82306752 -54.04580307 456.67872906 C-54.06907575 447.77642064 -54.07786536 438.8741936 -54.07669449 429.97185612 C-54.07502276 417.10074063 -54.09538541 404.22973337 -54.12104979 391.35864679 C-54.16209799 370.4739572 -54.18543538 349.58928712 -54.19758224 328.70456219 C-54.20941675 308.42231655 -54.22962511 288.14010764 -54.26105881 267.8578825 C-54.26396296 265.98119839 -54.26396296 265.98119839 -54.26692578 264.06660148 C-54.2766906 257.78980958 -54.28661967 251.51301795 -54.29663038 245.23622644 C-54.37940886 193.20038045 -54.43342214 141.16453292 -54.46857834 89.12863445 C-61.40603995 89.00114797 -68.343196 88.91399676 -75.28156662 88.85397625 C-77.63845229 88.82893737 -79.99526113 88.79489604 -82.35187912 88.75143719 C-85.75295162 88.69031855 -89.15299154 88.66231718 -92.55451584 88.6403532 C-94.11763 88.60164356 -94.11763 88.60164356 -95.71232224 88.56215191 C-104.82888525 88.55870996 -112.25615783 90.91461978 -118.03107834 98.25363445 Z M-32.46857834 147.12863445 C-32.38607834 206.52863445 -32.30357834 265.92863445 -32.21857834 327.12863445 C-32.20278732 345.9025407 -32.18699631 364.67644695 -32.17072678 384.01925945 C-32.13751774 400.80954854 -32.13751774 400.80954854 -32.09901047 417.59982586 C-32.08196633 425.09366433 -32.07582022 432.58741547 -32.07703781 440.08127117 C-32.07840424 448.7214545 -32.06601115 457.36148672 -32.03653945 466.00162196 C-32.02189434 470.42251278 -32.01348198 474.84316823 -32.02275419 479.26407909 C-32.03102159 483.2622108 -32.02093521 487.25986014 -31.9962368 491.25792027 C-31.99054808 492.70277835 -31.9915869 494.14768204 -32.00006723 495.59252644 C-32.04807727 504.5476055 -31.7261311 511.09344648 -25.75764084 518.15207195 C-25.20850021 518.59808758 -24.65935959 519.0441032 -24.09357834 519.50363445 C-23.54959396 519.96511883 -23.00560959 520.4266032 -22.44514084 520.90207195 C-16.95431856 524.30942017 -11.54785426 524.41610413 -5.30364037 524.38590336 C-3.92673568 524.39116247 -3.92673568 524.39116247 -2.52201474 524.39652783 C0.56457284 524.40585746 3.65097239 524.40091444 6.7375679 524.39605999 C8.96856326 524.39979545 11.1995573 524.40439655 13.43054926 524.40979064 C19.56981464 524.42204876 25.70902563 524.42175686 31.84830046 524.41940188 C37.78662315 524.41903626 43.72492982 524.42801201 49.66324465 524.43662766 C63.31068798 524.45597485 76.9581163 524.46159614 90.60557173 524.46274178 C101.14359797 524.46366062 111.68161832 524.46777603 122.21964264 524.47414303 C125.25223465 524.47593809 128.28482667 524.47771772 131.31741869 524.47949278 C132.44825932 524.48015593 132.44825932 524.48015593 133.60194522 524.48083247 C154.80884134 524.49314163 176.01573542 524.50103351 197.22263527 524.50014591 C198.02226483 524.50011475 198.82189438 524.5000836 199.64575514 524.5000515 C203.69867964 524.49988528 207.75160414 524.4996872 211.80452864 524.49948208 C212.60946538 524.49944219 213.41440212 524.4994023 214.24373089 524.4993612 C215.87150883 524.49928033 217.49928678 524.49919673 219.12706472 524.49911042 C244.45718582 524.49788469 269.78725338 524.5129018 295.11735916 524.54025555 C323.57021428 524.5709688 352.02303422 524.58818853 380.47590697 524.5863291 C383.5091277 524.58617984 386.54234842 524.58608243 389.57556915 524.58602047 C390.32243518 524.58599716 391.0693012 524.58597385 391.83879953 524.58594984 C403.86337162 524.58588826 415.88789728 524.5986657 427.91245556 524.615885 C439.99444024 524.63282887 452.0763569 524.63482508 464.15834688 524.62166636 C470.70509016 524.61492079 477.25169871 524.61507904 483.79842949 524.63237286 C489.78914803 524.64803547 495.77956351 524.64530963 501.77027436 524.62780459 C503.9398071 524.62471968 506.10936207 524.62842278 508.2788686 524.63952474 C511.22454824 524.65360266 514.1691585 524.64309304 517.11480141 524.62641239 C517.9600211 524.63634875 518.80524079 524.64628511 519.67607319 524.65652257 C526.44946721 524.57525393 531.58474876 522.61841905 536.77360916 518.2341032 C537.58185135 517.28470867 537.58185135 517.28470867 538.40642166 516.31613445 C538.96071854 515.69093914 539.51501541 515.06574383 540.08610916 514.4216032 C544.64178216 507.19408955 543.80791803 498.92850453 543.77193069 490.69578838 C543.7728062 489.21664131 543.77456124 487.73749454 543.77711868 486.25834942 C543.78159904 482.19404933 543.77358537 478.12985485 543.76356712 474.06556816 C543.75482978 469.6153456 543.75775661 465.16512786 543.75920296 460.71489906 C543.76026604 452.07738783 543.75103367 443.4399182 543.7382003 434.80241766 C543.72379954 424.81085138 543.72221076 414.81931008 543.72063065 404.82773113 C543.71013024 378.44885898 543.68220801 352.06999609 543.65642166 325.69113445 C543.61517166 266.76550945 543.57392166 207.83988445 543.53142166 147.12863445 C353.45142166 147.12863445 163.37142166 147.12863445 -32.46857834 147.12863445 Z M211.53142166 632.12863445 C211.53142166 642.02863445 211.53142166 651.92863445 211.53142166 662.12863445 C210.53565555 674.80202137 208.47482479 684.3753786 198.92204666 693.2028532 C160.56179792 724.10416469 99.79331659 730.57979391 52.62126541 738.4606657 C27.38242011 742.69923774 6.22023523 749.83937387 -14.46857834 765.12863445 C-15.26264084 765.69840008 -16.05670334 766.2681657 -16.87482834 766.85519695 C-23.60649463 771.63017598 -23.60649463 771.63017598 -28.46857834 778.12863445 C158.97142166 778.12863445 346.41142166 778.12863445 539.53142166 778.12863445 C535.70240604 773.36330557 535.70240604 773.36330557 531.43767166 769.41769695 C530.8895784 768.98175213 530.34148514 768.5458073 529.77678299 768.09665203 C528.91282913 767.43185833 528.91282913 767.43185833 528.03142166 766.75363445 C527.41613602 766.27885662 526.80085037 765.80407879 526.16691971 765.31491375 C517.42849041 758.67290117 508.45926562 753.3115316 498.40642166 748.94113445 C497.36191849 748.4776762 497.36191849 748.4776762 496.29631424 748.00485516 C482.29021403 742.17993885 467.13552547 739.47868441 452.23167801 737.10293865 C447.76521707 736.38871563 443.30461803 735.63961453 438.84392166 734.8903532 C437.51821655 734.66808056 437.51821655 734.66808056 436.16572952 734.44131756 C418.26032573 731.41426097 400.43446069 727.76039888 382.95573807 722.81027508 C380.28161104 722.05839565 377.60004103 721.33664654 374.91814041 720.61300945 C316.44177114 704.53188797 316.44177114 704.53188797 303.53142166 682.12863445 C300.53142166 671.12863445 300.53142166 671.12863445 299.53142166 632.12863445 C270.49142166 632.12863445 241.45142166 632.12863445 211.53142166 632.12863445 Z "
    transform="translate(192.46857833862305,43.871365547180176)" style="fill: #000000;" />
  <path
    d="M0 0 C1.09989761 0.00424484 2.19979523 0.00848969 3.33302307 0.01286316 C6.8277387 0.02958473 10.32186646 0.0672258 13.81640625 0.10546875 C16.19335102 0.12052397 18.57030487 0.13421091 20.94726562 0.14648438 C26.75801128 0.1794669 32.56841675 0.22960145 38.37890625 0.29296875 C38.37950334 1.17673964 38.38010043 2.06051053 38.38071561 2.97106236 C38.41661766 55.36263611 38.47326913 107.75415245 38.5568272 160.14567299 C38.56684453 166.43785402 38.57668868 172.73003532 38.58642578 179.0222168 C38.58836715 180.27486497 38.59030853 181.52751313 38.59230873 182.81812034 C38.62332099 203.09482884 38.64030723 223.37152602 38.65210047 243.64825376 C38.66451602 264.45752716 38.69202661 285.26674121 38.73351932 306.07597715 C38.75864304 318.91405588 38.77202434 331.75203618 38.77033582 344.59013984 C38.77030604 353.39639403 38.78495256 362.20254802 38.81107053 371.00876316 C38.82570293 376.08777962 38.83393094 381.16659063 38.82470894 386.24562454 C38.8163985 390.90150976 38.82664131 395.55698287 38.85124287 400.2128071 C38.8569085 401.89134929 38.85593909 403.56993078 38.8474187 405.24846091 C38.77540265 420.77391003 41.30228485 433.65023791 52.2578125 445.2890625 C62.45304708 454.86640407 74.36767945 457.61912928 88.00924492 457.54744434 C88.92890999 457.55065082 89.84857507 457.5538573 90.79610878 457.55716094 C93.86453376 457.56543385 96.93276217 457.55954613 100.00119019 457.55366516 C102.22866193 457.55668707 104.45613263 457.56057675 106.6836015 457.56525773 C112.79470839 457.57554125 118.90575664 457.57335498 125.01686835 457.56907713 C130.93379889 457.56686402 136.85071624 457.57402182 142.76764163 457.58083739 C156.36062734 457.59606484 169.9535944 457.59778376 183.54658686 457.59531436 C194.04396023 457.59348062 204.5413275 457.59524302 215.0387001 457.5995388 C216.54766525 457.60014121 218.0566304 457.60074241 219.56559554 457.60134241 C221.83954964 457.60224967 224.11350374 457.60315834 226.38745783 457.60407476 C247.52505393 457.61250238 268.66264774 457.61684128 289.80024529 457.61266804 C290.59682704 457.61251166 291.3934088 457.61235529 292.2141294 457.61219417 C296.2513822 457.61138841 300.288635 457.61054263 304.32588778 457.60968087 C305.52857226 457.60942424 305.52857226 457.60942424 306.7555534 457.60916242 C308.37696585 457.60881576 309.99837831 457.60846724 311.61979076 457.60811683 C336.84989386 457.60275944 362.07996201 457.61069135 387.31005859 457.62915039 C415.66629424 457.64987238 444.02250823 457.66059277 472.37875187 457.6565749 C475.40299487 457.65617957 478.42723786 457.65581802 481.45148087 457.65547752 C482.19610805 457.65538679 482.94073522 457.65529606 483.70792686 457.65520258 C494.94196031 457.65403729 506.17597187 457.66067969 517.40999985 457.67128944 C530.1879187 457.6833451 542.96578938 457.68489614 555.74370895 457.67249928 C562.26259929 457.6664576 568.78141457 457.66552794 575.3003006 457.67750168 C581.27005421 457.68833935 587.23963484 457.68528211 593.20938028 457.67123999 C595.36675023 457.66858727 597.52413365 457.67097761 599.68149041 457.67897586 C617.65702107 457.74098301 632.42620247 456.56501484 646.046875 443.78125 C656.85884365 432.24486134 657.82532911 419.14550178 657.77763367 404.1076355 C657.78307816 402.36245957 657.78983181 400.61728732 657.79777557 398.87212098 C657.81575817 394.09460862 657.81524905 389.31725206 657.8116461 384.53971386 C657.81102128 379.38098846 657.82765141 374.22231489 657.84216309 369.06361389 C657.86493777 360.13180022 657.87683226 351.20002553 657.88129234 342.26818466 C657.88775663 329.35432487 657.91069897 316.44053549 657.93763564 303.52670409 C657.98089455 282.57380222 658.01086644 261.62090331 658.0324707 240.66796875 C658.05348306 220.31671694 658.08076043 199.9654894 658.11645508 179.61425781 C658.1186539 178.35935991 658.12085273 177.10446201 658.12311818 175.81153689 C658.1341879 169.51594906 658.1453807 163.22036144 658.15663469 156.92477393 C658.24980712 104.71419367 658.32141098 52.50359965 658.37890625 0.29296875 C665.37142934 0.21671057 672.3638446 0.16428146 679.35668945 0.12817383 C681.73400887 0.11311623 684.11130064 0.09266586 686.48852539 0.06665039 C689.91169064 0.03013472 693.33448757 0.01321166 696.7578125 0 C697.81537247 -0.01548386 698.87293243 -0.03096771 699.96253967 -0.04692078 C708.65276691 -0.04888892 714.35463952 1.78079664 720.87109375 7.68359375 C726.40093306 13.58590929 726.52822509 20.75130339 726.51033401 28.39502335 C726.51341297 29.61779424 726.51341297 29.61779424 726.51655412 30.86526757 C726.52222744 33.60829326 726.52076646 36.35126879 726.51934814 39.09429932 C726.52193158 41.07622992 726.52494468 43.05816001 726.52835155 45.04008937 C726.53642719 50.4955767 726.53821143 55.95105089 726.53894901 61.40654349 C726.54079857 67.28671354 726.54834537 73.16687675 726.55508423 79.04704285 C726.56938029 92.57923618 726.57519442 106.11142771 726.57977617 119.6436272 C726.5821124 126.3308933 726.58571506 133.01815854 726.58947155 139.70542397 C726.60230619 162.59733267 726.61302583 185.48924089 726.61647415 208.38115311 C726.61669578 209.81800295 726.61691757 211.2548528 726.6171395 212.69170265 C726.61736014 214.13201613 726.61758063 215.57232962 726.61780095 217.0126431 C726.6182435 219.90214618 726.61869062 222.79164926 726.61914062 225.68115234 C726.61925002 226.39758042 726.61935941 227.11400849 726.61947211 227.8521465 C726.62310319 251.08520796 726.63902558 274.31823822 726.66233099 297.55128773 C726.6869269 322.11575105 726.70064686 346.68019654 726.70184207 371.24467254 C726.70201352 373.94118866 726.70222895 376.63770477 726.7024765 379.33422089 C726.70253227 379.99817696 726.70258804 380.66213303 726.7026455 381.34620898 C726.70372485 391.36914781 726.71308731 401.39205651 726.72666168 411.41498566 C726.74204731 422.81556943 726.74719218 434.21609973 726.73892358 445.61669192 C726.73501175 451.43444745 726.73597276 457.25209524 726.74998093 463.06983757 C726.76268757 468.39568929 726.76155073 473.72135194 726.74939021 479.04720327 C726.74742762 480.97385172 726.75053752 482.90051341 726.75923458 484.82714322 C726.7703143 487.44750774 726.76284735 490.06720348 726.75084305 492.68754959 C726.75843824 493.43416739 726.76603343 494.18078519 726.77385879 494.95002776 C726.70800938 501.61596275 725.24366347 508.22490636 721.12890625 513.60546875 C715.25473793 519.34613324 709.3363916 521.41589928 701.17725682 521.42061925 C700.14199967 521.42363522 699.10674251 521.42665119 698.04011393 521.42975855 C696.90711029 521.42798908 695.77410665 521.42621961 694.60676956 521.42439651 C692.78884694 521.42747547 692.78884694 521.42747547 690.93419862 521.43061662 C687.55841957 521.43530943 684.18269361 521.43551056 680.80691523 521.43383903 C677.13870427 521.43310843 673.47050049 521.43812968 669.80229259 521.44241405 C662.52161682 521.44999819 655.24094839 521.45218732 647.96026908 521.4527431 C639.24170926 521.45365632 630.52315622 521.46032259 621.80459932 521.46708992 C600.73198933 521.48315594 579.65938007 521.4890537 558.58676506 521.49383867 C548.62072644 521.49617382 538.65468839 521.49977635 528.68865022 521.50353405 C494.58247958 521.51636951 460.47630926 521.52708916 426.37013626 521.53053665 C424.22885344 521.53075829 422.08757062 521.53098007 419.9462878 521.531202 C417.79979979 521.53142264 415.65331178 521.53164313 413.50682378 521.53186345 C409.20051273 521.53230601 404.89420168 521.53275312 400.58789062 521.53320312 C399.52017452 521.53331252 398.45245841 521.53342191 397.35238728 521.53353461 C362.72140534 521.53716631 328.09044432 521.55309064 293.45947039 521.57639349 C256.85629475 521.60097845 220.25313107 521.61470885 183.64994693 521.61590457 C179.63343986 521.61607603 175.61693279 521.61629146 171.60042572 521.616539 C170.61142928 521.61659477 169.62243285 521.61665054 168.60346683 521.616708 C152.67467847 521.61785955 136.74591155 521.62889027 120.81713044 521.64342606 C104.81317339 521.65777816 88.80924387 521.66103531 72.80528215 521.65298608 C63.29343227 521.6485239 53.78167117 521.65241394 44.26983292 521.66822459 C37.91819217 521.67795677 31.56661379 521.67681322 25.21497365 521.66678836 C21.59462606 521.66138362 17.97444924 521.66072693 14.35411564 521.67329708 C10.45413133 521.68672534 6.55440077 521.6769509 2.6544075 521.66490555 C1.53076853 521.67250074 0.40712955 521.68009593 -0.75055909 521.68792129 C-8.37641108 521.6368661 -14.75079576 520.57996302 -21.37109375 516.66796875 C-29.47763424 508.1110649 -29.35613517 499.18913224 -29.32373047 488.03442383 C-29.33667414 486.23941427 -29.35172528 484.44441891 -29.36867142 482.64944267 C-29.40902301 477.66412033 -29.41752247 472.67916505 -29.42071772 467.69369864 C-29.42760156 463.3518859 -29.45302148 459.01025872 -29.47854841 454.66852146 C-29.56297707 440.30374149 -29.59157694 425.93903703 -29.61140577 411.57404816 C-29.62168995 404.37611809 -29.63862968 397.17820619 -29.65553162 389.98028918 C-29.75090437 349.00897981 -29.76495365 308.03782903 -29.7505599 267.06642796 C-29.74607267 254.11288571 -29.74694227 241.15935264 -29.75146484 228.20581055 C-29.76633879 183.90137608 -29.74517094 139.59725386 -29.62109375 95.29296875 C-29.61617574 93.4461606 -29.61617574 93.4461606 -29.61115837 91.56204319 C-29.57524927 78.27500955 -29.52021907 64.98853771 -29.4040184 51.70194435 C-29.37553419 48.41718205 -29.35532548 45.13255529 -29.34326553 41.84769249 C-29.32677682 37.54882759 -29.27903969 33.25096247 -29.22607422 28.95239258 C-29.22523708 27.75436068 -29.22439995 26.55632877 -29.22353745 25.32199287 C-29.07706285 17.04399198 -27.74165054 11.41352554 -21.80859375 5.48046875 C-14.40239358 0.39778236 -8.82279437 -0.12917554 0 0 Z "
    transform="translate(99.62109375,132.70703125)" style="fill: #7A7A7A;" />
  <path
    d="M0 0 C0.91396052 -0.00380567 1.82792103 -0.00761134 2.76957732 -0.01153234 C5.84265658 -0.02186689 8.91555178 -0.01793847 11.98864365 -0.01409245 C14.20996429 -0.01854383 16.43128334 -0.02385754 18.65260005 -0.02996117 C24.76519829 -0.04416345 30.87774574 -0.04580404 36.99035811 -0.04536426 C42.90301562 -0.04684148 48.81565143 -0.05764702 54.72829888 -0.06805556 C69.06578942 -0.0927935 83.40326839 -0.10157804 97.74077733 -0.10659205 C98.48325582 -0.10685322 99.22573432 -0.1071144 99.99071217 -0.10738349 C100.73468003 -0.10764376 101.4786479 -0.10790404 102.24516025 -0.1081722 C110.48939642 -0.11125444 118.73362937 -0.11775915 126.97786331 -0.12438488 C151.87763055 -0.14403219 176.77739431 -0.16043703 201.6771698 -0.16326141 C202.8717899 -0.16340251 202.8717899 -0.16340251 204.09054374 -0.16354645 C207.31806715 -0.16392493 210.54559057 -0.16428893 213.77311399 -0.16464943 C216.20235874 -0.16492115 218.63160349 -0.16519782 221.06084824 -0.16547489 C222.26492119 -0.16560693 222.26492119 -0.16560693 223.49331885 -0.16574163 C248.71605843 -0.16864718 273.93872137 -0.1907443 299.16143417 -0.22699833 C327.49638244 -0.26772468 355.83127848 -0.29141998 384.16625762 -0.29172093 C387.18771856 -0.29181775 390.20917948 -0.29198447 393.23064041 -0.29220104 C394.34658773 -0.29226721 394.34658773 -0.29226721 395.48507943 -0.29233472 C407.45719963 -0.29345456 419.42924306 -0.31086299 431.40133854 -0.33402036 C443.43407778 -0.35686326 455.4667133 -0.36108789 467.49946627 -0.34647106 C474.01813364 -0.33903738 480.53658809 -0.34021784 487.05523109 -0.36288166 C493.02267087 -0.38343054 498.98963945 -0.38090895 504.9570739 -0.36000682 C507.11587731 -0.35650417 509.27471444 -0.36145453 511.43347362 -0.37571125 C533.22872901 -0.51037337 533.22872901 -0.51037337 541.45123029 6.6319285 C547.01050691 12.52881988 548.32576592 19.89274931 548.2283287 27.67973995 C548.23037308 28.47909466 548.23241745 29.27844936 548.23452377 30.10202694 C548.23750642 32.71614411 548.21913961 35.32961493 548.20000839 37.94365597 C548.19694781 39.76828512 548.19507397 41.59291661 548.19433212 43.41754818 C548.18974585 47.22606616 548.17537763 51.03437072 548.15313339 54.84282589 C548.12471136 59.73458495 548.11390602 64.62617729 548.10945129 69.51801109 C548.10530638 73.27794732 548.09549901 77.03784962 548.0835762 80.79776859 C548.07786619 82.60277249 548.07310991 84.40777966 548.06930923 86.21278858 C548.06247247 88.72396703 548.04885629 91.23501048 548.0330162 93.7461462 C548.03189835 94.49674313 548.03078049 95.24734005 548.02962875 96.02068233 C547.9865811 101.14536451 547.9865811 101.14536451 546.87188339 102.26006222 C543.83000688 102.35407456 540.81099632 102.38148639 537.76884747 102.36749268 C536.79687875 102.36695815 535.82491004 102.36642362 534.82348773 102.36587289 C531.5231019 102.36281263 528.22277629 102.35252753 524.92240524 102.34235287 C522.54978261 102.33866285 520.17715925 102.33541263 517.80453545 102.33256763 C512.62361975 102.32533809 507.44271987 102.31496809 502.26181602 102.30189228 C494.55791926 102.28246555 486.85401985 102.26874772 479.15010914 102.2562305 C466.19289618 102.23501457 453.23569646 102.20912274 440.2784977 102.18059635 C427.44311961 102.15235333 414.60774006 102.12616998 401.77235222 102.10275745 C400.97527156 102.10130237 400.1781909 102.09984728 399.35695628 102.0983481 C395.30923947 102.09096969 391.26152259 102.08362827 387.21380568 102.07630109 C358.51917538 102.02429147 329.82455595 101.96763356 301.12994003 101.90825558 C273.24778281 101.85056943 245.3656227 101.79498035 217.48345566 101.74223995 C216.19502972 101.73980158 216.19502972 101.73980158 214.88057498 101.73731395 C206.25489972 101.720992 197.62922438 101.70471278 189.00354897 101.68846489 C171.43093785 101.65536297 153.85832727 101.62197575 136.28571701 101.5884161 C135.47769817 101.58687332 134.66967933 101.58533054 133.83717507 101.58374101 C79.84873503 101.48062626 25.86030818 101.37083921 -28.12811661 101.26006222 C-28.09001197 90.31540119 -28.0305806 79.37108098 -27.94421387 68.42668819 C-27.90477035 63.34427794 -27.87256649 58.26204014 -27.85712051 53.17949581 C-27.84193342 48.27095222 -27.80745127 43.36288283 -27.75980759 38.45455074 C-27.74501498 36.58559455 -27.73707681 34.71657065 -27.73623276 32.84755611 C-27.73385494 30.22152809 -27.70671076 27.59680195 -27.67401505 24.97099972 C-27.67904541 24.20494915 -27.68407578 23.43889858 -27.68925858 22.64963436 C-27.56692398 16.26419363 -25.65334246 10.9079711 -21.19842911 6.23662472 C-20.55647598 5.79060909 -19.91452286 5.34459347 -19.25311661 4.88506222 C-18.61631973 4.42357784 -17.97952286 3.96209347 -17.32342911 3.48662472 C-11.59805455 0.28774997 -6.38670356 -0.02887032 0 0 Z M273.05938339 44.88506222 C271.18977166 48.62428567 271.22899408 52.16894844 271.87188339 56.26006222 C273.83387264 59.94860201 275.10184726 60.99054068 279.04351425 62.37016964 C285.04943903 63.7662283 291.03923174 63.59373681 297.16949081 63.57573605 C299.43210204 63.57256541 301.69341663 63.59611841 303.95586777 63.62139034 C305.40834009 63.62366285 306.8608159 63.62436706 308.31328964 63.62334347 C309.61983505 63.62632442 310.92638046 63.62930538 312.27251816 63.63237667 C316.91458583 63.1522062 320.22543719 61.68698226 323.74688339 58.63506222 C325.53114075 54.86829668 325.64092065 51.33807627 324.87188339 47.26006222 C322.9384679 43.68954012 320.7883244 41.56554255 316.87188339 40.26006222 C314.12645292 40.13911814 311.40719069 40.07193567 308.66094589 40.05693722 C307.85579544 40.05123714 307.05064499 40.04553707 306.22109604 40.03966427 C304.51811662 40.03022286 302.815119 40.02368369 301.11211777 40.01982784 C298.51348466 40.01012421 295.91564336 39.97909438 293.31719589 39.94756222 C291.66095058 39.94103155 290.00469962 39.93578133 288.34844589 39.93193722 C287.57433365 39.91959042 286.80022141 39.90724361 286.00265121 39.89452267 C280.34726715 39.91774998 277.21053196 41.16334281 273.05938339 44.88506222 Z M365.49688339 46.07256222 C364.28847266 50.3019998 364.34933943 53.90759549 365.93438339 58.01006222 C369.3956257 62.02956941 373.58802184 63.12961683 378.69244003 63.64824581 C380.05550463 63.66775185 381.41888847 63.67051847 382.78203964 63.65849972 C383.5125705 63.6613699 384.24310135 63.66424007 384.9957695 63.66719723 C386.52943326 63.66922565 388.06312362 63.66378187 389.59673691 63.6511755 C391.93188318 63.63507945 394.26530522 63.65107634 396.60039902 63.67021847 C398.09844967 63.66823627 399.59649927 63.66439308 401.09453964 63.65849972 C401.78532104 63.66457241 402.47610245 63.6706451 403.18781662 63.67690182 C408.59497543 63.5991522 412.22790294 61.99232527 416.68438339 59.07256222 C418.67077006 56.04070888 418.97912689 52.79909749 418.87188339 49.26006222 C417.68793087 45.77397978 416.68100529 43.89826293 413.79156113 41.61919308 C409.95179012 39.83175222 406.43494309 39.81096909 402.28203964 39.82646847 C401.45989471 39.82122662 400.63774979 39.81598476 399.79069138 39.81058407 C398.05678051 39.80417821 396.3228261 39.80548225 394.58892441 39.8140173 C391.94612305 39.82252443 389.30548693 39.79375297 386.66289902 39.76201534 C384.97344654 39.76040297 383.28399025 39.76098155 381.59453964 39.76396847 C380.80998901 39.75273449 380.02543839 39.74150051 379.21711349 39.72992611 C373.41666481 39.80304348 369.17217064 41.22786539 365.49688339 46.07256222 Z M460.87188339 43.26006222 C458.52704446 46.69915931 457.86107559 48.64401732 457.93438339 52.82256222 C458.9726902 56.62968718 460.05292392 58.51940717 462.87188339 61.26006222 C467.03387325 63.41348047 470.9588769 63.56685807 475.55157089 63.56084347 C476.28255997 63.56512859 477.01354904 63.56941372 477.7666893 63.5738287 C479.30809116 63.57955251 480.84952002 63.58008666 482.39092636 63.57573605 C484.73271082 63.57258131 487.07322408 63.59603952 489.41485214 63.62139034 C490.91875681 63.62366428 492.42266485 63.62436639 493.92657089 63.62334347 C494.96441223 63.63715809 494.96441223 63.63715809 496.02322006 63.65125179 C501.08054086 63.60381328 504.45508461 62.54714813 508.87188339 60.26006222 C511.38608265 57.34034695 511.83529286 55.60157384 512.24688339 51.76006222 C511.84130367 47.97465149 511.24549562 46.20661532 508.87188339 43.26006222 C504.55800308 39.89974443 500.51335373 39.82112684 495.24688339 39.86162472 C494.42236679 39.85875454 493.59785019 39.85588436 492.74834824 39.85292721 C491.01022273 39.8508915 489.27207407 39.85638682 487.53399277 39.86894894 C484.8804746 39.88501022 482.22847944 39.86908413 479.57500839 39.84990597 C477.88229671 39.85188849 476.18958598 39.85573235 474.49688339 39.86162472 C473.70717148 39.85555202 472.91745956 39.84947933 472.10381699 39.84322262 C467.51792706 39.90148943 464.49976377 40.38486472 460.87188339 43.26006222 Z "
    transform="translate(188.12811660766602,66.7399377822876)" style="fill: #3178c6;" />
  <path
    d="M0 0 C29.04 0 58.08 0 88 0 C88.33 12.87 88.66 25.74 89 39 C93.31003757 54.80347109 100.44302717 61.95537899 114.41796875 69.95703125 C130.69736047 78.69678955 148.59438693 84.8569964 166.47851562 89.35791016 C169.27932054 90.07112829 172.06859635 90.82275186 174.859375 91.57421875 C200.40512987 98.32873526 226.47191934 103.07668902 252.5625 107.1875 C281.44614631 111.82711313 305.67455689 124.00344207 327 144 C327.33 144.66 327.66 145.32 328 146 C140.56 146 -46.88 146 -240 146 C-233.24212609 138.11581377 -233.24212609 138.11581377 -230.23046875 135.8671875 C-229.5744165 135.37379883 -228.91836426 134.88041016 -228.24243164 134.37207031 C-227.5643042 133.87803711 -226.88617676 133.38400391 -226.1875 132.875 C-225.47392334 132.3500293 -224.76034668 131.82505859 -224.02514648 131.28417969 C-219.18784797 127.7671467 -214.39834749 124.59390176 -209 122 C-207.75901488 121.36998803 -206.51814066 120.73975758 -205.27734375 120.109375 C-203.8525458 119.4042596 -202.42675087 118.70115539 -201 118 C-200.36650635 117.6793457 -199.7330127 117.35869141 -199.08032227 117.02832031 C-185.57710109 110.56507253 -170.8234368 108.02769262 -156.17248535 105.66159058 C-74.35551927 95.19594493 -74.35551927 95.19594493 -6.65625 54.41015625 C3.83807273 39.13893662 0 16.69930712 0 0 Z "
    transform="translate(404,676)" style="fill: #7A7A7A;" />
  <path
    d="M0 0 C0.66350644 -0.00380567 1.32701288 -0.00761134 2.01062557 -0.01153234 C4.24977223 -0.02189707 6.48866767 -0.01793306 8.72783184 -0.01409245 C10.34306912 -0.01854221 11.95830422 -0.02385539 13.5735361 -0.02996117 C18.02460802 -0.04418302 22.47561027 -0.04580367 26.92670166 -0.04536426 C31.7223243 -0.04700879 36.51791792 -0.06006845 41.3135252 -0.07155704 C51.80515093 -0.0944343 62.29675646 -0.10233054 72.78840375 -0.10738349 C79.33625704 -0.11063726 85.88410443 -0.11715778 92.43195438 -0.12438488 C110.55213037 -0.14395413 128.67230086 -0.16035651 146.7924881 -0.16326141 C148.53277141 -0.16354277 148.53277141 -0.16354277 150.30821196 -0.16382981 C152.66031881 -0.16419606 155.01242566 -0.16455976 157.36453251 -0.16492092 C158.53216222 -0.16510373 159.69979194 -0.16528654 160.90280437 -0.16547489 C162.65638031 -0.16574572 162.65638031 -0.16574572 164.44538202 -0.16602201 C183.39457793 -0.16956478 202.34366028 -0.19659215 221.2928168 -0.23397278 C240.73594021 -0.27202172 260.17900723 -0.29141864 279.62216872 -0.29172093 C290.54354283 -0.29230626 301.46478147 -0.30084691 312.3861208 -0.32971859 C321.68469986 -0.35418682 330.98309407 -0.36154624 340.2816966 -0.34647106 C345.02779555 -0.33928352 349.77352913 -0.34023871 354.51958752 -0.36288166 C358.86294278 -0.38340521 363.20565023 -0.38093381 367.54899796 -0.36000682 C369.12168777 -0.35649916 370.69442369 -0.3614757 372.26705299 -0.37571125 C385.4949027 -0.48774985 385.4949027 -0.48774985 389.43705559 2.67348289 C392.70912154 6.72579286 392.87936789 9.04209073 392.52560711 14.26006222 C390.70103629 18.48538412 388.61035732 20.24547296 384.52560711 22.26006222 C381.41082722 22.63841105 381.41082722 22.63841105 377.8363533 22.64317226 C376.84269723 22.65061154 376.84269723 22.65061154 375.8289673 22.6582011 C373.60538387 22.67117241 371.38239944 22.66276806 369.15880108 22.6544714 C367.55008548 22.65935958 365.94137339 22.66554905 364.33266729 22.67292929 C359.90888131 22.68936103 355.48527316 22.68700433 351.06146729 22.68155432 C346.29177567 22.67888812 341.52213189 22.69340814 336.75245953 22.70564938 C327.40713946 22.72672247 318.06188141 22.73124317 308.7165404 22.72946149 C301.12230905 22.72815489 293.52809707 22.73195281 285.93386936 22.73938656 C283.74802429 22.7414857 281.56217921 22.74358331 279.37633413 22.74567938 C278.28845 22.74672291 277.20056586 22.74776643 276.07971554 22.74884158 C255.49679942 22.76775131 234.91391891 22.76669142 214.3309977 22.75987226 C195.49185497 22.75429541 176.65284818 22.77512697 157.81373722 22.80823272 C138.47902605 22.84194626 119.14438004 22.85714103 99.80963892 22.8525157 C88.95089939 22.85026875 78.09228552 22.85554717 67.23357105 22.88040829 C57.98992875 22.90139115 48.74648102 22.90504333 39.50283081 22.8861087 C34.78507664 22.87693249 30.06768555 22.87586535 25.34995937 22.89646435 C21.03257899 22.91510715 16.71586075 22.91074668 12.3985061 22.88791853 C10.83530115 22.88371578 9.2720461 22.88798885 7.70889402 22.90151447 C-5.43835866 23.00754248 -5.43835866 23.00754248 -9.38025475 19.84622097 C-12.34913964 16.17979253 -12.75744197 14.04899674 -12.69704914 9.29521847 C-12.37582724 6.3591376 -11.29355364 4.55085724 -9.47439289 2.26006222 C-5.87583106 -0.13897901 -4.27900446 0.00703635 0 0 Z "
    transform="translate(301.4743928909302,265.7399377822876)" style="fill: #000000;" />
  <path
    d="M0 0 C2.29913615 1.72435211 4.51078425 3.51324617 6.703125 5.37109375 C7.321875 5.89316406 7.940625 6.41523438 8.578125 6.953125 C19.71872669 17.17363235 25.02049203 32.22376871 25.734375 47.0546875 C25.58505816 62.90093669 20.84906193 76.22642628 10.703125 88.37109375 C10.10886719 89.09039062 9.51460938 89.8096875 8.90234375 90.55078125 C-1.24989369 101.72476421 -16.05595827 107.61865359 -30.90234375 108.53125 C-47.15427028 109.02503377 -62.66459615 103.90051885 -75.2109375 93.4296875 C-87.58224402 81.22055166 -93.99487804 66.38354771 -94.671875 49.18359375 C-94.3420697 31.84820275 -87.279527 16.79898161 -75.296875 4.37109375 C-72.13477809 1.69818886 -68.85796397 -0.52312299 -65.296875 -2.62890625 C-64.50539063 -3.10070312 -63.71390625 -3.5725 -62.8984375 -4.05859375 C-43.01705712 -14.93222898 -18.28830235 -12.96976544 0 0 Z M-62.33203125 22.4765625 C-69.30447011 30.84052844 -72.73219166 40.63009613 -72.5703125 51.4921875 C-71.54328522 62.30531761 -67.32011178 70.78613823 -59.41796875 78.11328125 C-49.62022972 86.07023295 -39.6084142 87.4470658 -27.34082031 86.59863281 C-22.83443744 86.09696668 -19.16498439 84.67611238 -15.296875 82.37109375 C-14.59433594 81.95859375 -13.89179688 81.54609375 -13.16796875 81.12109375 C-5.45713475 75.97078338 0.64123686 67.46288398 2.703125 58.37109375 C4.6343612 46.68630327 3.24656795 36.39373319 -3.296875 26.37109375 C-10.64534783 17.25085475 -19.68592064 11.94843095 -31.296875 10.37109375 C-43.34810435 9.23418532 -54.05027929 13.90868475 -62.33203125 22.4765625 Z "
    transform="translate(386.296875,395.62890625)" style="fill: #000000;" />
  <path
    d="M0 0 C14.02547846 11.38256175 22.14585239 25.25261045 24.20556641 43.35009766 C25.29488409 60.30140963 20.08513861 75.42043658 9.24853516 88.43212891 C-1.72229157 100.2662338 -16.0793447 106.98557148 -32.17724609 107.97509766 C-48.42917263 108.46888142 -63.93949849 103.34436651 -76.48583984 92.87353516 C-88.85714637 80.66439932 -95.26978039 65.82739536 -95.94677734 48.62744141 C-95.61570245 31.22531745 -88.7846427 17.04875507 -76.57177734 4.81494141 C-75.93369141 4.16525391 -75.29560547 3.51556641 -74.63818359 2.84619141 C-54.91053333 -15.85611321 -21.4094411 -16.14188057 0 0 Z M-63.60693359 21.92041016 C-71.30152262 31.15064965 -74.51088837 41.90214416 -73.57177734 53.81494141 C-71.75607533 63.73975325 -66.82458298 72.96497152 -58.86865234 79.27587891 C-48.73388992 86.06685917 -38.46189327 87.23215299 -26.57177734 85.81494141 C-16.94972638 83.72586265 -9.20710197 77.64455942 -3.69677734 69.62744141 C2.06572912 59.80437806 3.54948966 49.99459182 1.42822266 38.81494141 C0.40713414 35.59754929 -0.90846782 32.74667402 -2.57177734 29.81494141 C-3.12865234 28.80431641 -3.68552734 27.79369141 -4.25927734 26.75244141 C-11.7415171 17.24797469 -20.63025148 11.58002096 -32.57177734 9.81494141 C-44.62300669 8.67803298 -55.32518163 13.3525324 -63.60693359 21.92041016 Z "
    transform="translate(515.57177734375,396.18505859375)" style="fill: #000000;" />
  <path
    d="M0 0 C0.86129517 -0.00807175 1.72259033 -0.01614349 2.60998535 -0.02445984 C4.43918848 -0.03830961 6.26841756 -0.04902776 8.09765625 -0.05688477 C10.86770452 -0.07398086 13.63652234 -0.11784319 16.40625 -0.16210938 C33.70611444 -0.31431621 33.70611444 -0.31431621 41.40625 4.23828125 C42.07229248 4.62677246 42.73833496 5.01526367 43.42456055 5.41552734 C50.31931426 9.68671694 54.94818916 16.75512847 57.7109375 24.265625 C59.93225974 33.76240155 59.62446768 43.83115277 54.40625 52.23828125 C53.54 53.78515625 53.54 53.78515625 52.65625 55.36328125 C46.58960893 63.11510039 39.62684545 67.16474943 30.40625 70.23828125 C28.56014468 70.32067294 26.71119836 70.34571484 24.86328125 70.3359375 C23.79013672 70.33271484 22.71699219 70.32949219 21.61132812 70.32617188 C20.49177734 70.31779297 19.37222656 70.30941406 18.21875 70.30078125 C17.08759766 70.29626953 15.95644531 70.29175781 14.79101562 70.28710938 C11.99604073 70.27531623 9.2011718 70.25885775 6.40625 70.23828125 C6.42196045 71.30264404 6.4376709 72.36700684 6.45385742 73.46362305 C6.50828054 77.42383211 6.54264493 81.38400829 6.57104492 85.34448242 C6.5861034 87.05645309 6.60655455 88.76838536 6.63256836 90.48022461 C6.6690819 92.9452463 6.68600562 95.4097566 6.69921875 97.875 C6.71470261 98.63664963 6.73018646 99.39829926 6.74613953 100.18302917 C6.74756995 104.73055016 6.25748894 107.64722983 3.40625 111.23828125 C0.25530867 113.3389088 -0.8161866 113.58141411 -4.46875 113.67578125 C-5.31179688 113.71574219 -6.15484375 113.75570312 -7.0234375 113.796875 C-10.89146669 112.95625467 -12.18357651 111.35972469 -14.59375 108.23828125 C-15.32594372 104.95504019 -15.26709908 101.73951 -15.22485352 98.38671875 C-15.23200882 97.39915588 -15.23916412 96.41159302 -15.24653625 95.394104 C-15.26342935 92.13335759 -15.24401616 88.87398478 -15.22265625 85.61328125 C-15.22348489 83.34553921 -15.22594407 81.07779722 -15.22996521 78.81005859 C-15.23282365 74.05873523 -15.21811687 69.30788315 -15.19067383 64.55664062 C-15.15659158 58.4666006 -15.16260916 52.37740336 -15.1813364 46.287323 C-15.19190539 41.60499041 -15.18296936 36.9228539 -15.16795158 32.24053955 C-15.16276861 29.99506207 -15.16325296 27.74956413 -15.16949654 25.50408936 C-15.1749473 22.36555965 -15.15457683 19.22823604 -15.12719727 16.08984375 C-15.13372314 15.16190002 -15.14024902 14.2339563 -15.14697266 13.27789307 C-15.084564 9.07026063 -14.96014336 6.82448719 -12.68540955 3.18505859 C-8.78766274 -0.44270444 -5.07917785 0.04502752 0 0 Z M6.40625 21.23828125 C6.40625 30.47828125 6.40625 39.71828125 6.40625 49.23828125 C10.8921875 49.33109375 10.8921875 49.33109375 15.46875 49.42578125 C16.39695557 49.45309326 17.32516113 49.48040527 18.28149414 49.50854492 C23.78126446 49.56319591 27.55501121 48.87985902 32.40625 46.23828125 C36.38549764 41.94488249 37.73108585 39.24368043 37.61328125 33.33203125 C37.28426568 30.00462848 36.3277645 27.96559215 34.40625 25.23828125 C28.46102347 20.87423199 23.68751649 20.73370667 16.46875 20.98828125 C11.4878125 21.11203125 11.4878125 21.11203125 6.40625 21.23828125 Z "
    transform="translate(564.59375,387.76171875)" style="fill: #000000;" />
  <path
    d="M0 0 C8.08111241 6.41026611 13.60131783 14.41341751 15.55859375 24.640625 C16.72053489 36.29578845 13.98726355 47.13994143 6.640625 56.3046875 C-0.50826166 63.66742975 -9.36716719 68.46867315 -19.68188477 68.70703125 C-20.79841431 68.69736328 -20.79841431 68.69736328 -21.9375 68.6875 C-23.11493774 68.67783203 -23.11493774 68.67783203 -24.31616211 68.66796875 C-34.4539145 68.35223504 -42.78466704 64.72784056 -50.14453125 57.703125 C-57.51276997 48.6301886 -61.29685983 37.85162621 -60.1875 26.1875 C-57.87590342 14.82447105 -53.03060625 5.0925223 -43.296875 -1.56640625 C-28.94050134 -10.04730106 -13.665282 -9.64304805 0 0 Z "
    transform="translate(502.1875,413.8125)" style="fill: #FFFFFF;" />
  <path
    d="M0 0 C7.68263363 6.41078824 12.165653 14.46774963 13.78125 24.36328125 C14.72733635 35.76700069 11.82571871 44.89904171 5 54 C-1.54954684 61.25760596 -9.35417401 66.83666624 -19.3671875 67.43359375 C-20.86961052 67.45696112 -22.37253216 67.45778187 -23.875 67.4375 C-25.05908447 67.42614014 -25.05908447 67.42614014 -26.26708984 67.41455078 C-37.17503726 67.10712663 -45.29311665 62.76523594 -52.91015625 55.0703125 C-59.42134344 47.52231206 -62.8824834 37.60031533 -62.37890625 27.59375 C-60.70766461 16.15349797 -56.29754424 5.95207219 -47.125 -1.375 C-31.95634215 -11.75200818 -14.60252432 -11.11061633 0 0 Z "
    transform="translate(376,415)" style="fill: #FFFFFF;" />
  <path
    d="M0 0 C2.89446777 2.41205647 4.01648839 4.31152203 5.25 7.875 C5.46901379 13.78837241 3.27769482 16.30061582 -0.45019531 20.43603516 C-5.25049854 25.52680259 -10.22095049 30.44726882 -15.1875 35.375 C-16.3120833 36.49455632 -17.43643405 37.61434629 -18.56054688 38.734375 C-21.28769344 41.45061534 -24.01795907 44.16368292 -26.75 46.875 C-23.07097532 51.39016666 -19.13601291 55.55133991 -14.984375 59.6328125 C-14.46202271 60.14728943 -13.93967041 60.66176636 -13.40148926 61.1918335 C-11.21433644 63.34247581 -9.02441442 65.49011018 -6.82519531 67.62841797 C-5.20478095 69.20644054 -3.59402273 70.79381901 -1.984375 72.3828125 C-1.48854919 72.8600174 -0.99272339 73.33722229 -0.48187256 73.82888794 C2.34884987 76.63839881 4.16389089 79.01812348 5.25 82.875 C5.16982499 87.36480038 4.74221191 89.29444237 1.8125 92.75 C-2.20253549 96.07954163 -4.52144885 96.3107126 -9.75 95.875 C-15.47125104 92.70095933 -19.78368178 88.11437113 -24.359375 83.49609375 C-25.16739563 82.6876149 -25.97541626 81.87913605 -26.80792236 81.04615784 C-28.50795099 79.34311804 -30.20555851 77.63765839 -31.90087891 75.92993164 C-34.49978136 73.31272018 -37.10664964 70.70365178 -39.71484375 68.09570312 C-41.36766109 66.43797205 -43.02002085 64.7797846 -44.671875 63.12109375 C-45.8421524 61.94914711 -45.8421524 61.94914711 -47.03607178 60.75352478 C-47.75732239 60.02589432 -48.478573 59.29826385 -49.22167969 58.54858398 C-49.85644226 57.91000961 -50.49120483 57.27143524 -51.14520264 56.61351013 C-54.57793039 52.89476525 -55.40731743 50.29469474 -55.22859192 45.38027954 C-54.66133958 42.41089035 -53.75896629 41.27921021 -51.71362305 39.08349609 C-51.07645355 38.39334412 -50.43928406 37.70319214 -49.7828064 36.99212646 C-49.11198029 36.29347473 -48.44115417 35.594823 -47.75 34.875 C-47.1177652 34.21421448 -46.4855304 33.55342896 -45.83413696 32.87261963 C-43.82918323 30.80684078 -41.80348984 28.76377769 -39.76953125 26.7265625 C-39.03425705 25.9879599 -38.29898285 25.2493573 -37.54142761 24.4883728 C-36.00068545 22.94260587 -34.45862069 21.39815617 -32.9152832 19.85498047 C-30.55326382 17.49075519 -28.19938262 15.11861835 -25.84570312 12.74609375 C-24.34163515 11.23909481 -22.83709453 9.73256741 -21.33203125 8.2265625 C-20.63092728 7.51827301 -19.9298233 6.80998352 -19.20747375 6.08023071 C-18.54966415 5.42549774 -17.89185455 4.77076477 -17.21411133 4.09619141 C-16.35309563 3.23303818 -16.35309563 3.23303818 -15.47468567 2.35244751 C-10.78076796 -1.66858493 -5.78831547 -2.36794724 0 0 Z "
    transform="translate(262.75,400.125)" style="fill: #000000;" />
  <path
    d="M0 0 C3.5829102 1.84428544 6.29606338 4.04718949 9.13183594 6.88891602 C9.90903992 7.66304337 10.6862439 8.43717072 11.48699951 9.23475647 C12.72320038 10.48173561 12.72320038 10.48173561 13.984375 11.75390625 C14.84057434 12.61056381 15.69677368 13.46722137 16.57891846 14.34983826 C18.38327403 16.15720953 20.18520393 17.96700524 21.98486328 19.77905273 C24.74848206 22.560972 27.52006337 25.33476211 30.29296875 28.10742188 C32.04474437 29.86411124 33.79606246 31.62125702 35.546875 33.37890625 C36.37910583 34.21224991 37.21133667 35.04559357 38.06878662 35.90419006 C38.83338196 36.67516525 39.59797729 37.44614044 40.38574219 38.24047852 C41.39903595 39.25948997 41.39903595 39.25948997 42.43280029 40.29908752 C45.33670912 43.45075654 45.53950544 46.30152012 45.44929504 50.46542358 C44.91604621 53.47360257 44.03591497 54.5803975 41.9675293 56.79541016 C41.32979584 57.48499817 40.69206238 58.17458618 40.03500366 58.8850708 C39.36345245 59.58299744 38.69190125 60.28092407 38 61 C37.36768463 61.66070496 36.73536926 62.32140991 36.08389282 63.00213623 C34.07918725 65.06817262 32.0534981 67.11121404 30.01953125 69.1484375 C29.28425705 69.8870401 28.54898285 70.6256427 27.79142761 71.3866272 C26.25068545 72.93239413 24.70862069 74.47684383 23.1652832 76.02001953 C20.80326382 78.38424481 18.44938262 80.75638165 16.09570312 83.12890625 C14.59163515 84.63590519 13.08709453 86.14243259 11.58203125 87.6484375 C10.53037529 88.71087173 10.53037529 88.71087173 9.45747375 89.79476929 C8.79966415 90.44950226 8.14185455 91.10423523 7.46411133 91.77880859 C6.60309563 92.64196182 6.60309563 92.64196182 5.72468567 93.52255249 C2.77112498 96.0527126 0.48899958 96.93661116 -3.375 97.4375 C-7.07309756 96.99117788 -9.04930987 96.19867236 -11.765625 93.62109375 C-13.96222245 90.73632178 -15.11167446 87.63270437 -15 84 C-12.80237664 78.54928334 -9.48932511 75.09312218 -5.36328125 71.0703125 C-4.72384079 70.43511688 -4.08440033 69.79992126 -3.42558289 69.14547729 C-1.39486036 67.1314589 0.64607407 65.12816273 2.6875 63.125 C4.07165272 61.75590474 5.45512391 60.38612009 6.83789062 59.015625 C10.21742347 55.66905173 13.60615049 52.33205096 17 49 C13.27758409 44.53465677 9.43261968 40.33130288 5.234375 36.3125 C4.16868416 35.27403921 3.1035973 34.23495832 2.0390625 33.1953125 C0.39022638 31.58978909 -1.26199807 29.98851963 -2.92480469 28.39746094 C-4.55011117 26.8390395 -6.15877344 25.26491469 -7.765625 23.6875 C-8.26145081 23.22061768 -8.75727661 22.75373535 -9.26812744 22.27270508 C-12.74923563 18.81882275 -14.09178112 15.79158926 -15 11 C-14.11045512 6.46332112 -12.5165867 3.96712002 -9 1 C-5.93570224 -0.53214888 -3.3834358 -0.22938548 0 0 Z "
    transform="translate(659,399)" style="fill: #000000;" />
  <path
    d="M0 0 C0.82214493 -0.00524185 1.64428986 -0.0104837 2.49134827 -0.0158844 C4.22525913 -0.02229026 5.95921354 -0.02098621 7.69311523 -0.01245117 C10.33591659 -0.00394404 12.97655271 -0.0327155 15.61914062 -0.06445312 C17.30859311 -0.06606549 18.99804939 -0.06548692 20.6875 -0.0625 C21.86432594 -0.07935097 21.86432594 -0.07935097 23.06492615 -0.09654236 C28.28805131 -0.03070242 31.25923064 0.9923438 35.41015625 4.43359375 C37.69050808 8.0028401 37.73653825 11.32803183 37.08984375 15.5 C35.84321445 19.04644541 33.49859552 20.39522383 30.41015625 22.43359375 C26.86281346 23.61604135 23.61935354 23.61449306 19.92578125 23.63671875 C19.19196228 23.64241882 18.45814331 23.6481189 17.7020874 23.6539917 C16.14873695 23.66343243 14.59536655 23.669972 13.04199219 23.67382812 C10.68257972 23.68350181 8.32405068 23.71451925 5.96484375 23.74609375 C4.45182806 23.75262764 2.93880617 23.75787659 1.42578125 23.76171875 C0.37852875 23.78023895 0.37852875 23.78023895 -0.68988037 23.7991333 C-5.77961263 23.7763519 -9.14921276 22.73938618 -13.58984375 20.43359375 C-16.10404301 17.51387848 -16.55325322 15.77510537 -16.96484375 11.93359375 C-16.55926403 8.14818302 -15.96345597 6.38014686 -13.58984375 3.43359375 C-9.28746359 0.09033326 -5.25203275 -0.01960153 0 0 Z "
    transform="translate(569.58984375,106.56640625)" style="fill: #000000;" />
  <path
    d="M0 0 C0.82876144 -0.00570007 1.65752289 -0.01140015 2.51139832 -0.01727295 C4.26743288 -0.02672748 6.02348522 -0.03325873 7.77954102 -0.03710938 C10.45946471 -0.04679906 13.13861628 -0.0778109 15.81835938 -0.109375 C17.52473503 -0.11590673 19.23111617 -0.12115654 20.9375 -0.125 C21.73662308 -0.1373468 22.53574615 -0.1496936 23.35908508 -0.16241455 C27.96865975 -0.14406627 30.90422321 0.25399105 34.66796875 3.203125 C37.83752072 7.13774124 38.20145673 10.22390387 37.66796875 15.203125 C36.22652372 18.9339239 35.11589069 19.97166194 31.54125977 21.81884766 C27.65090547 23.39871816 23.92150754 23.63827332 19.7578125 23.6015625 C19.02728165 23.60443268 18.29675079 23.60730286 17.54408264 23.61026001 C16.01041888 23.61228844 14.47672852 23.60684465 12.94311523 23.59423828 C10.60796896 23.57814223 8.27454693 23.59413913 5.93945312 23.61328125 C4.44140247 23.61129905 2.94335288 23.60745586 1.4453125 23.6015625 C0.7545311 23.60763519 0.06374969 23.61370789 -0.64796448 23.6199646 C-5.26483153 23.5535786 -8.40844429 22.62101166 -12.33203125 20.203125 C-14.66541209 17.63042304 -16.18170616 15.73644095 -16.52734375 12.2109375 C-16.26841823 8.17474563 -15.53890762 6.45243755 -12.89453125 3.265625 C-8.62571378 -0.17025248 -5.30157885 0.02798209 0 0 Z "
    transform="translate(662.33203125,106.796875)" style="fill: #000000;" />
  <path
    d="M0 0 C0.80515045 -0.00570007 1.6103009 -0.01140015 2.43984985 -0.01727295 C4.14282928 -0.02671436 5.8458269 -0.03325352 7.54882812 -0.03710938 C10.14746123 -0.04681301 12.74530253 -0.07784284 15.34375 -0.109375 C16.99999531 -0.11590567 18.65624627 -0.12115589 20.3125 -0.125 C21.08661224 -0.1373468 21.86072449 -0.1496936 22.65829468 -0.16241455 C28.31367874 -0.13918723 31.45041393 1.10640559 35.6015625 4.828125 C37.46783564 8.56067127 37.44545618 12.11889765 36.7890625 16.203125 C34.42475681 20.31876824 32.24061946 21.80272172 27.7890625 23.203125 C24.30322266 23.46191406 24.30322266 23.46191406 20.328125 23.46875 C19.26493546 23.47162018 19.26493546 23.47162018 18.18026733 23.47454834 C16.6859298 23.47590453 15.19158027 23.47224773 13.69726562 23.46386719 C11.42811132 23.4531911 9.15975437 23.46376481 6.890625 23.4765625 C5.43228994 23.47524018 3.97395537 23.4726763 2.515625 23.46875 C0.54456787 23.46536621 0.54456787 23.46536621 -1.46630859 23.46191406 C-6.52292896 23.11245406 -10.72502379 22.4604366 -14.6484375 19.140625 C-16.8083128 15.08005943 -17.14498317 11.70712488 -16.2109375 7.203125 C-12.40852875 0.22236695 -7.27724743 0.03974425 0 0 Z "
    transform="translate(476.2109375,106.796875)" style="fill: #000000;" />
  <path
    d="M0 0 C1.26794655 -0.00717545 1.26794655 -0.00717545 2.56150818 -0.01449585 C4.3407478 -0.0178849 6.12005053 -0.00875224 7.89916992 0.01220703 C10.61713686 0.03902346 13.33098752 0.01241155 16.04882812 -0.01953125 C17.78256116 -0.01622762 19.51629164 -0.00982236 21.25 0 C22.05844864 -0.01012115 22.86689728 -0.02024231 23.69984436 -0.03067017 C27.99284733 0.05823305 29.58726082 0.28288321 33.04663086 3.08056641 C35.8472095 6.67669832 36.45160951 8.94140012 36.41796875 13.55859375 C35.78277561 17.27999703 33.71880359 19.06719099 31.05859375 21.6640625 C27.88813894 23.24928991 24.46415528 22.86935957 20.98046875 22.90234375 C20.17627502 22.9104155 19.3720813 22.91848724 18.54351807 22.92680359 C16.83876705 22.94064548 15.1339883 22.95136717 13.42919922 22.95922852 C10.83246631 22.9764046 8.23701899 23.02028334 5.640625 23.06445312 C3.98308227 23.07458355 2.32552872 23.08309856 0.66796875 23.08984375 C-0.10411926 23.10735184 -0.87620728 23.12485992 -1.67169189 23.14289856 C-6.87721155 23.12214649 -9.80371952 22.09194515 -13.94140625 18.6640625 C-16.22219269 15.0941359 -16.0859999 11.90526405 -15.81640625 7.7265625 C-12.80926933 0.63831119 -6.80037082 -0.08534911 0 0 Z "
    transform="translate(217.94140625,265.3359375)" style="fill: #000000;" />
  <path
    d="M0 0 C3.320625 -0.0825 6.64125 -0.165 10.0625 -0.25 C11.09511963 -0.28641602 12.12773926 -0.32283203 13.19165039 -0.36035156 C19.36517063 -0.43419322 22.99065511 0.32292769 28 4 C30.74312905 7.89347348 31.54322995 11.36682076 31.35546875 16.04296875 C30.59301899 20.24063169 28.07200962 23.02849128 25 25.8125 C21.5739643 27.8467087 18.38653128 28.12423332 14.453125 28.09765625 C13.69161133 28.09515869 12.93009766 28.09266113 12.14550781 28.09008789 C10.71223145 28.07643188 10.71223145 28.07643188 9.25 28.0625 C4.67125 28.0315625 4.67125 28.0315625 0 28 C0 18.76 0 9.52 0 0 Z "
    transform="translate(571,409)" style="fill: #FFFFFF;" />
</svg>
