<svg id="svg" version="1.1" xmlns="http://www.w3.org/2000/svg" xmlns:xlink="http://www.w3.org/1999/xlink" width="400" height="400" viewBox="0, 0, 400,400"><g id="svgg"><path id="path0" d="M74.857 107.524 C 74.390 107.991,74.333 110.944,74.333 135.024 L 74.333 162.000 65.391 162.000 L 56.448 162.000 56.073 160.375 C 52.075 143.055,25.700 143.269,21.972 160.652 C 17.247 182.686,49.267 191.681,55.840 170.167 L 56.553 167.833 65.443 167.745 L 74.333 167.656 74.333 195.831 L 74.333 224.007 58.591 223.920 L 42.849 223.833 42.572 222.167 C 41.296 214.497,33.844 208.667,25.318 208.667 C 9.539 208.667,1.948 227.636,13.207 238.929 C 22.377 248.127,39.901 243.233,42.495 230.750 L 42.720 229.667 58.526 229.667 L 74.333 229.667 74.333 262.667 L 74.333 295.667 65.396 295.667 L 56.459 295.667 56.023 293.917 C 52.454 279.604,32.602 276.364,24.334 288.744 C 20.053 295.156,20.898 305.420,26.150 310.790 C 35.687 320.541,53.191 316.123,56.018 303.250 L 56.439 301.333 65.386 301.333 L 74.333 301.333 74.333 307.517 C 74.333 314.366,74.486 315.017,76.412 316.390 L 77.500 317.167 199.333 317.257 C 335.207 317.358,323.136 317.570,324.842 315.058 C 325.647 313.874,325.667 313.695,325.667 307.584 L 325.667 301.322 334.549 301.411 L 343.432 301.500 343.981 303.500 C 347.438 316.091,363.423 320.398,373.101 311.345 C 382.149 302.881,379.150 286.638,367.742 282.319 C 357.570 278.469,346.240 284.021,343.941 293.983 L 343.552 295.667 334.609 295.667 L 325.667 295.667 325.667 262.667 L 325.667 229.667 341.463 229.667 L 357.259 229.667 357.463 230.750 C 357.575 231.346,358.095 232.733,358.618 233.833 C 366.289 249.960,390.788 245.398,391.906 227.635 C 393.310 205.339,361.672 201.195,357.175 223.087 L 356.986 224.007 341.409 223.920 L 325.833 223.833 325.748 195.745 L 325.663 167.656 334.548 167.745 L 343.432 167.833 343.982 169.841 C 349.276 189.188,378.354 185.131,378.329 165.048 C 378.304 144.567,348.572 140.422,343.920 160.250 L 343.509 162.000 334.591 162.000 L 325.673 162.000 325.586 144.760 L 325.500 127.520 324.667 127.098 C 323.602 126.560,274.164 126.464,273.833 127.000 C 273.710 127.200,271.441 127.333,268.147 127.333 C 264.716 127.333,262.667 127.209,262.667 127.000 C 262.667 126.524,241.920 126.547,241.444 127.023 C 241.209 127.258,239.904 127.310,237.627 127.175 C 235.724 127.063,230.192 126.899,225.333 126.811 L 216.500 126.651 207.500 117.677 C 201.613 111.807,198.182 108.627,197.580 108.482 C 197.074 108.359,196.578 108.126,196.477 107.963 C 196.376 107.800,193.033 107.667,189.047 107.667 C 184.508 107.667,181.671 107.538,181.456 107.322 C 181.227 107.094,178.102 107.039,172.139 107.159 C 149.720 107.611,137.873 107.673,137.541 107.341 C 136.907 106.707,75.495 106.886,74.857 107.524 M96.522 116.963 C 103.318 120.050,103.328 128.020,96.538 131.018 C 91.357 133.307,84.966 127.048,87.150 121.823 C 88.889 117.659,93.168 115.440,96.522 116.963 M114.755 117.246 C 120.617 119.570,120.693 127.736,114.881 130.736 C 108.060 134.256,101.217 124.718,106.593 119.184 C 109.210 116.489,111.485 115.949,114.755 117.246 M131.790 117.012 C 138.377 119.477,138.789 127.599,132.488 130.767 C 128.729 132.658,123.925 130.179,122.495 125.611 C 121.467 122.327,123.940 118.238,127.775 116.879 C 129.622 116.225,129.691 116.227,131.790 117.012 M92.167 119.790 C 89.678 120.915,88.741 124.849,90.471 126.905 C 92.312 129.092,95.831 129.206,97.648 127.138 C 100.915 123.416,96.687 117.748,92.167 119.790 M109.757 119.828 C 107.652 120.743,106.649 124.042,107.799 126.267 C 109.579 129.710,115.073 129.421,116.274 125.821 C 117.731 121.454,113.971 117.996,109.757 119.828 M127.333 119.917 C 125.269 120.948,124.451 123.708,125.480 126.170 C 126.866 129.487,132.468 129.487,133.853 126.170 C 135.280 122.756,133.184 119.334,129.667 119.334 C 129.025 119.334,127.975 119.597,127.333 119.917 M43.438 154.429 C 54.160 159.337,52.129 174.096,40.426 176.316 C 33.813 177.570,26.306 169.992,27.630 163.399 C 29.169 155.733,36.813 151.396,43.438 154.429 M320.000 157.667 L 320.000 162.000 304.167 162.000 C 288.778 162.000,288.315 162.019,287.667 162.667 C 287.026 163.307,287.000 163.778,287.000 174.667 L 287.000 186.000 259.785 186.000 L 232.569 186.000 230.701 184.760 C 213.180 173.127,186.768 173.077,169.446 184.644 L 167.416 186.000 140.208 186.000 L 113.000 186.000 113.000 174.667 C 113.000 163.778,112.974 163.307,112.333 162.667 C 111.685 162.019,111.222 162.000,95.833 162.000 L 80.000 162.000 80.000 157.667 L 80.000 153.333 200.000 153.333 L 320.000 153.333 320.000 157.667 M365.439 154.514 C 373.096 158.263,374.740 166.970,368.894 172.816 C 363.114 178.596,354.695 177.242,350.791 169.906 C 345.878 160.674,356.094 149.938,365.439 154.514 M107.333 179.126 C 107.333 189.377,107.391 190.633,107.884 191.043 C 108.337 191.418,113.065 191.530,134.388 191.667 L 160.340 191.833 159.575 192.667 C 151.319 201.662,146.497 211.499,144.623 223.167 C 144.163 226.031,144.026 237.238,144.433 238.750 L 144.679 239.667 125.506 239.667 L 106.333 239.667 106.333 232.357 C 106.333 226.157,106.254 224.968,105.810 224.524 C 105.352 224.066,103.692 224.000,92.643 224.000 L 80.000 224.000 80.000 195.833 L 80.000 167.667 93.667 167.667 L 107.333 167.667 107.333 179.126 M320.000 195.833 L 320.000 224.000 307.417 224.005 C 300.496 224.008,294.668 224.120,294.467 224.255 C 293.494 224.904,293.333 226.118,293.333 232.811 L 293.333 239.667 274.307 239.667 L 255.280 239.667 255.520 238.583 C 256.068 236.099,255.775 225.946,255.030 221.667 C 253.216 211.232,248.279 201.267,240.996 193.333 L 239.618 191.833 265.591 191.667 C 286.932 191.530,291.663 191.418,292.116 191.043 C 292.609 190.633,292.667 189.377,292.667 179.126 L 292.667 167.667 306.333 167.667 L 320.000 167.667 320.000 195.833 M180.125 214.599 C 180.342 214.950,191.307 248.805,191.228 248.879 C 191.069 249.028,189.945 249.076,187.462 249.039 L 184.758 249.000 184.183 247.083 C 183.867 246.029,183.383 244.451,183.108 243.576 L 182.608 241.986 176.261 242.076 L 169.913 242.167 168.912 245.583 L 167.912 249.000 164.587 249.000 C 161.996 249.000,161.299 248.904,161.428 248.567 C 161.520 248.328,162.900 244.091,164.497 239.150 C 166.093 234.209,168.224 227.617,169.232 224.500 C 170.241 221.383,171.374 217.821,171.751 216.583 L 172.437 214.333 176.199 214.333 C 178.268 214.333,180.035 214.453,180.125 214.599 M213.883 214.798 C 220.990 216.690,224.734 223.181,222.295 229.381 C 220.314 234.416,214.987 236.999,206.583 237.000 L 203.000 237.000 203.000 243.167 L 203.000 249.333 199.333 249.333 L 195.667 249.333 195.667 231.833 L 195.667 214.333 203.917 214.337 C 209.838 214.340,212.651 214.470,213.883 214.798 M236.920 231.750 L 236.833 249.167 233.250 249.261 L 229.667 249.356 229.667 231.845 L 229.667 214.333 233.336 214.333 L 237.006 214.333 236.920 231.750 M29.881 215.684 C 37.468 219.331,39.220 228.406,33.437 234.107 C 23.177 244.222,7.780 230.305,16.694 218.974 C 19.751 215.088,25.603 213.628,29.881 215.684 M379.000 215.737 C 389.150 220.288,387.873 233.889,376.955 237.515 C 372.668 238.939,366.428 235.622,364.073 230.667 C 359.755 221.581,369.746 211.588,379.000 215.737 M203.000 225.698 L 203.000 231.729 207.775 231.615 C 214.439 231.455,216.001 230.276,215.999 225.410 C 215.998 220.824,214.343 219.667,207.784 219.667 L 203.000 219.667 203.000 225.698 M173.547 229.583 C 172.506 233.204,171.657 236.354,171.661 236.583 C 171.665 236.896,172.792 237.000,176.167 237.000 L 180.667 237.000 180.662 236.083 C 180.658 235.195,177.602 224.039,177.173 223.344 C 176.161 221.705,175.471 222.892,173.547 229.583 M100.667 237.000 C 100.667 243.889,100.707 244.374,101.333 245.000 C 101.986 245.653,102.444 245.667,123.789 245.667 L 145.577 245.667 146.660 249.083 C 149.073 256.704,153.353 264.023,158.898 270.012 L 160.738 272.000 134.645 272.000 C 110.833 272.000,108.499 272.048,107.943 272.552 C 107.375 273.065,107.333 273.879,107.333 284.385 L 107.333 295.667 93.667 295.667 L 80.000 295.667 80.000 262.667 L 80.000 229.667 90.333 229.667 L 100.667 229.667 100.667 237.000 M320.000 262.667 L 320.000 295.667 306.333 295.667 L 292.667 295.667 292.667 284.443 C 292.667 274.467,292.605 273.151,292.115 272.610 C 291.590 272.029,290.325 272.000,265.440 272.000 L 239.316 272.000 241.989 268.971 C 247.344 262.904,251.332 255.758,253.507 248.333 L 254.239 245.833 276.017 245.748 L 297.796 245.662 298.564 244.939 C 299.322 244.228,299.333 244.109,299.333 236.942 L 299.333 229.667 309.667 229.667 L 320.000 229.667 320.000 262.667 M170.009 279.222 C 188.111 290.525,211.865 290.497,230.098 279.151 L 232.483 277.667 259.741 277.667 L 287.000 277.667 287.000 288.759 C 287.000 298.259,287.074 299.958,287.519 300.592 L 288.038 301.333 304.019 301.333 L 320.000 301.333 320.000 306.333 L 320.000 311.333 200.000 311.333 L 80.000 311.333 80.000 306.333 L 80.000 301.333 95.981 301.333 L 111.962 301.333 112.481 300.592 C 112.926 299.958,113.000 298.259,113.000 288.759 L 113.000 277.667 140.259 277.667 L 167.517 277.667 170.009 279.222 M43.458 288.105 C 53.958 292.912,52.353 306.951,40.971 309.867 C 36.392 311.040,30.733 307.896,28.489 302.930 C 24.404 293.895,34.426 283.969,43.458 288.105 M363.857 287.552 C 375.786 291.563,374.934 307.267,362.640 310.000 C 356.856 311.286,350.006 305.771,349.425 299.360 C 349.245 297.383,350.046 294.000,350.693 294.000 C 350.862 294.000,351.000 293.693,351.000 293.319 C 351.000 292.515,354.142 289.291,355.732 288.462 C 358.619 286.957,361.222 286.666,363.857 287.552 " stroke="none" fill="#4c94b4" fill-rule="evenodd"></path><path id="path1" d="M180.333 71.434 C 178.408 72.235,173.983 74.069,170.500 75.509 C 160.211 79.763,159.732 80.808,163.694 90.373 L 165.752 95.341 164.126 96.737 C 161.945 98.608,158.432 102.136,156.802 104.090 L 155.475 105.681 150.654 103.660 C 142.789 100.362,139.858 100.696,137.806 105.124 C 136.575 107.782,136.016 107.667,150.167 107.667 C 164.179 107.667,163.871 107.714,166.333 105.159 C 167.158 104.302,169.073 102.627,170.589 101.436 C 174.912 98.037,174.937 97.767,171.662 89.865 C 170.377 86.766,169.365 84.200,169.413 84.163 C 170.146 83.600,184.478 78.016,184.670 78.218 C 184.818 78.373,186.000 81.050,187.297 84.167 C 190.198 91.138,190.214 91.153,194.000 90.864 C 201.498 90.290,204.583 90.274,208.457 90.786 C 214.540 91.589,214.214 91.848,217.670 83.493 C 218.806 80.747,219.859 78.369,220.010 78.208 C 220.205 78.000,234.365 83.534,235.251 84.165 C 235.298 84.198,234.285 86.791,233.001 89.926 C 229.739 97.892,229.749 97.984,234.233 101.576 C 237.563 104.243,241.052 107.773,243.659 111.112 C 246.506 114.757,246.825 114.772,254.537 111.623 C 257.738 110.316,260.401 109.304,260.454 109.373 C 260.608 109.578,266.667 124.261,266.667 124.432 C 266.667 124.517,265.637 125.011,264.378 125.529 C 260.884 126.966,261.678 127.336,268.226 127.323 C 276.316 127.306,276.236 127.756,270.603 114.053 C 264.705 99.705,264.237 99.401,254.397 103.506 L 249.190 105.679 247.864 104.089 C 246.151 102.036,242.612 98.500,240.529 96.762 L 238.892 95.395 241.029 90.281 C 245.179 80.352,244.916 79.941,230.641 74.017 C 216.334 68.079,215.820 68.192,211.713 78.167 L 209.654 83.167 202.338 83.167 L 195.022 83.167 192.761 77.699 C 189.316 69.369,187.497 68.452,180.333 71.434 M195.840 101.683 C 192.861 102.149,188.996 103.209,186.146 104.342 C 178.824 107.250,179.179 107.667,188.974 107.667 C 194.277 107.667,196.310 107.777,196.613 108.080 C 196.888 108.355,198.889 108.570,202.596 108.724 C 215.198 109.247,225.596 114.812,232.045 124.483 C 233.800 127.115,234.205 127.307,238.017 127.322 C 242.246 127.337,242.349 127.207,240.633 124.021 C 232.093 108.166,213.538 98.913,195.840 101.683 " stroke="none" fill="#fcb434" fill-rule="evenodd"></path></g></svg>